<?xml version="1.0" encoding="utf-8"?>
<!-- Generator: Adobe Illustrator 19.2.1, SVG Export Plug-In . SVG Version: 6.00 Build 0)  -->
<svg version="1.1" xmlns="http://www.w3.org/2000/svg" xmlns:xlink="http://www.w3.org/1999/xlink" x="0px" y="0px"
	 viewBox="-49 787.9 40 40" style="enable-background:new -49 787.9 40 40;" xml:space="preserve">
<style type="text/css">
	.st0{fill:#49A0AE;}
	.st1{fill:#343434;}
	.st2{fill:#2F2F2F;}
	.st3{fill:#317263;}
	.st4{fill:#E6AF82;}
	.st5{fill:#363635;}
	.st6{fill:#303030;}
	.st7{fill:#E2E2E2;}
	.st8{fill:#EAEAEA;}
	.st9{fill:#FABE8E;}
	.st10{fill:#F6F6F6;}
	.st11{fill:#FEFEFE;}
	.st12{fill:#C5C3C3;}
	.st13{fill:#D14241;}
	.st14{fill:#E54645;}
	.st15{fill:#D6D4D4;}
	.st16{fill:#E54847;}
	.st17{fill:#333231;}
	.st18{fill:#393736;}
	.st19{fill:#F3D756;}
	.st20{fill:#54C3A8;}
	.st21{fill:#4DB39A;}
	.st22{fill:#FABC3D;}
	.st23{opacity:0.12;}
	.st24{fill:url(#SVGID_1_);}
	.st25{fill:#D4002B;}
	.st26{fill:#1C8ADB;}
	.st27{fill:url(#SVGID_2_);}
	.st28{fill:#25B7D3;}
	.st29{fill:#FFFFFF;}
	.st30{fill:#3E3E3F;}
	.st31{fill:#099686;}
	.st32{fill:#CFD3D4;}
	.st33{fill:#12B2A0;}
	.st34{fill:#F0F1F1;}
	.st35{fill:#84462D;}
	.st36{fill:#9C6144;}
	.st37{fill:#F7B4B4;}
	.st38{fill:#FBC8C8;}
	.st39{fill:#FBD7D7;}
	.st40{fill:#F79392;}
	.st41{fill:#9CE5F4;}
	.st42{fill:#0484AB;}
	.st43{fill:#059BBF;}
	.st44{fill:#21B2D1;}
	.st45{fill:#F37A10;}
	.st46{fill:#32BEA6;}
	.st47{fill:#E2E4E5;}
	.st48{fill:#B6BCBD;}
	.st49{fill:#40C9E7;}
	.st50{fill:#F4D0A1;}
	.st51{fill:#FACB1B;}
	.st52{fill:#A38D6C;}
	.st53{fill:#D6CDBD;}
	.st54{fill:#87745F;}
	.st55{fill:#A59F97;}
	.st56{fill:#DF2C2C;}
	.st57{fill:#FA5655;}
	.st58{fill:#E04F5F;}
	.st59{fill:#B54152;}
	.st60{fill:#FCF6C2;}
	.st61{fill:#F3B607;}
	.st62{fill:#D9E3E4;}
	.st63{fill:#A2D4DE;}
	.st64{fill:#8EC0C8;}
	.st65{fill:#C4E7ED;}
	.st66{fill:#D3DDDD;}
	.st67{fill:#67B8CB;}
	.st68{fill:#94A4A4;}
	.st69{fill:#778383;}
	.st70{fill:url(#SVGID_3_);}
	.st71{fill:#778484;}
	.st72{fill:#788484;}
	.st73{fill:#2EA397;}
	.st74{fill:#238C7F;}
	.st75{fill:#ACC563;}
	.st76{fill:#FFFFFF;filter:url(#Adobe_OpacityMaskFilter);}
	.st77{mask:url(#mask5624_1_);fill:url(#path4786_1_);}
	.st78{fill-opacity:0.1347;}
	.st79{fill:#209EAF;}
	.st80{fill:#FBEC9A;}
	.st81{fill:#FBE158;}
	.st82{fill:#8E6134;}
	.st83{fill:#20A1B2;}
	.st84{fill:#818284;}
	.st85{fill:#47C4B7;}
	.st86{fill:#5B5C5F;}
	.st87{fill:#2DA890;}
	.st88{fill:#EDBC7C;}
	.st89{fill:#FCF1E2;}
	.st90{fill:#C69009;}
	.st91{fill:url(#SVGID_4_);}
	.st92{fill:url(#SVGID_5_);}
	.st93{fill:url(#SVGID_6_);}
	.st94{fill:url(#SVGID_7_);}
	.st95{fill:url(#SVGID_8_);}
	.st96{fill:url(#SVGID_9_);}
	.st97{fill:url(#SVGID_10_);}
	.st98{fill:url(#SVGID_11_);}
	.st99{fill:url(#SVGID_12_);}
	.st100{fill:url(#SVGID_13_);}
	.st101{fill:url(#SVGID_14_);}
	.st102{fill:url(#SVGID_15_);}
	.st103{fill:url(#SVGID_16_);}
	.st104{fill:#8C8C8C;}
	.st105{fill:url(#SVGID_17_);}
	.st106{fill:url(#SVGID_18_);}
	.st107{fill:#EAD48C;}
	.st108{fill:#B29754;}
	.st109{fill:#703732;}
	.st110{fill:url(#path4151_1_);}
	.st111{fill:url(#path4155_1_);}
	.st112{fill:url(#path4151-6_1_);}
	.st113{fill:url(#path4155-6_1_);}
	.st114{fill:url(#path4194_1_);}
	.st115{fill:url(#path4153_1_);}
	.st116{fill:url(#path4153-3_1_);}
	.st117{fill:url(#path4194-5_1_);}
	.st118{fill:#6FDAF1;}
	.st119{fill:#AF7653;}
	.st120{fill:#C18D30;}
	.st121{fill:#FF0000;}
	.st122{fill:url(#SVGID_19_);}
	.st123{fill:url(#SVGID_20_);}
	.st124{fill:url(#SVGID_21_);}
	.st125{fill:#2CDCF4;}
	.st126{fill:#218693;}
	.st127{fill:#173435;}
	.st128{fill:#F99134;}
	.st129{fill:#D19834;}
	.st130{fill:#E2574C;}
	.st131{fill:#EDEDED;}
	.st132{fill:#D65348;}
	.st133{fill:#E1E1E1;}
	.st134{fill:#C04B41;}
</style>
<g id="mayor">
</g>
<g id="press">
</g>
<g id="liaison">
</g>
<g id="citizen">
	<g>
		<g>
			<g>
				<path class="st28" d="M-9.1,807.9c0,11-8.9,20.4-19.9,19.9c-11.5-0.5-20.1-9.1-19.9-19.9c0.2-11,8.9-19.9,19.9-19.9
					C-18,788-9.1,796.9-9.1,807.9z"/>
			</g>
		</g>
		<g>
			<g>
				<g>
					<path class="st35" d="M-22.9,809c0-2.9,0-5.8,0-5.8c0-3.4-2.8-6.2-6.2-6.2s-6.2,2.8-6.2,6.2c0,0,0,2.9,0,5.8
						c0,3.6-3.3,2.9-3.3,2.9s0.4,2.9,5.1,2.9c3.7,0,4.3,0,4.3,0c0,0,0,0,0,0c0.1,0,0.6,0,4.3,0c4.7,0,5.1-2.9,5.1-2.9
						S-22.9,812.6-22.9,809z"/>
				</g>
			</g>
			<g>
				<g>
					<path class="st36" d="M-35.2,803.2c0,0,0,2.9,0,5.8c0,3.6-3.3,2.9-3.3,2.9s0.4,2.9,5.1,2.9c3.7,0,4.3,0,4.3,0c0,0,0,0,0,0
						v-17.7C-32.4,797.1-35.2,799.8-35.2,803.2z"/>
				</g>
			</g>
			<g>
				<g>
					<path class="st30" d="M-18.7,816.1c-0.3-0.8-1-1.5-1.9-1.7l-5.9-1.4l-2.5,0.4l-2.5-0.4l-5.9,1.4c-0.9,0.3-1.5,0.9-1.9,1.7
						l-1.3,3.4H-29h11.6L-18.7,816.1z"/>
				</g>
			</g>
			<g>
				<g>
					<path class="st37" d="M-29,813v6.5h0.7l2.9-6.2v-3.1C-26.4,811.9-27.8,812.6-29,813z"/>
				</g>
			</g>
			<g>
				<g>
					<path class="st38" d="M-32.6,810.3v3.1l2.9,6.2h0.7V813C-30.2,812.6-31.6,811.9-32.6,810.3z"/>
				</g>
			</g>
			<g>
				<g>
					<path class="st38" d="M-23.6,804.3c-0.1,0-0.2,0-0.4,0c0,0,0,0,0,0c0-0.7,0-1.4-0.1-2c-0.2,0.7-0.9,1.3-1.7,1.3
						c-0.7,0-1.3-0.4-1.6-1c-0.3,0.6-0.9,1-1.6,1c-0.7,0-1.3-0.4-1.6-1c-0.3,0.6-0.9,1-1.6,1c-0.8,0-1.5-0.5-1.7-1.3
						c-0.1,0.6-0.1,1.3-0.1,2c0,0,0,0,0,0c-0.1,0-0.3,0-0.4,0c-0.4,0-0.7,0.4-0.7,0.8c0,1.1,0.3,2.6,1.5,2.8c0.9,3.3,3,4.5,4.6,5.1
						c1.7-0.6,3.8-1.8,4.6-5.1c1.2-0.2,1.5-1.7,1.5-2.8C-22.9,804.7-23.2,804.3-23.6,804.3z"/>
				</g>
			</g>
			<g>
				<g>
					<path class="st39" d="M-30.6,802.6c-0.3,0.6-0.9,1-1.6,1c-0.8,0-1.5-0.5-1.7-1.3c-0.1,0.6-0.1,1.3-0.1,2c0,0,0,0,0,0
						c-0.1,0-0.3,0-0.4,0c-0.4,0-0.7,0.4-0.7,0.8c0,1.1,0.3,2.6,1.5,2.8c0.9,3.3,3,4.5,4.6,5.1v-9.4
						C-29.7,803.6-30.3,803.2-30.6,802.6z"/>
				</g>
			</g>
			<g>
				<g>
					<g>
						<path class="st40" d="M-30.8,809h3.6c0,0,0,1.1-1.8,1.1S-30.8,809-30.8,809z"/>
					</g>
				</g>
			</g>
			<g>
				<g>
					<g>
						<path class="st29" d="M-32.6,812.3c0,0.4,1.6,5.7,3.6,7.2h-1.1c0,0-3.6-4.7-5.4-4.7C-35.2,813-32.6,812.3-32.6,812.3z"/>
					</g>
				</g>
			</g>
			<g>
				<g>
					<g>
						<path class="st29" d="M-25.4,812.3c0,0.4-1.6,5.7-3.6,7.2h1.1c0,0,3.6-4.7,5.4-4.7C-22.9,813-25.4,812.3-25.4,812.3z"/>
					</g>
				</g>
			</g>
			<g>
				<g>
					<g>
						<path class="st30" d="M-30.1,805c0-0.4-0.3-0.7-0.7-0.7c0,0,0,0,0,0c0,0,0,0,0,0c0,0.4-0.3,0.7-0.7,0.7c0,0.4,0.3,0.7,0.7,0.7
							C-30.4,805.7-30.1,805.4-30.1,805z"/>
					</g>
				</g>
			</g>
			<g>
				<g>
					<g>
						<path class="st30" d="M-26.5,805c0-0.4-0.3-0.7-0.7-0.7c0,0,0,0,0,0c0,0,0,0,0,0c0,0.4-0.3,0.7-0.7,0.7c0,0.4,0.3,0.7,0.7,0.7
							C-26.8,805.7-26.5,805.4-26.5,805z"/>
					</g>
				</g>
			</g>
			<g>
				<g>
					<g>
						<g>
							<path class="st29" d="M-20,819.2c0,0.2-0.2,0.4-0.4,0.4h-4c-0.2,0-0.4-0.2-0.4-0.4v-2.5c0-0.2,0.2-0.4,0.4-0.4h4
								c0.2,0,0.4,0.2,0.4,0.4V819.2z"/>
						</g>
					</g>
				</g>
				<g>
					<g>
						<g>
							<rect x="-24.3" y="817.3" class="st41" width="1.4" height="1.8"/>
						</g>
					</g>
				</g>
				<g>
					<g>
						<g>
							<g>
								<path class="st41" d="M-21.8,816.6h-1.1v-0.5c0-0.3,0.2-0.5,0.5-0.5c0.3,0,0.5,0.2,0.5,0.5V816.6z"/>
							</g>
						</g>
					</g>
					<g>
						<g>
							<g>
								<path class="st41" d="M-20,817h-4.7v-0.4c0-0.2,0.2-0.4,0.4-0.4h4c0.2,0,0.4,0.2,0.4,0.4V817z"/>
							</g>
						</g>
					</g>
				</g>
			</g>
			<g>
				<g>
					<path class="st30" d="M-27.6,809.7h-2.8c-0.3,0-0.5,0.1-0.7,0.4h-0.5c-0.8,0-2.2-0.5-2.2-2.2v-3.6h-0.8c-0.9,0-1.7,0.8-1.7,1.7
						c0,0.9,0.8,1.7,1.7,1.7h0.1v0.2c0,2.1,1.7,2.9,2.9,2.9h0.4c0.1,0.3,0.4,0.5,0.7,0.5h2.8c0.4,0,0.8-0.4,0.8-0.8
						C-26.8,810.1-27.2,809.7-27.6,809.7z"/>
				</g>
			</g>
		</g>
	</g>
</g>
<g id="finance-head">
</g>
<g id="technical-head">
</g>
<g id="cleaning-head">
</g>
<g id="secretary-head">
</g>
<g id="technical-dept">
</g>
<g id="technical">
</g>
<g id="water-net">
</g>
<g id="cleaning-dept">
</g>
<g id="green-dept">
</g>
<g id="social-security">
</g>
<g id="finance-dept">
</g>
<g id="cachier">
</g>
<g id="supplies">
</g>
<g id="administration">
</g>
<g id="registry">
</g>
<g id="population">
</g>
<g id="onestopoffice">
</g>
<g id="solidarity">
</g>
<g id="oldster">
</g>
<g id="athletics">
</g>
<g id="civilization">
</g>
</svg>
