<?xml version="1.0" encoding="utf-8"?>
<!-- Generator: Adobe Illustrator 19.2.1, SVG Export Plug-In . SVG Version: 6.00 Build 0)  -->
<svg version="1.1" xmlns="http://www.w3.org/2000/svg" xmlns:xlink="http://www.w3.org/1999/xlink" x="0px" y="0px"
	 viewBox="-94.4 607.9 40 40" style="enable-background:new -94.4 607.9 40 40;" xml:space="preserve">
<style type="text/css">
	.st0{fill:#49A0AE;}
	.st1{fill:#343434;}
	.st2{fill:#2F2F2F;}
	.st3{fill:#317263;}
	.st4{fill:#E6AF82;}
	.st5{fill:#363635;}
	.st6{fill:#303030;}
	.st7{fill:#E2E2E2;}
	.st8{fill:#EAEAEA;}
	.st9{fill:#FABE8E;}
	.st10{fill:#F6F6F6;}
	.st11{fill:#FEFEFE;}
	.st12{fill:#C5C3C3;}
	.st13{fill:#D14241;}
	.st14{fill:#E54645;}
	.st15{fill:#D6D4D4;}
	.st16{fill:#E54847;}
	.st17{fill:#333231;}
	.st18{fill:#393736;}
	.st19{fill:#F3D756;}
	.st20{fill:#54C3A8;}
	.st21{fill:#4DB39A;}
	.st22{fill:#FABC3D;}
	.st23{opacity:0.12;}
	.st24{fill:url(#SVGID_1_);}
	.st25{fill:#D4002B;}
	.st26{fill:#1C8ADB;}
	.st27{fill:url(#SVGID_2_);}
	.st28{fill:#25B7D3;}
	.st29{fill:#FFFFFF;}
	.st30{fill:#3E3E3F;}
	.st31{fill:#099686;}
	.st32{fill:#CFD3D4;}
	.st33{fill:#12B2A0;}
	.st34{fill:#F0F1F1;}
	.st35{fill:#84462D;}
	.st36{fill:#9C6144;}
	.st37{fill:#F7B4B4;}
	.st38{fill:#FBC8C8;}
	.st39{fill:#FBD7D7;}
	.st40{fill:#F79392;}
	.st41{fill:#9CE5F4;}
	.st42{fill:#0484AB;}
	.st43{fill:#059BBF;}
	.st44{fill:#21B2D1;}
	.st45{fill:#F37A10;}
	.st46{fill:#32BEA6;}
	.st47{fill:#E2E4E5;}
	.st48{fill:#B6BCBD;}
	.st49{fill:#40C9E7;}
	.st50{fill:#F4D0A1;}
	.st51{fill:#FACB1B;}
	.st52{fill:#A38D6C;}
	.st53{fill:#D6CDBD;}
	.st54{fill:#87745F;}
	.st55{fill:#A59F97;}
	.st56{fill:#DF2C2C;}
	.st57{fill:#FA5655;}
	.st58{fill:#E04F5F;}
	.st59{fill:#B54152;}
	.st60{fill:#FCF6C2;}
	.st61{fill:#F3B607;}
	.st62{fill:#D9E3E4;}
	.st63{fill:#A2D4DE;}
	.st64{fill:#8EC0C8;}
	.st65{fill:#C4E7ED;}
	.st66{fill:#D3DDDD;}
	.st67{fill:#67B8CB;}
	.st68{fill:#94A4A4;}
	.st69{fill:#778383;}
	.st70{fill:url(#SVGID_3_);}
	.st71{fill:#778484;}
	.st72{fill:#788484;}
	.st73{fill:#2EA397;}
	.st74{fill:#238C7F;}
	.st75{fill:#ACC563;}
	.st76{fill:#FFFFFF;filter:url(#Adobe_OpacityMaskFilter);}
	.st77{mask:url(#mask5624_1_);fill:url(#path4786_1_);}
	.st78{fill-opacity:0.1347;}
	.st79{fill:#209EAF;}
	.st80{fill:#FBEC9A;}
	.st81{fill:#FBE158;}
	.st82{fill:#8E6134;}
	.st83{fill:#20A1B2;}
	.st84{fill:#818284;}
	.st85{fill:#47C4B7;}
	.st86{fill:#5B5C5F;}
	.st87{fill:#2DA890;}
	.st88{fill:#EDBC7C;}
	.st89{fill:#FCF1E2;}
	.st90{fill:#C69009;}
	.st91{fill:url(#SVGID_4_);}
	.st92{fill:url(#SVGID_5_);}
	.st93{fill:url(#SVGID_6_);}
	.st94{fill:url(#SVGID_7_);}
	.st95{fill:url(#SVGID_8_);}
	.st96{fill:url(#SVGID_9_);}
	.st97{fill:url(#SVGID_10_);}
	.st98{fill:url(#SVGID_11_);}
	.st99{fill:url(#SVGID_12_);}
	.st100{fill:url(#SVGID_13_);}
	.st101{fill:url(#SVGID_14_);}
	.st102{fill:url(#SVGID_15_);}
	.st103{fill:url(#SVGID_16_);}
	.st104{fill:#8C8C8C;}
	.st105{fill:url(#SVGID_17_);}
	.st106{fill:url(#SVGID_18_);}
	.st107{fill:#EAD48C;}
	.st108{fill:#B29754;}
	.st109{fill:#703732;}
	.st110{fill:url(#path4151_1_);}
	.st111{fill:url(#path4155_1_);}
	.st112{fill:url(#path4151-6_1_);}
	.st113{fill:url(#path4155-6_1_);}
	.st114{fill:url(#path4194_1_);}
	.st115{fill:url(#path4153_1_);}
	.st116{fill:url(#path4153-3_1_);}
	.st117{fill:url(#path4194-5_1_);}
	.st118{fill:#6FDAF1;}
	.st119{fill:#AF7653;}
	.st120{fill:#C18D30;}
	.st121{fill:#FF0000;}
	.st122{fill:url(#SVGID_19_);}
	.st123{fill:url(#SVGID_20_);}
	.st124{fill:url(#SVGID_21_);}
	.st125{fill:#2CDCF4;}
	.st126{fill:#218693;}
	.st127{fill:#173435;}
	.st128{fill:#F99134;}
	.st129{fill:#D19834;}
	.st130{fill:#E2574C;}
	.st131{fill:#EDEDED;}
	.st132{fill:#D65348;}
	.st133{fill:#E1E1E1;}
	.st134{fill:#C04B41;}
</style>
<g id="mayor">
</g>
<g id="press">
</g>
<g id="liaison">
</g>
<g id="citizen">
</g>
<g id="finance-head">
</g>
<g id="technical-head">
</g>
<g id="cleaning-head">
</g>
<g id="secretary-head">
</g>
<g id="technical-dept">
</g>
<g id="technical">
</g>
<g id="water-net">
</g>
<g id="cleaning-dept">
</g>
<g id="green-dept">
</g>
<g id="social-security">
</g>
<g id="finance-dept">
</g>
<g id="cachier">
</g>
<g id="supplies">
</g>
<g id="administration">
</g>
<g id="registry">
</g>
<g id="population">
</g>
<g id="onestopoffice">
</g>
<g id="solidarity">
</g>
<g id="oldster">
</g>
<g id="athletics">
</g>
<g id="civilization">
	<g>
		<g>
			<path class="st0" d="M-94.2,627.9c0-10.9,8.9-19.8,19.8-19.8c10.9,0,19.8,8.9,19.8,19.8c0,10.9-8.9,19.8-19.8,19.8
				C-85.3,647.7-94.2,638.8-94.2,627.9z"/>
		</g>
		<path class="st22" d="M-74.4,608.1c-10.9,0-19.8,8.9-19.8,19.8c0,10.9,8.9,19.8,19.8,19.8c10.9,0,19.8-8.9,19.8-19.8
			C-54.6,616.9-63.4,608.1-74.4,608.1z"/>
		<g>
			<path class="st129" d="M-79.6,629.7c-1.1,0.3-1.8,0.8-2.2,1.4c0.4-0.4,1-0.7,1.8-1c0.8-0.2,1.5-0.2,2.1-0.1v-0.4
				C-78.4,629.4-79,629.5-79.6,629.7z M-81.9,625.9l-4,1c0,0,0.1,0.1,0.2,0.2l3.4-0.9c0,0,0,0.6-0.5,1.2
				C-82,626.8-81.9,625.9-81.9,625.9z M-78.6,635.2c-5.6,1.5-8.5-5-9.4-8.3c-0.4-1.5-0.6-2.7-0.6-3.5c0-0.1,0-0.1,0-0.2
				c-0.3,0-0.4,0.2-0.4,0.6c0,0.8,0.2,1.9,0.6,3.5c0.9,3.3,3.8,9.8,9.4,8.3c1.2-0.3,2.1-0.9,2.8-1.7
				C-76.8,634.5-77.6,634.9-78.6,635.2z M-77.5,621.9v0.4h2.2c0-0.1-0.1-0.3-0.1-0.4H-77.5z"/>
		</g>
		<g>
			<path class="st129" d="M-74.9,625.2c1,0.3,1.5,1,1.8,1.6l1.1,0.3c0,0-0.1-2.1-2.1-2.7c-1.8-0.5-2.9,1-3.1,1.2
				C-76.6,625.2-75.8,624.9-74.9,625.2z M-66.2,626.8c-1.8-0.5-2.9,1-3,1.2c0.5-0.4,1.3-0.7,2.3-0.4c1,0.3,1.5,1,1.8,1.6l1.1,0.3
				C-64.1,629.5-64.2,627.3-66.2,626.8z M-67.2,632.4l-9.1-2.5c0,0,0.1,0.5,0.5,1.1l7.7,2.1C-67.6,632.8-67.2,632.4-67.2,632.4z
				 M-73.6,637.9c-7.2-1.9-6.3-11.1-5.2-15.5c0.5-1.8,1-3.1,1.4-4c-0.2-0.1-0.4,0.1-0.6,0.5c-0.4,0.9-1,2.3-1.5,4.3
				c-1.2,4.4-2,13.5,5.2,15.5c3.4,0.9,6-0.5,8-2.6C-68.2,637.7-70.6,638.7-73.6,637.9z"/>
		</g>
		<path class="st130" d="M-77.5,633v-1.9l-5.2,1.5c0,0,0.4-2.2,3.1-3c0.8-0.2,1.5-0.2,2.1-0.1v-7.6h2.6c-0.3-0.9-0.6-1.5-0.8-2
			c-0.4-0.8-0.8-0.3-1.6,0.5c-0.6,0.5-2.2,1.6-4.5,2.3c-2.4,0.6-4.3,0.5-5.1,0.3c-1.1-0.2-1.7-0.4-1.7,0.4c0,0.8,0.2,1.9,0.6,3.5
			c0.9,3.3,3.8,9.8,9.4,8.3c1.5-0.4,2.5-1.2,3.2-2.2L-77.5,633L-77.5,633z M-85.9,626.9l4-1c0,0-0.1,1.5-1.6,1.9
			C-85,628.2-85.9,626.9-85.9,626.9z"/>
		<path class="st131" d="M-62.7,622c-1,0.2-3.5,0.4-6.5-0.4c-3.1-0.8-5.1-2.2-5.9-2.9c-1.1-1-1.6-1.6-2.1-0.6
			c-0.4,0.9-1,2.3-1.5,4.3c-1.2,4.4-2,13.5,5.2,15.5c7.2,1.9,11.1-6.5,12.2-10.8c0.5-2,0.8-3.5,0.8-4.5
			C-60.4,621.4-61.2,621.8-62.7,622z M-77.1,625.6c0,0,1.1-1.8,3.1-1.2c1.9,0.5,2.1,2.7,2.1,2.7L-77.1,625.6z M-72.4,633.6
			c-3.4-1-3.9-3.7-3.9-3.7l9.1,2.5C-67.2,632.4-69.1,634.5-72.4,633.6z M-69.2,628c0,0,1.1-1.8,3.1-1.2c1.9,0.5,2.1,2.7,2.1,2.7
			L-69.2,628z"/>
		<path class="st132" d="M-79.3,631.7l-3.4,1c0,0,0.4-2.1,2.8-2.9l-1.9-7.1l-0.2,0c-2.4,0.6-4.3,0.5-5.1,0.3
			c-1.1-0.2-1.7-0.4-1.7,0.4c0,0.8,0.2,1.9,0.6,3.5c0.9,3.3,3.8,9.8,9.4,8.3l0.2-0.1L-79.3,631.7z M-85.9,626.9l4-1
			c0,0-0.1,1.5-1.6,1.9C-85,628.2-85.9,626.9-85.9,626.9z"/>
		<path class="st133" d="M-72.3,633.6l-0.2,0c-3.4-1-3.9-3.7-3.9-3.7l4.7,1.3l2.5-9.6l0,0c-3.1-0.8-5.1-2.2-5.9-2.9
			c-1.1-1-1.6-1.6-2.1-0.6c-0.4,0.9-1,2.3-1.5,4.3c-1.2,4.4-2,13.5,5.2,15.5l0.1,0L-72.3,633.6z M-77.1,625.6c0,0,1.1-1.8,3.1-1.2
			c1.9,0.5,2.1,2.7,2.1,2.7L-77.1,625.6z"/>
		<g>
			<path class="st134" d="M-79.2,631.6l-0.9,0.3c0.2,1.2,0.6,2.3,1.2,3.4c0.1,0,0.2,0,0.3-0.1c0.3-0.1,0.5-0.2,0.8-0.3
				C-78.5,633.9-78.9,632.8-79.2,631.6z M-79.5,623.2c-0.5,1.7-0.9,4.2-0.8,6.7c0.2-0.1,0.4-0.2,0.7-0.2l0.2,0
				c-0.2-2.7,0.2-5.4,0.7-7.2c0.1-0.5,0.3-0.9,0.4-1.3c-0.2,0.1-0.4,0.3-0.7,0.4C-79.2,622-79.4,622.6-79.5,623.2z"/>
		</g>
	</g>
</g>
</svg>
