<?xml version="1.0" encoding="utf-8"?>
<!-- Generator: Adobe Illustrator 17.0.0, SVG Export Plug-In . SVG Version: 6.00 Build 0)  -->
<!DOCTYPE svg PUBLIC "-//W3C//DTD SVG 1.1//EN" "http://www.w3.org/Graphics/SVG/1.1/DTD/svg11.dtd">
<svg version="1.1" id="Layer_1" xmlns="http://www.w3.org/2000/svg" xmlns:xlink="http://www.w3.org/1999/xlink" x="0px" y="0px"
	 width="512px" height="512px" viewBox="0 0 512 512" enable-background="new 0 0 512 512" xml:space="preserve">
<g>
	<g>
		<g>
			<g>
				<g>
					<path fill="#EDC92F" d="M3.921,256.002c0-139.23,112.861-252.083,252.075-252.083c139.222,0,252.083,112.853,252.083,252.083
						c0,139.214-112.861,252.079-252.083,252.079C116.782,508.081,3.921,395.216,3.921,256.002z"/>
				</g>
			</g>
		</g>
	</g>
	<g>
		<g>
			<g>
				<path fill="#A46434" d="M304.146,220.733c-0.506,2.378-3.809,9.044-2.672,9.878l24.026,17.593
					c2.562,1.872,8.649-2.096,13.583-8.844l15.79-21.56c4.935-6.735,6.872-13.73,4.311-15.601l-24.028-17.592
					c-1.606-1.176-4.586-0.071-7.794,2.567l-45.946-40.976l-0.099,0.13c0,0-38.434-41.707-46.694-47.748
					c-57.743-42.283-108.092-5.745-122.564,12.764c0,0,58.409-3.191,73.157,21.854c18.116,30.756,1.583,47.276,1.583,47.276
					L39.957,385.935c13.39,22.217,30.113,42.192,49.472,59.25c58.834-101.909,130.348-225.335,136.191-233.317
					C246.167,183.808,304.146,220.733,304.146,220.733z"/>
			</g>
			<g>
				<path fill="#935328" d="M228.565,162.125L61.573,416.432c8.514,10.304,17.831,19.92,27.855,28.752
					c57.597-99.766,127.334-220.134,135.726-232.643c-1.031-1.76,21.405-43.552,31.171-48.896c-0.092-0.045-0.186-0.088-0.278-0.134
					C245.774,160.777,238.903,164.613,228.565,162.125z"/>
			</g>
			<g>
				<path fill="#7B7C7C" d="M185.215,133.199c18.116,30.756,1.583,47.276,1.583,47.276l38.822,31.393
					c20.548-28.059,78.526,8.866,78.526,8.866c-0.506,2.378-3.809,9.044-2.672,9.878l24.026,17.593
					c2.562,1.872,8.649-2.096,13.583-8.844l15.79-21.56c4.935-6.735,6.872-13.73,4.311-15.601l-24.028-17.592
					c-1.606-1.176-4.586-0.071-7.794,2.567l-45.946-40.976l-0.099,0.13c0,0-38.434-41.707-46.694-47.748
					c-57.743-42.283-108.092-5.745-122.564,12.764C112.058,111.345,170.467,108.154,185.215,133.199z"/>
			</g>
			<g>
				<path fill="#626463" d="M205.953,195.963l19.667,15.904c20.548-28.059,78.526,8.866,78.526,8.866
					c-0.506,2.378-3.809,9.044-2.672,9.878l24.026,17.593c2.562,1.872,8.649-2.096,13.583-8.844l15.79-21.56
					c4.935-6.735,6.872-13.73,4.311-15.601l-24.028-17.592c-1.606-1.176-4.586-0.071-7.794,2.567l-45.946-40.976l-0.099,0.13
					c0,0-14.096-15.296-27.048-28.703L205.953,195.963z"/>
			</g>
		</g>
		<g>
			<path fill="#868786" d="M345.862,330.037c0-1.78,3.571-3.224,7.978-3.224s7.979,1.444,7.979,3.224
				c0,1.78-3.572,86.657-7.979,86.657S345.862,331.817,345.862,330.037z"/>
			<path fill="#6A6D6C" d="M345.862,330.037c0-1.78,3.571-3.224,7.978-3.224s7.979,1.444,7.979,3.224
				c0,0.355-0.238,6.599-0.5,12.199l-15.189-5.542C345.957,332.779,345.862,330.324,345.862,330.037z"/>
			<ellipse fill="#868786" cx="353.841" cy="321.036" rx="33.288" ry="13.456"/>
			<ellipse fill="#666867" cx="353.841" cy="321.036" rx="13.479" ry="5.45"/>
		</g>
	</g>
</g>
</svg>
