<?xml version="1.0" encoding="utf-8"?>
<!-- Generator: Adobe Illustrator 17.0.0, SVG Export Plug-In . SVG Version: 6.00 Build 0)  -->
<!DOCTYPE svg PUBLIC "-//W3C//DTD SVG 1.1//EN" "http://www.w3.org/Graphics/SVG/1.1/DTD/svg11.dtd">
<svg version="1.1" id="Layer_1" xmlns="http://www.w3.org/2000/svg" xmlns:xlink="http://www.w3.org/1999/xlink" x="0px" y="0px"
	 width="512px" height="512px" viewBox="0 0 512 512" enable-background="new 0 0 512 512" xml:space="preserve">
<g>
	<g>
		<g>
			<g>
				<g>
					<path fill="#337180" d="M507.579,256.006c0-138.955-112.637-251.582-251.576-251.582
						C117.058,4.424,4.421,117.051,4.421,256.006c0,138.933,112.637,251.57,251.582,251.57
						C394.942,507.576,507.579,394.939,507.579,256.006z"/>
				</g>
			</g>
		</g>
	</g>
	<g>
		<g>
			<g>
				
					<ellipse transform="matrix(0.9917 -0.1288 0.1288 0.9917 -31.0897 40.9817)" fill="#ADE0F7" cx="301.241" cy="260.812" rx="5.927" ry="12.601"/>
				<g>
					<path fill="#77CCF2" d="M307.508,271.944c0,0,46.198,8.427,87.595-5.976c15.521-5.399,40.607-19.525,34.468-52.425
						c-4.782-25.63-37.633-67.954-82.067-23.036c-13.311,13.455-13.909,39.975-21.711,45.973
						c-5.746,4.416-16.957,9.744-23.334,10.376C302.458,246.858,310.307,260.241,307.508,271.944z"/>
					<path fill="#ADE0F7" d="M425.01,212.131c-4.262-22.859-33.561-60.607-73.19-20.546
						C339.946,203.586,430.485,241.474,425.01,212.131z"/>
				</g>
			</g>
			<path fill="#B7967F" d="M313.439,317.844c0,0-0.385,1.538-2.16,1.961s-2.887-1.119-2.887-1.119l-6.946-41.623l5.046-0.843
				L313.439,317.844z"/>
			<g>
				<path fill="#B7967F" d="M298.391,243.216c-4.226,0.705-6.34,9.111-4.727,18.777c1.613,9.666,6.342,16.931,10.569,16.225
					c4.225-0.705,6.339-9.111,4.726-18.777C307.345,249.775,302.614,242.511,298.391,243.216z M303.17,271.856
					c-2.689,0.449-5.7-4.175-6.727-10.327c-1.026-6.153,0.32-11.504,3.01-11.952c2.69-0.45,5.7,4.175,6.727,10.327
					C307.206,266.057,305.861,271.408,303.17,271.856z"/>
			</g>
		</g>
		<g>
			<g>
				<path fill="#DFA17C" d="M143.228,333.203c7.471-6.998,12.073-32.866,12.073-32.866c-16.098-22.133-36.302-41.039-36.947-83.111
					c-0.645-42.072,46.951-60.365,46.951-60.365c40.913-17.439,73.837,14.026,73.837,14.026c5.166,6.544,9.801,17.861,13.087,27.325
					c1.024,2.945,0.798,6.723,1.245,7.841c0.962,2.405,3.777,8.432,3.777,8.432c6.037,11.402,17.44,16.768,17.44,16.768
					c12.072,5.367,3,14.813,3,14.813c-1.202,2.085-0.801,4.41-0.588,4.811l-0.474,22.412c-1.744,1.082-1.94,5.583-1.94,5.583
					c1.341,22.805-22.804,22.806-22.804,22.806c-30.646-2.768-37.841,9.522-41.585,13.414c-13.598,14.129-18.78,52.317-18.78,52.317
					s-17.315-4.421-27.963-12.027C152.909,347.777,143.228,333.203,143.228,333.203z"/>
				<path fill="#6E4832" d="M248.597,202.865c0,0-14.332-2.686-20.732-0.872c-2.567,0.727-7.327,7.422-7.327,7.422
					s6.617-2.603,9.103-3.336c2.485-0.734,19.361-1.002,19.361-1.002S251.201,203.748,248.597,202.865z"/>
				<path fill="#644B44" d="M250.432,213.069c0,0-0.899,3.866-4.226,6.423c-3.583,2.752-9.836,4.034-16.606-1.268
					c0,0,9.338-0.761,13.901-1.775S250.432,213.069,250.432,213.069z"/>
				<path fill="#6E4832" d="M253.074,190.657c-6.553,1.002-31.567-3.672-49.912,7.023c-9.17,5.345-18.036,12.846-24.823,23.449
					c-9.971,15.579-15.035,34.845-15.289,53.632c-0.254,18.761-8.62,27.634-8.62,27.634s-76.565-77.326-18.43-130.022
					c18.687-16.937,78.904-46.829,116.641,11.027C253.388,184.546,254.818,190.39,253.074,190.657z"/>
				<path fill="#DFA17C" d="M272.638,258.977c0,0,3.351-7.988,5.01-7.757c1.658,0.229,4.237-0.541,4.935,5.03
					c0.244,1.942-2.062,4.063-2.286,5.854c-0.241,1.924,2.887,4.33,0.963,9.262c0,0-1.687,3.82-8.14,0.922
					C273.12,272.288,271.177,262.123,272.638,258.977z"/>
			</g>
			
				<ellipse transform="matrix(0.9436 -0.331 0.331 0.9436 -72.3607 68.7152)" fill="#DFA17C" cx="165.54" cy="246.779" rx="12.5" ry="15.714"/>
			<path fill="#6E4832" d="M146.263,165.959c0,0-38.563-50.606-79.225-9.943c-11.547,11.547-22.132,25.981-16.358,55.49
				c0,0,10.906,36.565-5.774,48.113c0,0,33.218,4.124,35.283-21.169c1.282-15.717,13.792-67.679,47.793-50.999L146.263,165.959z"/>
		</g>
		<g>
			<path fill="#EA4949" d="M132.119,328.002c-21.111-0.812-60.422,58.181-75.255,81.733c28.99,37.495,68.328,66.579,113.743,82.966
				c9.937-17.565,27.723-52.887,35.542-92.697C217.304,343.213,132.119,328.002,132.119,328.002z"/>
		</g>
		<g>
			<path fill="#C92727" d="M284.008,370.528c0,0,31.22,2.36,29.587,13.07c0,0-25.639,15.609-30.676-11.073L284.008,370.528z"/>
			<path fill="#DFA17C" d="M308.648,390.897c0,0,12.699-31.942,19.014-39.102c0,0,10.128-2.77,8.558-7.302
				c-1.552-4.49-2.774-4.161-7.626-3.525c0,0,8.312-1.857,7.43-6.52c-0.519-2.741-0.425-6.38-10.71-4.435c0,0,10.211-0.441,9.21-6.5
				c-0.893-5.376-2.91-5.983-7.775-5.062c0,0,5.659-0.858,4.815-5.313c-1.222-6.456-5.768-5.989-11.691-4.747
				c-13.795,2.897-22.509,2.629-27.294,8.86c0,0-8.458,16.086-5.478,45.345c0,0,0.972,6.63-3.976,19.498
				C278.176,394.963,301.646,401.17,308.648,390.897z"/>
			<polygon fill="#C48769" points="312.959,320.637 327.776,318.26 313.145,321.242 			"/>
			<polygon fill="#C48769" points="314.997,331.398 328.712,329.585 315.182,332.004 			"/>
			<polygon fill="#C48769" points="317.126,342.642 329.43,340.881 317.312,343.246 			"/>
		</g>
		<g>
			<path fill="#EA4949" d="M282.919,372.525l-28.093,100.494l-51.212-100.397l-29.916,74.537l53.111,58.721
				c9.58,1.107,19.318,1.695,29.194,1.695c10.335,0,20.522-0.637,30.53-1.848l27.062-122.131
				C293.82,390.357,282.919,372.525,282.919,372.525z"/>
		</g>
		<g>
			<circle fill="#77CCF2" cx="380.66" cy="107.686" r="30.295"/>
			<path fill="#ADE0F7" d="M402.716,121.931c-7.867,12.181-51.978-16.307-44.112-28.488c7.867-12.181,24.119-15.679,36.299-7.811
				C407.086,93.497,410.582,109.75,402.716,121.931z"/>
		</g>
		<g>
			<circle fill="#77CCF2" cx="290.574" cy="77.263" r="20.206"/>
			<path fill="#ADE0F7" d="M305.284,86.764c-5.247,8.123-34.668-10.877-29.421-19.001c5.247-8.125,16.086-10.457,24.21-5.21
				C308.199,67.8,310.531,78.639,305.284,86.764z"/>
		</g>
	</g>
</g>
</svg>
