<?xml version="1.0" encoding="utf-8"?>
<!-- Generator: Adobe Illustrator 17.0.0, SVG Export Plug-In . SVG Version: 6.00 Build 0)  -->
<!DOCTYPE svg PUBLIC "-//W3C//DTD SVG 1.1//EN" "http://www.w3.org/Graphics/SVG/1.1/DTD/svg11.dtd">
<svg version="1.1" id="Layer_1" xmlns="http://www.w3.org/2000/svg" xmlns:xlink="http://www.w3.org/1999/xlink" x="0px" y="0px"
	 width="512px" height="512px" viewBox="0 0 512 512" enable-background="new 0 0 512 512" xml:space="preserve">
<g>
	<g>
		<g>
			<g>
				<g>
					<path fill="#A2D4DE" d="M2.465,256.002c0-140.034,113.513-253.539,253.539-253.539c140.018,0,253.531,113.505,253.531,253.539
						c0,140.022-113.513,253.535-253.531,253.535C115.978,509.537,2.465,396.024,2.465,256.002z"/>
				</g>
			</g>
		</g>
	</g>
	<g>
		<g>
			<path fill="#B1B1B2" d="M3.92,283.07c3.503,33.03,13.362,64.157,28.311,92.16c42.667,79.908,126.851,134.307,223.773,134.307
				c96.905,0,181.09-54.395,223.757-134.299c14.809-27.733,24.598-58.531,28.195-91.206L3.92,283.07z"/>
			<path fill="#6CC077" d="M509.269,245.603c-0.578-14.426-2.345-28.538-5.246-42.245c-2.745-13.002-6.513-25.626-11.165-37.811
				l-51.221-51.221c0,0-33.199-38.695-60.963-40.271c-27.757-1.575-57.671,36.971-57.671,36.971l-45.716,45.724l-7.389-7.4
				c0,0-26.998-31.482-49.61-32.768c-22.596-1.286-46.92,30.094-46.92,30.094l-24.293,24.297
				c-3.855-4.324-24.121-26.044-41.494-27.037c-19.257-1.091-40.016,25.661-40.016,25.661l-32.862,32.862l-26.513-0.051
				c-0.657,3.069-1.235,6.165-1.783,9.269c-1.275,7.229-2.26,14.551-2.909,21.979c-0.641,7.369-1.032,14.809-1.032,22.346
				c0,9.148,0.508,18.171,1.454,27.068l504.036,0.962c1.016-9.207,1.579-18.55,1.579-28.03
				C509.535,252.515,509.41,249.059,509.269,245.603z"/>
		</g>
		<g>
			<g>
				<path fill="#FFFFFF" d="M435.1,383.154l-40.501,0.211l-0.055-10.825l40.493-0.215L435.1,383.154z M354.106,383.584
					l-40.501,0.215l-0.054-10.841l40.501-0.211L354.106,383.584z M273.111,384.007l-40.501,0.211l-0.054-10.829l40.501-0.219
					L273.111,384.007z M192.117,384.437l-40.493,0.215l-0.055-10.841l40.493-0.207L192.117,384.437z M111.123,384.859l-40.494,0.211
					l-0.054-10.837l40.493-0.207L111.123,384.859z"/>
			</g>
		</g>
		<g>
			<path fill="#357180" d="M393.028,285.158l-235.939,4.715c41.134-50.799,81.831-63.656,120.338-64.427
				C318.358,224.629,363.191,238.183,393.028,285.158z"/>
			<path fill="#A2DADB" d="M271.43,286.855l-95.1,1.9c32.182-39.735,64.004-49.786,94.13-50.388L271.43,286.855z"/>
			<path fill="#A2DADB" d="M282.869,286.624l95.1-1.896c-33.73-38.421-65.935-47.194-96.069-46.592L282.869,286.624z"/>
			<path fill="#357180" d="M386.053,358.15c0,0-299.567,5.985-309.959,6.197c-7.225,0.137-8.116-14.293-8.116-14.293
				c-1.298-64.998,97.531-60.955,97.531-60.955l227.197-4.539c0,0,17.162,9.863,35.482,12.541
				c13.581,1.982,18.335,13.484,18.585,26.118C447.094,339.62,437.047,348.998,386.053,358.15z"/>
			<path fill="#818282" d="M244.026,355.57c-100.666,0.207-175.257-0.262-175.257-0.262s-0.086,1.13-0.367,4.3
				c-0.352,3.98,1.681,6.665,4.605,6.607l312.781-6.251l0.469-7.236C355.537,352.134,344.692,355.367,244.026,355.57z"/>
			<path fill="#202121" d="M97.549,353.385c-0.406-20.446,15.833-37.35,36.271-37.757c20.446-0.41,37.35,15.825,37.757,36.271
				c0.407,20.446-15.833,37.35-36.271,37.761C114.86,390.058,97.964,373.819,97.549,353.385z"/>
			<path fill="#202121" d="M314.215,349.053c-0.407-20.446,15.841-37.346,36.279-37.757c20.446-0.41,37.35,15.829,37.757,36.271
				c0.407,20.446-15.833,37.354-36.271,37.761C331.533,385.731,314.629,369.499,314.215,349.053z"/>
			<path fill="#818282" d="M116.51,353.002c-0.203-9.977,7.725-18.218,17.694-18.421c9.969-0.195,18.225,7.725,18.413,17.702
				c0.203,9.977-7.717,18.218-17.694,18.417C124.954,370.899,116.705,362.974,116.51,353.002z"/>
			<path fill="#818282" d="M333.183,348.67c-0.203-9.973,7.717-18.214,17.694-18.417c9.977-0.199,18.21,7.721,18.413,17.698
				c0.203,9.98-7.725,18.214-17.702,18.413C341.627,366.571,333.386,358.643,333.183,348.67z"/>
		</g>
	</g>
</g>
</svg>
