<?xml version="1.0" encoding="utf-8"?>
<!-- Generator: Adobe Illustrator 19.2.1, SVG Export Plug-In . SVG Version: 6.00 Build 0)  -->
<svg version="1.1" xmlns="http://www.w3.org/2000/svg" xmlns:xlink="http://www.w3.org/1999/xlink" x="0px" y="0px"
	 viewBox="41.6 653.2 40 40" style="enable-background:new 41.6 653.2 40 40;" xml:space="preserve">
<style type="text/css">
	.st0{fill:#49A0AE;}
	.st1{fill:#343434;}
	.st2{fill:#2F2F2F;}
	.st3{fill:#317263;}
	.st4{fill:#E6AF82;}
	.st5{fill:#363635;}
	.st6{fill:#303030;}
	.st7{fill:#E2E2E2;}
	.st8{fill:#EAEAEA;}
	.st9{fill:#FABE8E;}
	.st10{fill:#F6F6F6;}
	.st11{fill:#FEFEFE;}
	.st12{fill:#C5C3C3;}
	.st13{fill:#D14241;}
	.st14{fill:#E54645;}
	.st15{fill:#D6D4D4;}
	.st16{fill:#E54847;}
	.st17{fill:#333231;}
	.st18{fill:#393736;}
	.st19{fill:#F3D756;}
	.st20{fill:#54C3A8;}
	.st21{fill:#4DB39A;}
	.st22{fill:#FABC3D;}
	.st23{opacity:0.12;}
	.st24{fill:url(#SVGID_1_);}
	.st25{fill:#D4002B;}
	.st26{fill:#1C8ADB;}
	.st27{fill:url(#SVGID_2_);}
	.st28{fill:#25B7D3;}
	.st29{fill:#FFFFFF;}
	.st30{fill:#3E3E3F;}
	.st31{fill:#099686;}
	.st32{fill:#CFD3D4;}
	.st33{fill:#12B2A0;}
	.st34{fill:#F0F1F1;}
	.st35{fill:#84462D;}
	.st36{fill:#9C6144;}
	.st37{fill:#F7B4B4;}
	.st38{fill:#FBC8C8;}
	.st39{fill:#FBD7D7;}
	.st40{fill:#F79392;}
	.st41{fill:#9CE5F4;}
	.st42{fill:#0484AB;}
	.st43{fill:#059BBF;}
	.st44{fill:#21B2D1;}
	.st45{fill:#F37A10;}
	.st46{fill:#32BEA6;}
	.st47{fill:#E2E4E5;}
	.st48{fill:#B6BCBD;}
	.st49{fill:#40C9E7;}
	.st50{fill:#F4D0A1;}
	.st51{fill:#FACB1B;}
	.st52{fill:#A38D6C;}
	.st53{fill:#D6CDBD;}
	.st54{fill:#87745F;}
	.st55{fill:#A59F97;}
	.st56{fill:#DF2C2C;}
	.st57{fill:#FA5655;}
	.st58{fill:#E04F5F;}
	.st59{fill:#B54152;}
	.st60{fill:#FCF6C2;}
	.st61{fill:#F3B607;}
	.st62{fill:#D9E3E4;}
	.st63{fill:#A2D4DE;}
	.st64{fill:#8EC0C8;}
	.st65{fill:#C4E7ED;}
	.st66{fill:#D3DDDD;}
	.st67{fill:#67B8CB;}
	.st68{fill:#94A4A4;}
	.st69{fill:#778383;}
	.st70{fill:url(#SVGID_3_);}
	.st71{fill:#778484;}
	.st72{fill:#788484;}
	.st73{fill:#2EA397;}
	.st74{fill:#238C7F;}
	.st75{fill:#ACC563;}
	.st76{fill:#FFFFFF;filter:url(#Adobe_OpacityMaskFilter);}
	.st77{mask:url(#mask5624_1_);fill:url(#path4786_1_);}
	.st78{fill-opacity:0.1347;}
	.st79{fill:#209EAF;}
	.st80{fill:#FBEC9A;}
	.st81{fill:#FBE158;}
	.st82{fill:#8E6134;}
	.st83{fill:#20A1B2;}
	.st84{fill:#818284;}
	.st85{fill:#47C4B7;}
	.st86{fill:#5B5C5F;}
	.st87{fill:#2DA890;}
	.st88{fill:#EDBC7C;}
	.st89{fill:#FCF1E2;}
	.st90{fill:#C69009;}
	.st91{fill:url(#SVGID_4_);}
	.st92{fill:url(#SVGID_5_);}
	.st93{fill:url(#SVGID_6_);}
	.st94{fill:url(#SVGID_7_);}
	.st95{fill:url(#SVGID_8_);}
	.st96{fill:url(#SVGID_9_);}
	.st97{fill:url(#SVGID_10_);}
	.st98{fill:url(#SVGID_11_);}
	.st99{fill:url(#SVGID_12_);}
	.st100{fill:url(#SVGID_13_);}
	.st101{fill:url(#SVGID_14_);}
	.st102{fill:url(#SVGID_15_);}
	.st103{fill:url(#SVGID_16_);}
	.st104{fill:#8C8C8C;}
	.st105{fill:url(#SVGID_17_);}
	.st106{fill:url(#SVGID_18_);}
	.st107{fill:#EAD48C;}
	.st108{fill:#B29754;}
	.st109{fill:#703732;}
	.st110{fill:url(#path4151_1_);}
	.st111{fill:url(#path4155_1_);}
	.st112{fill:url(#path4151-6_1_);}
	.st113{fill:url(#path4155-6_1_);}
	.st114{fill:url(#path4194_1_);}
	.st115{fill:url(#path4153_1_);}
	.st116{fill:url(#path4153-3_1_);}
	.st117{fill:url(#path4194-5_1_);}
	.st118{fill:#6FDAF1;}
	.st119{fill:#AF7653;}
	.st120{fill:#C18D30;}
	.st121{fill:#FF0000;}
	.st122{fill:url(#SVGID_19_);}
	.st123{fill:url(#SVGID_20_);}
	.st124{fill:url(#SVGID_21_);}
	.st125{fill:#2CDCF4;}
	.st126{fill:#218693;}
	.st127{fill:#173435;}
	.st128{fill:#F99134;}
	.st129{fill:#D19834;}
	.st130{fill:#E2574C;}
	.st131{fill:#EDEDED;}
	.st132{fill:#D65348;}
	.st133{fill:#E1E1E1;}
	.st134{fill:#C04B41;}
</style>
<g id="mayor">
</g>
<g id="press">
</g>
<g id="liaison">
</g>
<g id="citizen">
</g>
<g id="finance-head">
</g>
<g id="technical-head">
</g>
<g id="cleaning-head">
</g>
<g id="secretary-head">
</g>
<g id="technical-dept">
</g>
<g id="technical">
</g>
<g id="water-net">
</g>
<g id="cleaning-dept">
</g>
<g id="green-dept">
</g>
<g id="social-security">
</g>
<g id="finance-dept">
</g>
<g id="cachier">
</g>
<g id="supplies">
	<g>
		<g>
			<path class="st0" d="M41.7,673.2c0-10.9,8.9-19.8,19.8-19.8c10.9,0,19.8,8.9,19.8,19.8c0,10.9-8.9,19.8-19.8,19.8
				C50.6,693,41.7,684.1,41.7,673.2z"/>
		</g>
		<g>
			<path class="st46" d="M61.9,673l13.9,14c3.4-3.6,5.6-8.4,5.6-13.7c0-10.9-8.9-19.8-19.8-19.8s-19.8,8.9-19.8,19.8
				c0,9.7,7,17.8,16.3,19.5l-8-7.8L61.9,673z"/>
			<path class="st87" d="M75.8,686.9l-13.9-14L50,684.8l8,7.8c1.2,0.2,2.3,0.3,3.6,0.3C67.2,693,72.2,690.7,75.8,686.9z"/>
		</g>
		<g>
			<g>
				<path class="st30" d="M73.1,680.8c0,2.2-1.8,4-4,4H50v-7.9h19.1C71.3,676.8,73.1,678.6,73.1,680.8z"/>
			</g>
			<g>
				<path class="st84" d="M71.6,680.8c0,1.4-1.1,2.5-2.5,2.5H50v-5h19.1C70.5,678.2,71.6,679.4,71.6,680.8z"/>
			</g>
			<g>
				<circle class="st34" cx="54" cy="680.8" r="2.5"/>
			</g>
			<g>
				<path class="st88" d="M63.4,675.8c0,0.5-0.4,1-1,1H51c-0.5,0-1-0.4-1-1v-10.3c0-0.5,0.4-1,1-1h11.4c0.5,0,1,0.4,1,1V675.8z"/>
			</g>
			<g>
				<path class="st50" d="M62.4,664.5H51c-0.5,0-1,0.4-1,1v10.3c0,0.3,0.2,0.6,0.4,0.8L63,664.7C62.8,664.6,62.6,664.5,62.4,664.5z"
					/>
			</g>
			<g>
				<rect x="59.6" y="673" class="st50" width="2.9" height="1.9"/>
			</g>
			<g>
				<polygon class="st89" points="58.6,668.2 57.7,667.2 56.7,668.2 55.8,667.2 54.8,668.2 54.8,664.5 58.6,664.5 				"/>
			</g>
			<g>
				<path class="st88" d="M70.2,676.3c0,0.3-0.2,0.5-0.5,0.5h-5.9c-0.3,0-0.5-0.2-0.5-0.5v-5.4c0-0.3,0.2-0.5,0.5-0.5h5.9
					c0.3,0,0.5,0.2,0.5,0.5V676.3z"/>
			</g>
			<g>
				<path class="st50" d="M69.7,670.4h-5.9c-0.3,0-0.5,0.2-0.5,0.5v5.4c0,0.2,0.1,0.3,0.2,0.4l6.4-6.2
					C69.9,670.5,69.8,670.4,69.7,670.4z"/>
			</g>
			<g>
				<rect x="68.3" y="674.8" class="st50" width="1.5" height="1"/>
			</g>
			<g>
				<polygon class="st89" points="67.8,672.4 67.3,671.9 66.8,672.4 66.3,671.9 65.8,672.4 65.8,670.4 67.8,670.4 				"/>
			</g>
			<g>
				<circle class="st48" cx="54" cy="680.8" r="1.8"/>
			</g>
			<g>
				<circle class="st86" cx="54" cy="680.8" r="0.7"/>
			</g>
			<g>
				<circle class="st34" cx="61.6" cy="680.8" r="2.5"/>
			</g>
			<g>
				<circle class="st48" cx="61.6" cy="680.8" r="1.8"/>
			</g>
			<g>
				<circle class="st86" cx="61.6" cy="680.8" r="0.7"/>
			</g>
			<g>
				<circle class="st34" cx="69.1" cy="680.8" r="2.5"/>
			</g>
			<g>
				<circle class="st48" cx="69.1" cy="680.8" r="1.8"/>
			</g>
			<g>
				<circle class="st86" cx="69.1" cy="680.8" r="0.7"/>
			</g>
		</g>
	</g>
</g>
<g id="administration">
</g>
<g id="registry">
</g>
<g id="population">
</g>
<g id="onestopoffice">
</g>
<g id="solidarity">
</g>
<g id="oldster">
</g>
<g id="athletics">
</g>
<g id="civilization">
</g>
</svg>
