<?xml version="1.0" encoding="utf-8"?>
<!-- Generator: Adobe Illustrator 19.2.1, SVG Export Plug-In . SVG Version: 6.00 Build 0)  -->
<svg version="1.1" xmlns="http://www.w3.org/2000/svg" xmlns:xlink="http://www.w3.org/1999/xlink" x="0px" y="0px"
	 viewBox="87.3 742.9 40 40" style="enable-background:new 87.3 742.9 40 40;" xml:space="preserve">
<style type="text/css">
	.st0{fill:#49A0AE;}
	.st1{fill:#343434;}
	.st2{fill:#2F2F2F;}
	.st3{fill:#317263;}
	.st4{fill:#E6AF82;}
	.st5{fill:#363635;}
	.st6{fill:#303030;}
	.st7{fill:#E2E2E2;}
	.st8{fill:#EAEAEA;}
	.st9{fill:#FABE8E;}
	.st10{fill:#F6F6F6;}
	.st11{fill:#FEFEFE;}
	.st12{fill:#C5C3C3;}
	.st13{fill:#D14241;}
	.st14{fill:#E54645;}
	.st15{fill:#D6D4D4;}
	.st16{fill:#E54847;}
	.st17{fill:#333231;}
	.st18{fill:#393736;}
	.st19{fill:#F3D756;}
	.st20{fill:#54C3A8;}
	.st21{fill:#4DB39A;}
	.st22{fill:#FABC3D;}
	.st23{opacity:0.12;}
	.st24{fill:url(#SVGID_1_);}
	.st25{fill:#D4002B;}
	.st26{fill:#1C8ADB;}
	.st27{fill:url(#SVGID_2_);}
	.st28{fill:#25B7D3;}
	.st29{fill:#FFFFFF;}
	.st30{fill:#3E3E3F;}
	.st31{fill:#099686;}
	.st32{fill:#CFD3D4;}
	.st33{fill:#12B2A0;}
	.st34{fill:#F0F1F1;}
	.st35{fill:#84462D;}
	.st36{fill:#9C6144;}
	.st37{fill:#F7B4B4;}
	.st38{fill:#FBC8C8;}
	.st39{fill:#FBD7D7;}
	.st40{fill:#F79392;}
	.st41{fill:#9CE5F4;}
	.st42{fill:#0484AB;}
	.st43{fill:#059BBF;}
	.st44{fill:#21B2D1;}
	.st45{fill:#F37A10;}
	.st46{fill:#32BEA6;}
	.st47{fill:#E2E4E5;}
	.st48{fill:#B6BCBD;}
	.st49{fill:#40C9E7;}
	.st50{fill:#F4D0A1;}
	.st51{fill:#FACB1B;}
	.st52{fill:#A38D6C;}
	.st53{fill:#D6CDBD;}
	.st54{fill:#87745F;}
	.st55{fill:#A59F97;}
	.st56{fill:#DF2C2C;}
	.st57{fill:#FA5655;}
	.st58{fill:#E04F5F;}
	.st59{fill:#B54152;}
	.st60{fill:#FCF6C2;}
	.st61{fill:#F3B607;}
	.st62{fill:#D9E3E4;}
	.st63{fill:#A2D4DE;}
	.st64{fill:#8EC0C8;}
	.st65{fill:#C4E7ED;}
	.st66{fill:#D3DDDD;}
	.st67{fill:#67B8CB;}
	.st68{fill:#94A4A4;}
	.st69{fill:#778383;}
	.st70{fill:url(#SVGID_3_);}
	.st71{fill:#778484;}
	.st72{fill:#788484;}
	.st73{fill:#2EA397;}
	.st74{fill:#238C7F;}
	.st75{fill:#ACC563;}
	.st76{fill:#FFFFFF;filter:url(#Adobe_OpacityMaskFilter);}
	.st77{mask:url(#mask5624_1_);fill:url(#path4786_1_);}
	.st78{fill-opacity:0.1347;}
	.st79{fill:#209EAF;}
	.st80{fill:#FBEC9A;}
	.st81{fill:#FBE158;}
	.st82{fill:#8E6134;}
	.st83{fill:#20A1B2;}
	.st84{fill:#818284;}
	.st85{fill:#47C4B7;}
	.st86{fill:#5B5C5F;}
	.st87{fill:#2DA890;}
	.st88{fill:#EDBC7C;}
	.st89{fill:#FCF1E2;}
	.st90{fill:#C69009;}
	.st91{fill:url(#SVGID_4_);}
	.st92{fill:url(#SVGID_5_);}
	.st93{fill:url(#SVGID_6_);}
	.st94{fill:url(#SVGID_7_);}
	.st95{fill:url(#SVGID_8_);}
	.st96{fill:url(#SVGID_9_);}
	.st97{fill:url(#SVGID_10_);}
	.st98{fill:url(#SVGID_11_);}
	.st99{fill:url(#SVGID_12_);}
	.st100{fill:url(#SVGID_13_);}
	.st101{fill:url(#SVGID_14_);}
	.st102{fill:url(#SVGID_15_);}
	.st103{fill:url(#SVGID_16_);}
	.st104{fill:#8C8C8C;}
	.st105{fill:url(#SVGID_17_);}
	.st106{fill:url(#SVGID_18_);}
	.st107{fill:#EAD48C;}
	.st108{fill:#B29754;}
	.st109{fill:#703732;}
	.st110{fill:url(#path4151_1_);}
	.st111{fill:url(#path4155_1_);}
	.st112{fill:url(#path4151-6_1_);}
	.st113{fill:url(#path4155-6_1_);}
	.st114{fill:url(#path4194_1_);}
	.st115{fill:url(#path4153_1_);}
	.st116{fill:url(#path4153-3_1_);}
	.st117{fill:url(#path4194-5_1_);}
	.st118{fill:#6FDAF1;}
	.st119{fill:#AF7653;}
	.st120{fill:#C18D30;}
	.st121{fill:#FF0000;}
	.st122{fill:url(#SVGID_19_);}
	.st123{fill:url(#SVGID_20_);}
	.st124{fill:url(#SVGID_21_);}
	.st125{fill:#2CDCF4;}
	.st126{fill:#218693;}
	.st127{fill:#173435;}
	.st128{fill:#F99134;}
	.st129{fill:#D19834;}
	.st130{fill:#E2574C;}
	.st131{fill:#EDEDED;}
	.st132{fill:#D65348;}
	.st133{fill:#E1E1E1;}
	.st134{fill:#C04B41;}
</style>
<g id="mayor">
</g>
<g id="press">
</g>
<g id="liaison">
</g>
<g id="citizen">
</g>
<g id="finance-head">
</g>
<g id="technical-head">
	<g>
		<g>
			<circle class="st46" cx="107.3" cy="762.9" r="19.8"/>
		</g>
		<g>
			<g>
				<g>
					<path class="st29" d="M95.8,752.8c0-0.8,0.6-1.4,1.4-1.4h10.1l5.8,4.8v16.8c0,0.8-0.6,1.4-1.4,1.4H97.2c-0.8,0-1.4-0.6-1.4-1.4
						V752.8z"/>
				</g>
				<g>
					<path class="st34" d="M107.3,751.4v3.5c0,0.8,0.6,1.4,1.4,1.4h4.4L107.3,751.4z"/>
				</g>
			</g>
			<g>
				<path class="st47" d="M106.2,768.3h3.6c0.2,0,0.4-0.2,0.4-0.4v-1.8c0-0.2-0.2-0.4-0.4-0.4h-3.6c-0.2,0-0.4,0.2-0.4,0.4v1.8
					C105.9,768.2,106,768.3,106.2,768.3z"/>
			</g>
			<g>
				<path class="st48" d="M109.8,769.1h-3.6c-0.6,0-1.1-0.5-1.1-1.1v-1.8c0-0.6,0.5-1.1,1.1-1.1h3.6c0.6,0,1.1,0.5,1.1,1.1v1.8
					C110.9,768.6,110.4,769.1,109.8,769.1z M106.2,765.8c-0.2,0-0.4,0.2-0.4,0.4v1.8c0,0.2,0.2,0.4,0.4,0.4h3.6
					c0.2,0,0.4-0.2,0.4-0.4v-1.8c0-0.2-0.2-0.4-0.4-0.4H106.2z"/>
			</g>
			<g>
				<path class="st47" d="M98.3,768.3h3.6c0.2,0,0.4-0.2,0.4-0.4v-1.8c0-0.2-0.2-0.4-0.4-0.4h-3.6c-0.2,0-0.4,0.2-0.4,0.4v1.8
					C97.9,768.2,98.1,768.3,98.3,768.3z"/>
			</g>
			<g>
				<path class="st48" d="M101.9,769.1h-3.6c-0.6,0-1.1-0.5-1.1-1.1v-1.8c0-0.6,0.5-1.1,1.1-1.1h3.6c0.6,0,1.1,0.5,1.1,1.1v1.8
					C103,768.6,102.5,769.1,101.9,769.1z M98.3,765.8c-0.2,0-0.4,0.2-0.4,0.4v1.8c0,0.2,0.2,0.4,0.4,0.4h3.6c0.2,0,0.4-0.2,0.4-0.4
					v-1.8c0-0.2-0.2-0.4-0.4-0.4H98.3z"/>
			</g>
			<g>
				<path class="st41" d="M102.3,761.1h3.6c0.2,0,0.4-0.2,0.4-0.4V759c0-0.2-0.2-0.4-0.4-0.4h-3.6c-0.2,0-0.4,0.2-0.4,0.4v1.8
					C101.9,761,102.1,761.1,102.3,761.1z"/>
			</g>
			<g>
				<g>
					<polygon class="st32" points="105.6,761.9 104.8,761.9 106.5,765.1 107.3,765.1 					"/>
				</g>
			</g>
			<g>
				<g>
					<polygon class="st32" points="102.5,761.9 100.8,765.1 101.6,765.1 103.3,761.9 					"/>
				</g>
			</g>
			<g>
				<path class="st49" d="M105.9,761.9h-3.6c-0.6,0-1.1-0.5-1.1-1.1V759c0-0.6,0.5-1.1,1.1-1.1h3.6c0.6,0,1.1,0.5,1.1,1.1v1.8
					C107,761.4,106.5,761.9,105.9,761.9z M102.3,758.6c-0.2,0-0.4,0.2-0.4,0.4v1.8c0,0.2,0.2,0.4,0.4,0.4h3.6c0.2,0,0.4-0.2,0.4-0.4
					V759c0-0.2-0.2-0.4-0.4-0.4H102.3z"/>
			</g>
			<g>
				<g>
					<path class="st50" d="M117.8,763.8l-7.6,8.6l-2.1,0.4c-0.1-0.3-0.2-0.6-0.5-0.8c-0.2-0.2-0.5-0.3-0.8-0.4l0.2-2.2l7.6-8.6
						L117.8,763.8z"/>
				</g>
			</g>
			<g>
				<g>
					<path class="st43" d="M117.8,763.8C117.8,763.8,117.8,763.8,117.8,763.8l-7.5,8.5c0,0,0,0,0,0c0.2-0.4,0.1-1-0.2-1.3
						c-0.4-0.4-1-0.4-1.4,0c0,0,0,0,0,0c0.3-0.4,0.2-1-0.2-1.4c-0.4-0.3-1-0.4-1.4-0.1c0,0,0,0,0,0l7.5-8.5c0,0,0,0,0,0L117.8,763.8
						z"/>
				</g>
			</g>
			<g>
				<g>
					
						<rect x="116.1" y="760" transform="matrix(0.6626 -0.749 0.749 0.6626 -531.5385 344.3528)" class="st51" width="0.7" height="4.3"/>
				</g>
			</g>
			<g>
				<g>
					<path class="st40" d="M118.1,760.3L118.1,760.3c-0.9-0.8-2.3-0.7-3.1,0.2l0,0l3.2,2.9l0,0C119.1,762.4,119,761,118.1,760.3z"/>
				</g>
			</g>
			<g>
				<g>
					<path class="st42" d="M117.8,763.8l-7.5,8.4c0,0,0,0,0,0c0.2-0.4,0.2-1-0.2-1.3c-0.4-0.4-1-0.4-1.4,0c0,0,0,0,0,0l7.5-8.5
						c0,0,0,0,0,0L117.8,763.8C117.8,763.8,117.8,763.8,117.8,763.8z"/>
				</g>
			</g>
			<g>
				<g>
					<path class="st30" d="M108.1,772.9l-1.4,0.3l0.1-1.4c0.3,0,0.6,0.1,0.8,0.4C107.8,772.3,108,772.6,108.1,772.9z"/>
				</g>
			</g>
		</g>
	</g>
</g>
<g id="cleaning-head">
</g>
<g id="secretary-head">
</g>
<g id="technical-dept">
</g>
<g id="technical">
</g>
<g id="water-net">
</g>
<g id="cleaning-dept">
</g>
<g id="green-dept">
</g>
<g id="social-security">
</g>
<g id="finance-dept">
</g>
<g id="cachier">
</g>
<g id="supplies">
</g>
<g id="administration">
</g>
<g id="registry">
</g>
<g id="population">
</g>
<g id="onestopoffice">
</g>
<g id="solidarity">
</g>
<g id="oldster">
</g>
<g id="athletics">
</g>
<g id="civilization">
</g>
</svg>
