<?xml version="1.0" encoding="utf-8"?>
<!-- Generator: Adobe Illustrator 19.2.1, SVG Export Plug-In . SVG Version: 6.00 Build 0)  -->
<svg version="1.1" xmlns="http://www.w3.org/2000/svg" xmlns:xlink="http://www.w3.org/1999/xlink" x="0px" y="0px"
	 viewBox="-4.2 652.8 40 40" style="enable-background:new -4.2 652.8 40 40;" xml:space="preserve">
<style type="text/css">
	.st0{fill:#49A0AE;}
	.st1{fill:#343434;}
	.st2{fill:#2F2F2F;}
	.st3{fill:#317263;}
	.st4{fill:#E6AF82;}
	.st5{fill:#363635;}
	.st6{fill:#303030;}
	.st7{fill:#E2E2E2;}
	.st8{fill:#EAEAEA;}
	.st9{fill:#FABE8E;}
	.st10{fill:#F6F6F6;}
	.st11{fill:#FEFEFE;}
	.st12{fill:#C5C3C3;}
	.st13{fill:#D14241;}
	.st14{fill:#E54645;}
	.st15{fill:#D6D4D4;}
	.st16{fill:#E54847;}
	.st17{fill:#333231;}
	.st18{fill:#393736;}
	.st19{fill:#F3D756;}
	.st20{fill:#54C3A8;}
	.st21{fill:#4DB39A;}
	.st22{fill:#FABC3D;}
	.st23{opacity:0.12;}
	.st24{fill:url(#SVGID_1_);}
	.st25{fill:#D4002B;}
	.st26{fill:#1C8ADB;}
	.st27{fill:url(#SVGID_2_);}
	.st28{fill:#25B7D3;}
	.st29{fill:#FFFFFF;}
	.st30{fill:#3E3E3F;}
	.st31{fill:#099686;}
	.st32{fill:#CFD3D4;}
	.st33{fill:#12B2A0;}
	.st34{fill:#F0F1F1;}
	.st35{fill:#84462D;}
	.st36{fill:#9C6144;}
	.st37{fill:#F7B4B4;}
	.st38{fill:#FBC8C8;}
	.st39{fill:#FBD7D7;}
	.st40{fill:#F79392;}
	.st41{fill:#9CE5F4;}
	.st42{fill:#0484AB;}
	.st43{fill:#059BBF;}
	.st44{fill:#21B2D1;}
	.st45{fill:#F37A10;}
	.st46{fill:#32BEA6;}
	.st47{fill:#E2E4E5;}
	.st48{fill:#B6BCBD;}
	.st49{fill:#40C9E7;}
	.st50{fill:#F4D0A1;}
	.st51{fill:#FACB1B;}
	.st52{fill:#A38D6C;}
	.st53{fill:#D6CDBD;}
	.st54{fill:#87745F;}
	.st55{fill:#A59F97;}
	.st56{fill:#DF2C2C;}
	.st57{fill:#FA5655;}
	.st58{fill:#E04F5F;}
	.st59{fill:#B54152;}
	.st60{fill:#FCF6C2;}
	.st61{fill:#F3B607;}
	.st62{fill:#D9E3E4;}
	.st63{fill:#A2D4DE;}
	.st64{fill:#8EC0C8;}
	.st65{fill:#C4E7ED;}
	.st66{fill:#D3DDDD;}
	.st67{fill:#67B8CB;}
	.st68{fill:#94A4A4;}
	.st69{fill:#778383;}
	.st70{fill:url(#SVGID_3_);}
	.st71{fill:#778484;}
	.st72{fill:#788484;}
	.st73{fill:#2EA397;}
	.st74{fill:#238C7F;}
	.st75{fill:#ACC563;}
	.st76{fill:#FFFFFF;filter:url(#Adobe_OpacityMaskFilter);}
	.st77{mask:url(#mask5624_1_);fill:url(#path4786_1_);}
	.st78{fill-opacity:0.1347;}
	.st79{fill:#209EAF;}
	.st80{fill:#FBEC9A;}
	.st81{fill:#FBE158;}
	.st82{fill:#8E6134;}
	.st83{fill:#20A1B2;}
	.st84{fill:#818284;}
	.st85{fill:#47C4B7;}
	.st86{fill:#5B5C5F;}
	.st87{fill:#2DA890;}
	.st88{fill:#EDBC7C;}
	.st89{fill:#FCF1E2;}
	.st90{fill:#C69009;}
	.st91{fill:url(#SVGID_4_);}
	.st92{fill:url(#SVGID_5_);}
	.st93{fill:url(#SVGID_6_);}
	.st94{fill:url(#SVGID_7_);}
	.st95{fill:url(#SVGID_8_);}
	.st96{fill:url(#SVGID_9_);}
	.st97{fill:url(#SVGID_10_);}
	.st98{fill:url(#SVGID_11_);}
	.st99{fill:url(#SVGID_12_);}
	.st100{fill:url(#SVGID_13_);}
	.st101{fill:url(#SVGID_14_);}
	.st102{fill:url(#SVGID_15_);}
	.st103{fill:url(#SVGID_16_);}
	.st104{fill:#8C8C8C;}
	.st105{fill:url(#SVGID_17_);}
	.st106{fill:url(#SVGID_18_);}
	.st107{fill:#EAD48C;}
	.st108{fill:#B29754;}
	.st109{fill:#703732;}
	.st110{fill:url(#path4151_1_);}
	.st111{fill:url(#path4155_1_);}
	.st112{fill:url(#path4151-6_1_);}
	.st113{fill:url(#path4155-6_1_);}
	.st114{fill:url(#path4194_1_);}
	.st115{fill:url(#path4153_1_);}
	.st116{fill:url(#path4153-3_1_);}
	.st117{fill:url(#path4194-5_1_);}
	.st118{fill:#6FDAF1;}
	.st119{fill:#AF7653;}
	.st120{fill:#C18D30;}
	.st121{fill:#FF0000;}
	.st122{fill:url(#SVGID_19_);}
	.st123{fill:url(#SVGID_20_);}
	.st124{fill:url(#SVGID_21_);}
	.st125{fill:#2CDCF4;}
	.st126{fill:#218693;}
	.st127{fill:#173435;}
	.st128{fill:#F99134;}
	.st129{fill:#D19834;}
	.st130{fill:#E2574C;}
	.st131{fill:#EDEDED;}
	.st132{fill:#D65348;}
	.st133{fill:#E1E1E1;}
	.st134{fill:#C04B41;}
</style>
<g id="mayor">
</g>
<g id="press">
</g>
<g id="liaison">
</g>
<g id="citizen">
</g>
<g id="finance-head">
</g>
<g id="technical-head">
</g>
<g id="cleaning-head">
</g>
<g id="secretary-head">
</g>
<g id="technical-dept">
</g>
<g id="technical">
</g>
<g id="water-net">
</g>
<g id="cleaning-dept">
</g>
<g id="green-dept">
</g>
<g id="social-security">
</g>
<g id="finance-dept">
</g>
<g id="cachier">
</g>
<g id="supplies">
</g>
<g id="administration">
	<g>
		<g>
			<circle class="st58" cx="15.8" cy="672.8" r="19.8"/>
		</g>
		<g>
			<g>
				<path class="st29" d="M4.3,662.7c0-0.8,0.6-1.4,1.4-1.4h10.1l5.8,4.8V683c0,0.8-0.6,1.4-1.4,1.4H5.7c-0.8,0-1.4-0.6-1.4-1.4
					V662.7z"/>
			</g>
			<g>
				<path class="st34" d="M15.8,661.3v3.5c0,0.8,0.6,1.4,1.4,1.4h4.4L15.8,661.3z"/>
			</g>
			<g>
				<polygon class="st50" points="23.7,667.9 25.5,664.2 27.3,667.9 27.3,681.8 23.7,681.8 				"/>
			</g>
			<g>
				<polygon class="st88" points="27.3,669.9 27.3,667.9 25.5,664.2 25.5,669.9 				"/>
			</g>
			<g>
				<path class="st40" d="M27.3,683.3c0,0.6-0.5,1.1-1.1,1.1h-1.4c-0.6,0-1.1-0.5-1.1-1.1v-0.7h3.6V683.3z"/>
			</g>
			<g>
				<path class="st47" d="M18.3,669.2c0,0.2-0.2,0.4-0.4,0.4h-5.4c-0.2,0-0.4-0.2-0.4-0.4l0,0c0-0.2,0.2-0.4,0.4-0.4H18
					C18.2,668.9,18.3,669,18.3,669.2L18.3,669.2z"/>
			</g>
			<g>
				<path class="st47" d="M16.2,671c0,0.2-0.2,0.4-0.4,0.4h-3.2c-0.2,0-0.4-0.2-0.4-0.4l0,0c0-0.2,0.2-0.4,0.4-0.4h3.2
					C16,670.7,16.2,670.8,16.2,671L16.2,671z"/>
			</g>
			<g>
				<path class="st47" d="M18.3,673.9c0,0.2-0.2,0.4-0.4,0.4h-5.4c-0.2,0-0.4-0.2-0.4-0.4l0,0c0-0.2,0.2-0.4,0.4-0.4H18
					C18.2,673.5,18.3,673.7,18.3,673.9L18.3,673.9z"/>
			</g>
			<g>
				<path class="st47" d="M16.2,675.7c0,0.2-0.2,0.4-0.4,0.4h-3.2c-0.2,0-0.4-0.2-0.4-0.4l0,0c0-0.2,0.2-0.4,0.4-0.4h3.2
					C16,675.3,16.2,675.5,16.2,675.7L16.2,675.7z"/>
			</g>
			<g>
				<path class="st47" d="M18.3,678.6c0,0.2-0.2,0.4-0.4,0.4h-5.4c-0.2,0-0.4-0.2-0.4-0.4l0,0c0-0.2,0.2-0.4,0.4-0.4H18
					C18.2,678.2,18.3,678.4,18.3,678.6L18.3,678.6z"/>
			</g>
			<g>
				<path class="st47" d="M16.2,680.4c0,0.2-0.2,0.4-0.4,0.4h-3.2c-0.2,0-0.4-0.2-0.4-0.4l0,0c0-0.2,0.2-0.4,0.4-0.4h3.2
					C16,680,16.2,680.2,16.2,680.4L16.2,680.4z"/>
			</g>
			<g>
				<g>
					<path class="st33" d="M8.6,671.7l-1.4-1.4c-0.1-0.1-0.1-0.4,0-0.5c0.1-0.1,0.4-0.1,0.5,0l0.8,0.8l1.5-1.9
						c0.1-0.2,0.4-0.2,0.5,0c0.2,0.1,0.2,0.4,0,0.5L8.6,671.7z"/>
				</g>
			</g>
			<g>
				<g>
					<path class="st33" d="M8.6,676.4l-1.4-1.4c-0.1-0.1-0.1-0.4,0-0.5c0.1-0.1,0.4-0.1,0.5,0l0.8,0.8l1.5-1.9
						c0.1-0.2,0.4-0.2,0.5,0c0.2,0.1,0.2,0.4,0,0.5L8.6,676.4z"/>
				</g>
			</g>
			<g>
				<g>
					<path class="st33" d="M8.6,681.1l-1.4-1.4c-0.1-0.1-0.1-0.4,0-0.5c0.1-0.1,0.4-0.1,0.5,0l0.8,0.8l1.5-1.9
						c0.1-0.2,0.4-0.2,0.5,0c0.2,0.1,0.2,0.4,0,0.5L8.6,681.1z"/>
				</g>
			</g>
			<g>
				<rect x="23.7" y="681.5" class="st51" width="3.6" height="1.1"/>
			</g>
			<g>
				<rect x="23.7" y="681.8" class="st81" width="1.8" height="0.7"/>
			</g>
			<g>
				<path class="st30" d="M25.5,664.2l-0.7,1.4c0.2,0.2,0.4,0.4,0.7,0.4c0.3,0,0.5-0.2,0.7-0.4L25.5,664.2z"/>
			</g>
			<g>
				<path class="st42" d="M26.4,668.5c-0.4,0-0.8-0.3-0.9-0.7c0,0-0.1,0-0.1,0c-0.1,0.4-0.5,0.7-0.9,0.7c-0.4,0-0.7-0.2-0.8-0.6
					c0,0-0.1,0-0.1,0v13.9h3.6v-13.9c0,0-0.1,0-0.1,0C27.1,668.3,26.8,668.5,26.4,668.5z"/>
			</g>
			<g>
				<path class="st44" d="M23.7,681.8v-13.9c0,0,0.1-0.1,0.1,0c0.1,0.3,0.5,0.6,0.8,0.6c0.4,0,0.8-0.3,0.9-0.7c0,0,0,0,0,0v14H23.7z
					"/>
			</g>
			<g>
				<path class="st37" d="M23.7,682.5v0.7c0,0.6,0.5,1.1,1.1,1.1h0.7v-1.8H23.7z"/>
			</g>
		</g>
	</g>
</g>
<g id="registry">
</g>
<g id="population">
</g>
<g id="onestopoffice">
</g>
<g id="solidarity">
</g>
<g id="oldster">
</g>
<g id="athletics">
</g>
<g id="civilization">
</g>
</svg>
