<?xml version="1.0" encoding="utf-8"?>
<!-- Generator: Adobe Illustrator 19.2.1, SVG Export Plug-In . SVG Version: 6.00 Build 0)  -->
<svg version="1.1" xmlns="http://www.w3.org/2000/svg" xmlns:xlink="http://www.w3.org/1999/xlink" x="0px" y="0px"
	 viewBox="87.3 653.2 40 40" style="enable-background:new 87.3 653.2 40 40;" xml:space="preserve">
<style type="text/css">
	.st0{fill:#49A0AE;}
	.st1{fill:#343434;}
	.st2{fill:#2F2F2F;}
	.st3{fill:#317263;}
	.st4{fill:#E6AF82;}
	.st5{fill:#363635;}
	.st6{fill:#303030;}
	.st7{fill:#E2E2E2;}
	.st8{fill:#EAEAEA;}
	.st9{fill:#FABE8E;}
	.st10{fill:#F6F6F6;}
	.st11{fill:#FEFEFE;}
	.st12{fill:#C5C3C3;}
	.st13{fill:#D14241;}
	.st14{fill:#E54645;}
	.st15{fill:#D6D4D4;}
	.st16{fill:#E54847;}
	.st17{fill:#333231;}
	.st18{fill:#393736;}
	.st19{fill:#F3D756;}
	.st20{fill:#54C3A8;}
	.st21{fill:#4DB39A;}
	.st22{fill:#FABC3D;}
	.st23{opacity:0.12;}
	.st24{fill:url(#SVGID_1_);}
	.st25{fill:#D4002B;}
	.st26{fill:#1C8ADB;}
	.st27{fill:url(#SVGID_2_);}
	.st28{fill:#25B7D3;}
	.st29{fill:#FFFFFF;}
	.st30{fill:#3E3E3F;}
	.st31{fill:#099686;}
	.st32{fill:#CFD3D4;}
	.st33{fill:#12B2A0;}
	.st34{fill:#F0F1F1;}
	.st35{fill:#84462D;}
	.st36{fill:#9C6144;}
	.st37{fill:#F7B4B4;}
	.st38{fill:#FBC8C8;}
	.st39{fill:#FBD7D7;}
	.st40{fill:#F79392;}
	.st41{fill:#9CE5F4;}
	.st42{fill:#0484AB;}
	.st43{fill:#059BBF;}
	.st44{fill:#21B2D1;}
	.st45{fill:#F37A10;}
	.st46{fill:#32BEA6;}
	.st47{fill:#E2E4E5;}
	.st48{fill:#B6BCBD;}
	.st49{fill:#40C9E7;}
	.st50{fill:#F4D0A1;}
	.st51{fill:#FACB1B;}
	.st52{fill:#A38D6C;}
	.st53{fill:#D6CDBD;}
	.st54{fill:#87745F;}
	.st55{fill:#A59F97;}
	.st56{fill:#DF2C2C;}
	.st57{fill:#FA5655;}
	.st58{fill:#E04F5F;}
	.st59{fill:#B54152;}
	.st60{fill:#FCF6C2;}
	.st61{fill:#F3B607;}
	.st62{fill:#D9E3E4;}
	.st63{fill:#A2D4DE;}
	.st64{fill:#8EC0C8;}
	.st65{fill:#C4E7ED;}
	.st66{fill:#D3DDDD;}
	.st67{fill:#67B8CB;}
	.st68{fill:#94A4A4;}
	.st69{fill:#778383;}
	.st70{fill:url(#SVGID_3_);}
	.st71{fill:#778484;}
	.st72{fill:#788484;}
	.st73{fill:#2EA397;}
	.st74{fill:#238C7F;}
	.st75{fill:#ACC563;}
	.st76{fill:#FFFFFF;filter:url(#Adobe_OpacityMaskFilter);}
	.st77{mask:url(#mask5624_1_);fill:url(#path4786_1_);}
	.st78{fill-opacity:0.1347;}
	.st79{fill:#209EAF;}
	.st80{fill:#FBEC9A;}
	.st81{fill:#FBE158;}
	.st82{fill:#8E6134;}
	.st83{fill:#20A1B2;}
	.st84{fill:#818284;}
	.st85{fill:#47C4B7;}
	.st86{fill:#5B5C5F;}
	.st87{fill:#2DA890;}
	.st88{fill:#EDBC7C;}
	.st89{fill:#FCF1E2;}
	.st90{fill:#C69009;}
	.st91{fill:url(#SVGID_4_);}
	.st92{fill:url(#SVGID_5_);}
	.st93{fill:url(#SVGID_6_);}
	.st94{fill:url(#SVGID_7_);}
	.st95{fill:url(#SVGID_8_);}
	.st96{fill:url(#SVGID_9_);}
	.st97{fill:url(#SVGID_10_);}
	.st98{fill:url(#SVGID_11_);}
	.st99{fill:url(#SVGID_12_);}
	.st100{fill:url(#SVGID_13_);}
	.st101{fill:url(#SVGID_14_);}
	.st102{fill:url(#SVGID_15_);}
	.st103{fill:url(#SVGID_16_);}
	.st104{fill:#8C8C8C;}
	.st105{fill:url(#SVGID_17_);}
	.st106{fill:url(#SVGID_18_);}
	.st107{fill:#EAD48C;}
	.st108{fill:#B29754;}
	.st109{fill:#703732;}
	.st110{fill:url(#path4151_1_);}
	.st111{fill:url(#path4155_1_);}
	.st112{fill:url(#path4151-6_1_);}
	.st113{fill:url(#path4155-6_1_);}
	.st114{fill:url(#path4194_1_);}
	.st115{fill:url(#path4153_1_);}
	.st116{fill:url(#path4153-3_1_);}
	.st117{fill:url(#path4194-5_1_);}
	.st118{fill:#6FDAF1;}
	.st119{fill:#AF7653;}
	.st120{fill:#C18D30;}
	.st121{fill:#FF0000;}
	.st122{fill:url(#SVGID_19_);}
	.st123{fill:url(#SVGID_20_);}
	.st124{fill:url(#SVGID_21_);}
	.st125{fill:#2CDCF4;}
	.st126{fill:#218693;}
	.st127{fill:#173435;}
	.st128{fill:#F99134;}
	.st129{fill:#D19834;}
	.st130{fill:#E2574C;}
	.st131{fill:#EDEDED;}
	.st132{fill:#D65348;}
	.st133{fill:#E1E1E1;}
	.st134{fill:#C04B41;}
</style>
<g id="mayor">
</g>
<g id="press">
</g>
<g id="liaison">
</g>
<g id="citizen">
</g>
<g id="finance-head">
</g>
<g id="technical-head">
</g>
<g id="cleaning-head">
</g>
<g id="secretary-head">
</g>
<g id="technical-dept">
</g>
<g id="technical">
</g>
<g id="water-net">
</g>
<g id="cleaning-dept">
</g>
<g id="green-dept">
</g>
<g id="social-security">
</g>
<g id="finance-dept">
</g>
<g id="cachier">
	<g>
		<path class="st28" d="M114.6,666l11.9,11.9c0.4-1.5,0.6-3.1,0.6-4.7c0-10.9-8.9-19.8-19.8-19.8s-19.8,8.9-19.8,19.8
			c0,9.7,6.9,17.7,16.1,19.5l-7.8-7.8L114.6,666z"/>
		<path class="st83" d="M126.5,677.9L114.6,666l-18.8,18.8l7.8,7.8c1.2,0.2,2.4,0.4,3.7,0.4C116.6,693,124.4,686.6,126.5,677.9z"/>
		<g>
			<path class="st32" d="M116,667.4c0-0.8-0.6-1.4-1.4-1.4h-14.4c-0.8,0-1.4,0.6-1.4,1.4v4.3H116V667.4z"/>
		</g>
		<g>
			<path class="st34" d="M100.1,666c-0.8,0-1.4,0.6-1.4,1.4v4.3h10.7l0.1-5.8"/>
		</g>
		<g>
			<rect x="95.8" y="680.4" class="st84" width="23.1" height="4.3"/>
		</g>
		<g>
			<polygon class="st34" points="98.7,671.7 116,671.7 118.8,679 95.8,679 			"/>
		</g>
		<g>
			<polygon class="st29" points="98.7,671.7 95.8,679 106.2,679 109.4,671.7 			"/>
		</g>
		<g>
			<polygon class="st29" points="100.1,668.9 100.1,663.1 101.5,664.5 103,663.1 104.4,664.5 105.9,663.1 105.9,668.9 			"/>
		</g>
		<g>
			<rect x="95.8" y="679" class="st32" width="23.1" height="1.4"/>
		</g>
		<g>
			<rect x="107.3" y="667.4" class="st33" width="7.2" height="2.9"/>
		</g>
		<g>
			<polygon class="st85" points="114.5,667.4 107.3,667.4 107.3,670.3 110.3,670.3 			"/>
		</g>
		<g>
			<rect x="112.4" y="664.9" class="st84" width="1.4" height="1.1"/>
		</g>
		<g>
			<path class="st30" d="M117.4,662c0-0.2-0.2-0.4-0.4-0.4h-7.9c-0.2,0-0.4,0.2-0.4,0.4v2.5c0,0.2,0.2,0.4,0.4,0.4h7.9
				c0.2,0,0.4-0.2,0.4-0.4V662z"/>
		</g>
		<g>
			<rect x="99.7" y="668.9" class="st32" width="6.5" height="0.7"/>
		</g>
		<g>
			<path class="st32" d="M104.4,666.2c0,0.1-0.1,0.2-0.2,0.2h-2.5c-0.1,0-0.2-0.1-0.2-0.2l0,0c0-0.1,0.1-0.2,0.2-0.2h2.5
				C104.3,666,104.4,666.1,104.4,666.2L104.4,666.2z"/>
		</g>
		<g>
			<path class="st32" d="M104.4,667.6c0,0.1-0.1,0.2-0.2,0.2h-2.5c-0.1,0-0.2-0.1-0.2-0.2l0,0c0-0.1,0.1-0.2,0.2-0.2h2.5
				C104.3,667.4,104.4,667.5,104.4,667.6L104.4,667.6z"/>
		</g>
		<g>
			<circle class="st32" cx="107.3" cy="682.6" r="0.7"/>
		</g>
		<g>
			<circle class="st32" cx="100.1" cy="673.9" r="0.7"/>
		</g>
		<g>
			<circle class="st32" cx="103" cy="673.9" r="0.7"/>
		</g>
		<g>
			<circle class="st32" cx="105.9" cy="673.9" r="0.7"/>
		</g>
		<g>
			<circle class="st32" cx="99.4" cy="676.8" r="0.7"/>
		</g>
		<g>
			<circle class="st32" cx="102.3" cy="676.8" r="0.7"/>
		</g>
		<g>
			<circle class="st48" cx="105.2" cy="676.8" r="0.7"/>
		</g>
		<g>
			<circle class="st48" cx="109.5" cy="676.8" r="0.7"/>
		</g>
		<g>
			<circle class="st48" cx="112.4" cy="676.8" r="0.7"/>
		</g>
		<g>
			<circle class="st33" cx="115.2" cy="676.8" r="0.7"/>
		</g>
		<g>
			<circle class="st48" cx="108.8" cy="673.9" r="0.7"/>
		</g>
		<g>
			<circle class="st48" cx="111.6" cy="673.9" r="0.7"/>
		</g>
		<g>
			<circle class="st57" cx="114.5" cy="673.9" r="0.7"/>
		</g>
		<g>
			<path class="st86" d="M114.3,661.7h-5.1c-0.2,0-0.4,0.2-0.4,0.4v2.5c0,0.2,0.2,0.4,0.4,0.4h1.9L114.3,661.7z"/>
		</g>
	</g>
</g>
<g id="supplies">
</g>
<g id="administration">
</g>
<g id="registry">
</g>
<g id="population">
</g>
<g id="onestopoffice">
</g>
<g id="solidarity">
</g>
<g id="oldster">
</g>
<g id="athletics">
</g>
<g id="civilization">
</g>
</svg>
