<?xml version="1.0" encoding="utf-8"?>
<!-- Generator: Adobe Illustrator 17.0.0, SVG Export Plug-In . SVG Version: 6.00 Build 0)  -->
<!DOCTYPE svg PUBLIC "-//W3C//DTD SVG 1.1//EN" "http://www.w3.org/Graphics/SVG/1.1/DTD/svg11.dtd">
<svg version="1.1" id="Layer_1" xmlns="http://www.w3.org/2000/svg" xmlns:xlink="http://www.w3.org/1999/xlink" x="0px" y="0px"
	 width="512px" height="512px" viewBox="0 0 512 512" enable-background="new 0 0 512 512" xml:space="preserve">
<g>
	<g>
		<g>
			<g>
				<g>
					<path fill="#48A1AF" d="M3.421,256.001c0-139.505,113.085-252.582,252.576-252.582c139.497,0,252.582,113.077,252.582,252.582
						c0,139.491-113.085,252.58-252.582,252.58C116.506,508.581,3.421,395.492,3.421,256.001z"/>
				</g>
			</g>
		</g>
	</g>
	<path fill="#17474C" d="M348.015,412.661c0,23.606-17.422,42.746-38.92,42.746H202.897c-21.488,0-38.91-19.14-38.91-42.746
		c0,0,8.913-92.599,16.209-115.762c7.298-23.139,17.422-42.736,38.92-42.736h13.14h49.885h13.989
		c21.49,0,33.237,14.243,38.912,42.736C340.717,325.401,348.015,412.661,348.015,412.661z"/>
	<path fill="#0E2C2D" d="M256.858,455.528l-53.961-0.121c-21.488,0-38.91-19.14-38.91-42.746c0,0,8.913-92.599,16.209-115.762
		c7.298-23.139,17.422-42.736,38.92-42.736h13.14l23.924-0.226L256.858,455.528z"/>
	<g>
		<g>
			<g>
				<path fill="#E9C29C" d="M348.015,412.661c0,23.606-17.422,42.746-38.92,42.746l-5.717-42.724L348.015,412.661z"/>
				<path fill="#29636D" d="M348.015,412.661l-44.595,0.01l-21.28-158.508h13.989c21.49,0,33.237,14.243,38.912,42.736
					C340.717,325.401,348.015,412.661,348.015,412.661z"/>
				<path fill="#E9C29C" d="M202.897,455.407c-21.488,0-38.91-19.14-38.91-42.746l46.95,0.131L202.897,455.407z"/>
				<path fill="#29636D" d="M163.987,412.661c0,0,8.913-92.599,16.209-115.762c7.298-23.139,17.422-42.736,38.92-42.736l13.14-0.051
					l-21.319,158.68L163.987,412.661z"/>
				<g>
					<g>
						<polygon fill="#FFFFFF" points="231.382,410.859 249.112,270.625 253.964,264.406 256.584,264.269 262.889,270.625 
							280.619,410.859 255.057,432.539 						"/>
					</g>
					<g>
						<g>
							<polygon fill="#8DD3D5" points="244.229,309.234 265.561,291.771 264.623,284.371 245.384,300.119 							"/>
						</g>
						<g>
							<polygon fill="#8DD3D5" points="240.972,335.012 268.212,312.71 267.27,305.311 242.127,325.896 							"/>
						</g>
						<g>
							<polygon fill="#8DD3D5" points="237.712,360.774 270.859,333.648 269.921,326.242 238.868,351.664 							"/>
						</g>
						<g>
							<polygon fill="#8DD3D5" points="234.455,386.551 273.507,354.579 272.57,347.186 235.607,377.434 							"/>
						</g>
						<g>
							<polygon fill="#8DD3D5" points="231.382,410.859 232.319,411.398 276.147,375.531 275.216,368.125 232.347,403.203 							
								"/>
						</g>
						<g>
							<polygon fill="#8DD3D5" points="245.515,423.831 278.806,396.462 277.864,389.063 240.663,419.448 							"/>
						</g>
					</g>
					<g>
						<path fill="#6FC5BC" d="M267.214,267.204c0,6.433-5.142,11.637-11.486,11.637c-6.34,0-11.486-5.204-11.486-11.637
							c0-6.417,5.146-11.623,11.486-11.623C262.072,255.582,267.214,260.787,267.214,267.204z"/>
					</g>
				</g>
				<g>
					<g>
						<path fill="#E9C29C" d="M330.585,168.597c0,41.197-33.391,74.588-74.585,74.588c-41.198,0-74.584-33.391-74.584-74.588
							c0-41.191,33.386-74.582,74.584-74.582C297.194,94.016,330.585,127.406,330.585,168.597z"/>
					</g>
					<g>
						<path fill="#492A15" d="M330.585,168.597l-50.854-45.764c0,0-10.829,17.935-39.712,31
							c-27.85,12.591-58.602,14.764-58.602,14.764c0-41.191,33.386-74.582,74.584-74.582
							C297.194,94.016,330.585,127.406,330.585,168.597z"/>
					</g>
					<g>
						<ellipse fill="#343433" cx="233.645" cy="179.679" rx="10.218" ry="10.794"/>
					</g>
					<g>
						<path fill="#343433" d="M288.148,179.679c0,5.96-4.579,10.794-10.223,10.794c-5.642,0-10.213-4.834-10.213-10.794
							c0-5.96,4.572-10.798,10.213-10.798C283.569,168.881,288.148,173.719,288.148,179.679z"/>
					</g>
					<g>
						<path fill="#FFFFFF" d="M285.207,175.588c0,2.381-1.828,4.316-4.087,4.316c-2.249,0-4.08-1.935-4.08-4.316
							c0-2.384,1.831-4.319,4.08-4.319C283.378,171.269,285.207,173.204,285.207,175.588z"/>
					</g>
					<g>
						<path fill="#FFFFFF" d="M240.814,175.588c0,2.381-1.828,4.316-4.091,4.316c-2.253,0-4.081-1.935-4.081-4.316
							c0-2.384,1.827-4.319,4.081-4.319C238.987,171.269,240.814,173.204,240.814,175.588z"/>
					</g>
				</g>
				<g>
					<path fill="#492A15" d="M222.457,202.73c0,0,1.484-2.082,0.624-3.959c-2.42-5.28-10.478-1.329-9.932,5.864
						c0,0,0.542,14.936,21.811,15.64c5.543,0.185,13.067-1.016,19.088-7.664c4.159-4.59,3.026-13.041-2.308-15.006
						c-5.747-2.118-13.134-0.584-18.65,7.813c-5.24,7.974-15.575,2.43-15.405-2.894C217.843,197.598,223.55,199.524,222.457,202.73z
						"/>
					<path fill="#492A15" d="M289.544,202.73c0,0-1.485-2.082-0.626-3.959c2.42-5.28,10.48-1.329,9.933,5.864
						c0,0-0.541,14.936-21.812,15.64c-5.541,0.185-13.065-1.016-19.086-7.664c-4.158-4.59-3.027-13.041,2.307-15.006
						c5.748-2.118,13.136-0.584,18.651,7.813c5.24,7.974,15.574,2.43,15.405-2.894C294.157,197.598,288.448,199.524,289.544,202.73z
						"/>
				</g>
			</g>
		</g>
		<g>
			<g>
				<path fill="#E0B500" d="M316.402,141.903c0,0,19.918-86.029-60.384-86.029c-80.303,0-60.374,86.029-60.374,86.029H316.402z"/>
				<path fill="#EDC92C" d="M255.654,141.903l0.364-86.029c-80.303,0-60.374,86.029-60.374,86.029H255.654z"/>
				<path fill="#EDC92C" d="M272.517,137.151c0,0,5.442-83.449-16.497-83.449c-21.938,0-16.493,83.449-16.493,83.449H272.517z"/>
				<path fill="#EFD050" d="M255.654,137.151l0.366-83.449c-21.938,0-16.493,83.449-16.493,83.449H255.654z"/>
				<path fill="#DBB626" d="M335.466,134.77c0,12.026-35.578,17.572-79.466,17.572s-79.465-5.546-79.465-17.572
					c0-12.026,35.577-3.345,79.465-3.345S335.466,122.744,335.466,134.77z"/>
			</g>
		</g>
	</g>
</g>
</svg>
