<?xml version="1.0" encoding="utf-8"?>
<!-- Generator: Adobe Illustrator 19.2.1, SVG Export Plug-In . SVG Version: 6.00 Build 0)  -->
<svg version="1.1" xmlns="http://www.w3.org/2000/svg" xmlns:xlink="http://www.w3.org/1999/xlink" x="0px" y="0px"
	 viewBox="-4.2 787.9 40 40" style="enable-background:new -4.2 787.9 40 40;" xml:space="preserve">
<style type="text/css">
	.st0{fill:#49A0AE;}
	.st1{fill:#343434;}
	.st2{fill:#2F2F2F;}
	.st3{fill:#317263;}
	.st4{fill:#E6AF82;}
	.st5{fill:#363635;}
	.st6{fill:#303030;}
	.st7{fill:#E2E2E2;}
	.st8{fill:#EAEAEA;}
	.st9{fill:#FABE8E;}
	.st10{fill:#F6F6F6;}
	.st11{fill:#FEFEFE;}
	.st12{fill:#C5C3C3;}
	.st13{fill:#D14241;}
	.st14{fill:#E54645;}
	.st15{fill:#D6D4D4;}
	.st16{fill:#E54847;}
	.st17{fill:#333231;}
	.st18{fill:#393736;}
	.st19{fill:#F3D756;}
	.st20{fill:#54C3A8;}
	.st21{fill:#4DB39A;}
	.st22{fill:#FABC3D;}
	.st23{opacity:0.12;}
	.st24{fill:url(#SVGID_1_);}
	.st25{fill:#D4002B;}
	.st26{fill:#1C8ADB;}
	.st27{fill:url(#SVGID_2_);}
	.st28{fill:#25B7D3;}
	.st29{fill:#FFFFFF;}
	.st30{fill:#3E3E3F;}
	.st31{fill:#099686;}
	.st32{fill:#CFD3D4;}
	.st33{fill:#12B2A0;}
	.st34{fill:#F0F1F1;}
	.st35{fill:#84462D;}
	.st36{fill:#9C6144;}
	.st37{fill:#F7B4B4;}
	.st38{fill:#FBC8C8;}
	.st39{fill:#FBD7D7;}
	.st40{fill:#F79392;}
	.st41{fill:#9CE5F4;}
	.st42{fill:#0484AB;}
	.st43{fill:#059BBF;}
	.st44{fill:#21B2D1;}
	.st45{fill:#F37A10;}
	.st46{fill:#32BEA6;}
	.st47{fill:#E2E4E5;}
	.st48{fill:#B6BCBD;}
	.st49{fill:#40C9E7;}
	.st50{fill:#F4D0A1;}
	.st51{fill:#FACB1B;}
	.st52{fill:#A38D6C;}
	.st53{fill:#D6CDBD;}
	.st54{fill:#87745F;}
	.st55{fill:#A59F97;}
	.st56{fill:#DF2C2C;}
	.st57{fill:#FA5655;}
	.st58{fill:#E04F5F;}
	.st59{fill:#B54152;}
	.st60{fill:#FCF6C2;}
	.st61{fill:#F3B607;}
	.st62{fill:#D9E3E4;}
	.st63{fill:#A2D4DE;}
	.st64{fill:#8EC0C8;}
	.st65{fill:#C4E7ED;}
	.st66{fill:#D3DDDD;}
	.st67{fill:#67B8CB;}
	.st68{fill:#94A4A4;}
	.st69{fill:#778383;}
	.st70{fill:url(#SVGID_3_);}
	.st71{fill:#778484;}
	.st72{fill:#788484;}
	.st73{fill:#2EA397;}
	.st74{fill:#238C7F;}
	.st75{fill:#ACC563;}
	.st76{fill:#FFFFFF;filter:url(#Adobe_OpacityMaskFilter);}
	.st77{mask:url(#mask5624_1_);fill:url(#path4786_1_);}
	.st78{fill-opacity:0.1347;}
	.st79{fill:#209EAF;}
	.st80{fill:#FBEC9A;}
	.st81{fill:#FBE158;}
	.st82{fill:#8E6134;}
	.st83{fill:#20A1B2;}
	.st84{fill:#818284;}
	.st85{fill:#47C4B7;}
	.st86{fill:#5B5C5F;}
	.st87{fill:#2DA890;}
	.st88{fill:#EDBC7C;}
	.st89{fill:#FCF1E2;}
	.st90{fill:#C69009;}
	.st91{fill:url(#SVGID_4_);}
	.st92{fill:url(#SVGID_5_);}
	.st93{fill:url(#SVGID_6_);}
	.st94{fill:url(#SVGID_7_);}
	.st95{fill:url(#SVGID_8_);}
	.st96{fill:url(#SVGID_9_);}
	.st97{fill:url(#SVGID_10_);}
	.st98{fill:url(#SVGID_11_);}
	.st99{fill:url(#SVGID_12_);}
	.st100{fill:url(#SVGID_13_);}
	.st101{fill:url(#SVGID_14_);}
	.st102{fill:url(#SVGID_15_);}
	.st103{fill:url(#SVGID_16_);}
	.st104{fill:#8C8C8C;}
	.st105{fill:url(#SVGID_17_);}
	.st106{fill:url(#SVGID_18_);}
	.st107{fill:#EAD48C;}
	.st108{fill:#B29754;}
	.st109{fill:#703732;}
	.st110{fill:url(#path4151_1_);}
	.st111{fill:url(#path4155_1_);}
	.st112{fill:url(#path4151-6_1_);}
	.st113{fill:url(#path4155-6_1_);}
	.st114{fill:url(#path4194_1_);}
	.st115{fill:url(#path4153_1_);}
	.st116{fill:url(#path4153-3_1_);}
	.st117{fill:url(#path4194-5_1_);}
	.st118{fill:#6FDAF1;}
	.st119{fill:#AF7653;}
	.st120{fill:#C18D30;}
	.st121{fill:#FF0000;}
	.st122{fill:url(#SVGID_19_);}
	.st123{fill:url(#SVGID_20_);}
	.st124{fill:url(#SVGID_21_);}
	.st125{fill:#2CDCF4;}
	.st126{fill:#218693;}
	.st127{fill:#173435;}
	.st128{fill:#F99134;}
	.st129{fill:#D19834;}
	.st130{fill:#E2574C;}
	.st131{fill:#EDEDED;}
	.st132{fill:#D65348;}
	.st133{fill:#E1E1E1;}
	.st134{fill:#C04B41;}
</style>
<g id="mayor">
</g>
<g id="press">
</g>
<g id="liaison">
	<g>
		<g>
			<circle class="st28" cx="15.8" cy="807.9" r="19.8"/>
		</g>
		<g>
			<g>
				<circle class="st29" cx="14" cy="798.6" r="2.2"/>
			</g>
			<g>
				<path class="st30" d="M6.6,807.7l7.1-9.7c0.1-0.2,0.3-0.2,0.5-0.1l8.6,7.1l0.9-0.2l-9.1-7.5c-0.5-0.4-1.1-0.3-1.5,0.2l-7.5,10.3
					L6.6,807.7z"/>
			</g>
			<g>
				
					<rect x="6.4" y="807.7" transform="matrix(0.9867 -0.1626 0.1626 0.9867 -131.7932 13.3657)" class="st31" width="18.8" height="8.7"/>
			</g>
			<g>
				<path class="st29" d="M24.3,806.2l1.4,8.5l-18.5,3.1l-1.4-8.5L24.3,806.2 M24.9,804.7c-0.1,0-20,3.3-20.1,3.3
					c-0.4,0.1-0.7,0.4-0.6,0.8l1.6,10c0.1,0.4,0.4,0.6,0.7,0.6c0.1,0,20-3.3,20.1-3.3c0.4-0.1,0.7-0.4,0.6-0.8l-1.6-10
					C25.6,804.9,25.3,804.7,24.9,804.7L24.9,804.7z"/>
			</g>
			<g>
				<circle class="st32" cx="14" cy="798.6" r="0.7"/>
			</g>
			<g>
				<polygon class="st33" points="7.2,817.8 7.3,817.8 17.8,807.3 5.8,809.3 				"/>
			</g>
			<g>
				<path class="st34" d="M7.6,813.5L7.6,813.5c-0.2-1.1,0.6-2.2,1.8-2.4c1.2-0.2,2.3,0.6,2.5,1.7l0,0c0.1,1.2-0.6,2.3-1.8,2.4
					C8.8,815.4,7.7,814.7,7.6,813.5z M10.9,813L10.9,813c-0.1-0.7-0.7-1.2-1.4-1.1c-0.7,0.1-1.1,0.8-1,1.4l0,0
					c0.1,0.7,0.7,1.2,1.4,1.1C10.6,814.3,11,813.7,10.9,813z"/>
			</g>
			<g>
				<path class="st29" d="M11.8,812.8L11.8,812.8c-0.2-1.1-1.2-1.9-2.5-1.7c-1.2,0.2-2,1.3-1.8,2.4l0,0c0.2,1.1,1.1,1.8,2.3,1.7l2-2
					C11.8,813.1,11.8,813,11.8,812.8z M9.9,814.4c-0.7,0.1-1.3-0.4-1.4-1.1l0,0c-0.1-0.7,0.3-1.3,1-1.4c0.7-0.1,1.3,0.4,1.4,1.1l0,0
					C11,813.7,10.6,814.3,9.9,814.4z"/>
			</g>
			<g>
				<path class="st34" d="M12.3,811.1c0-0.2,0.1-0.5,0.4-0.5l1.2-0.2c1-0.2,1.6,0.3,1.8,1.1l0,0c0.2,0.9-0.5,1.5-1.4,1.7l-0.7,0.1
					l0.1,0.8c0,0.2-0.1,0.5-0.4,0.5s-0.5-0.1-0.5-0.4L12.3,811.1z M14.2,812.5c0.4-0.1,0.7-0.4,0.6-0.7l0,0
					c-0.1-0.4-0.4-0.6-0.8-0.5l-0.7,0.1l0.2,1.2L14.2,812.5z"/>
			</g>
			<g>
				<path class="st29" d="M13.9,810.4l-1.2,0.2c-0.2,0-0.4,0.3-0.4,0.5l0.2,1.4l0.8-0.8l-0.1-0.4l0.6-0.1l0.8-0.8
					C14.4,810.4,14.2,810.4,13.9,810.4z"/>
			</g>
			<g>
				<path class="st34" d="M16.7,813.6l-0.5-3.1c0-0.2,0.1-0.5,0.4-0.5l2.2-0.4c0.2,0,0.4,0.1,0.5,0.3c0,0.2-0.1,0.4-0.3,0.5
					l-1.8,0.3l0.1,0.8l1.5-0.3c0.2,0,0.4,0.1,0.5,0.3s-0.1,0.4-0.3,0.5l-1.5,0.3l0.1,0.8l1.8-0.3c0.2,0,0.4,0.1,0.5,0.3
					c0,0.2-0.1,0.4-0.3,0.5l-2.2,0.4C16.9,814,16.7,813.9,16.7,813.6z"/>
			</g>
			<g>
				<path class="st34" d="M20,809.9c0-0.2,0.1-0.5,0.4-0.5l0.1,0c0.2,0,0.4,0,0.5,0.2l2.1,1.9l-0.3-2.1c0-0.2,0.1-0.5,0.4-0.5
					c0.2,0,0.5,0.1,0.5,0.4l0.5,3.2c0,0.2-0.1,0.5-0.4,0.5l0,0c-0.2,0-0.4,0-0.5-0.2l-2.1-2l0.4,2.1c0,0.2-0.1,0.5-0.4,0.5
					c-0.2,0-0.5-0.1-0.5-0.4L20,809.9z"/>
			</g>
		</g>
	</g>
</g>
<g id="citizen">
</g>
<g id="finance-head">
</g>
<g id="technical-head">
</g>
<g id="cleaning-head">
</g>
<g id="secretary-head">
</g>
<g id="technical-dept">
</g>
<g id="technical">
</g>
<g id="water-net">
</g>
<g id="cleaning-dept">
</g>
<g id="green-dept">
</g>
<g id="social-security">
</g>
<g id="finance-dept">
</g>
<g id="cachier">
</g>
<g id="supplies">
</g>
<g id="administration">
</g>
<g id="registry">
</g>
<g id="population">
</g>
<g id="onestopoffice">
</g>
<g id="solidarity">
</g>
<g id="oldster">
</g>
<g id="athletics">
</g>
<g id="civilization">
</g>
</svg>
