<?xml version="1.0" encoding="utf-8"?>
<!-- Generator: Adobe Illustrator 19.2.1, SVG Export Plug-In . SVG Version: 6.00 Build 0)  -->
<svg version="1.1" xmlns="http://www.w3.org/2000/svg" xmlns:xlink="http://www.w3.org/1999/xlink" x="0px" y="0px"
	 viewBox="87.3 787.9 40 40" style="enable-background:new 87.3 787.9 40 40;" xml:space="preserve">
<style type="text/css">
	.st0{fill:#49A0AE;}
	.st1{fill:#343434;}
	.st2{fill:#2F2F2F;}
	.st3{fill:#317263;}
	.st4{fill:#E6AF82;}
	.st5{fill:#363635;}
	.st6{fill:#303030;}
	.st7{fill:#E2E2E2;}
	.st8{fill:#EAEAEA;}
	.st9{fill:#FABE8E;}
	.st10{fill:#F6F6F6;}
	.st11{fill:#FEFEFE;}
	.st12{fill:#C5C3C3;}
	.st13{fill:#D14241;}
	.st14{fill:#E54645;}
	.st15{fill:#D6D4D4;}
	.st16{fill:#E54847;}
	.st17{fill:#333231;}
	.st18{fill:#393736;}
	.st19{fill:#F3D756;}
	.st20{fill:#54C3A8;}
	.st21{fill:#4DB39A;}
	.st22{fill:#FABC3D;}
	.st23{opacity:0.12;}
	.st24{fill:url(#SVGID_1_);}
	.st25{fill:#D4002B;}
	.st26{fill:#1C8ADB;}
	.st27{fill:url(#SVGID_2_);}
	.st28{fill:#25B7D3;}
	.st29{fill:#FFFFFF;}
	.st30{fill:#3E3E3F;}
	.st31{fill:#099686;}
	.st32{fill:#CFD3D4;}
	.st33{fill:#12B2A0;}
	.st34{fill:#F0F1F1;}
	.st35{fill:#84462D;}
	.st36{fill:#9C6144;}
	.st37{fill:#F7B4B4;}
	.st38{fill:#FBC8C8;}
	.st39{fill:#FBD7D7;}
	.st40{fill:#F79392;}
	.st41{fill:#9CE5F4;}
	.st42{fill:#0484AB;}
	.st43{fill:#059BBF;}
	.st44{fill:#21B2D1;}
	.st45{fill:#F37A10;}
	.st46{fill:#32BEA6;}
	.st47{fill:#E2E4E5;}
	.st48{fill:#B6BCBD;}
	.st49{fill:#40C9E7;}
	.st50{fill:#F4D0A1;}
	.st51{fill:#FACB1B;}
	.st52{fill:#A38D6C;}
	.st53{fill:#D6CDBD;}
	.st54{fill:#87745F;}
	.st55{fill:#A59F97;}
	.st56{fill:#DF2C2C;}
	.st57{fill:#FA5655;}
	.st58{fill:#E04F5F;}
	.st59{fill:#B54152;}
	.st60{fill:#FCF6C2;}
	.st61{fill:#F3B607;}
	.st62{fill:#D9E3E4;}
	.st63{fill:#A2D4DE;}
	.st64{fill:#8EC0C8;}
	.st65{fill:#C4E7ED;}
	.st66{fill:#D3DDDD;}
	.st67{fill:#67B8CB;}
	.st68{fill:#94A4A4;}
	.st69{fill:#778383;}
	.st70{fill:url(#SVGID_3_);}
	.st71{fill:#778484;}
	.st72{fill:#788484;}
	.st73{fill:#2EA397;}
	.st74{fill:#238C7F;}
	.st75{fill:#ACC563;}
	.st76{fill:#FFFFFF;filter:url(#Adobe_OpacityMaskFilter);}
	.st77{mask:url(#mask5624_1_);fill:url(#path4786_1_);}
	.st78{fill-opacity:0.1347;}
	.st79{fill:#209EAF;}
	.st80{fill:#FBEC9A;}
	.st81{fill:#FBE158;}
	.st82{fill:#8E6134;}
	.st83{fill:#20A1B2;}
	.st84{fill:#818284;}
	.st85{fill:#47C4B7;}
	.st86{fill:#5B5C5F;}
	.st87{fill:#2DA890;}
	.st88{fill:#EDBC7C;}
	.st89{fill:#FCF1E2;}
	.st90{fill:#C69009;}
	.st91{fill:url(#SVGID_4_);}
	.st92{fill:url(#SVGID_5_);}
	.st93{fill:url(#SVGID_6_);}
	.st94{fill:url(#SVGID_7_);}
	.st95{fill:url(#SVGID_8_);}
	.st96{fill:url(#SVGID_9_);}
	.st97{fill:url(#SVGID_10_);}
	.st98{fill:url(#SVGID_11_);}
	.st99{fill:url(#SVGID_12_);}
	.st100{fill:url(#SVGID_13_);}
	.st101{fill:url(#SVGID_14_);}
	.st102{fill:url(#SVGID_15_);}
	.st103{fill:url(#SVGID_16_);}
	.st104{fill:#8C8C8C;}
	.st105{fill:url(#SVGID_17_);}
	.st106{fill:url(#SVGID_18_);}
	.st107{fill:#EAD48C;}
	.st108{fill:#B29754;}
	.st109{fill:#703732;}
	.st110{fill:url(#path4151_1_);}
	.st111{fill:url(#path4155_1_);}
	.st112{fill:url(#path4151-6_1_);}
	.st113{fill:url(#path4155-6_1_);}
	.st114{fill:url(#path4194_1_);}
	.st115{fill:url(#path4153_1_);}
	.st116{fill:url(#path4153-3_1_);}
	.st117{fill:url(#path4194-5_1_);}
	.st118{fill:#6FDAF1;}
	.st119{fill:#AF7653;}
	.st120{fill:#C18D30;}
	.st121{fill:#FF0000;}
	.st122{fill:url(#SVGID_19_);}
	.st123{fill:url(#SVGID_20_);}
	.st124{fill:url(#SVGID_21_);}
	.st125{fill:#2CDCF4;}
	.st126{fill:#218693;}
	.st127{fill:#173435;}
	.st128{fill:#F99134;}
	.st129{fill:#D19834;}
	.st130{fill:#E2574C;}
	.st131{fill:#EDEDED;}
	.st132{fill:#D65348;}
	.st133{fill:#E1E1E1;}
	.st134{fill:#C04B41;}
</style>
<g id="mayor">
	<g>
		<g>
			<path class="st0" d="M87.3,807.8c0-10.9,8.9-19.8,19.8-19.8c10.9,0,19.8,8.9,19.8,19.8c0,10.9-8.9,19.8-19.8,19.8
				C96.2,827.6,87.3,818.7,87.3,807.8z"/>
		</g>
		<path class="st1" d="M110.4,788.3c2,0.9,4.3,1.1,6.3,2.3c-0.7,1.1-0.6,2.5-1,3.7c-0.3,0.3-0.7,0.6-1.1,0.6c-2.3,0.1-4.7,0.4-7-0.2
			c-0.2-0.1-0.4-0.2-0.5-0.4c-0.5-2-1-4,0.3-5.9C108.5,788.3,109.5,788.3,110.4,788.3z"/>
		<path class="st2" d="M107.5,788.3c0,2,0,3.9,0,5.9c-0.1,0.1-0.1,0.2-0.2,0.3c-1.3,0.9-6.1,0.8-7.5-0.2c-0.3-1.3-0.7-2.6-1-3.9
			c1.7-1.1,3.8-1.2,5.7-2C105.5,788.3,106.5,788.3,107.5,788.3z"/>
		<path class="st3" d="M87.7,805.1c0.1,0,0.2,0,0.3,0c0.1,0.6,0.1,1.2-0.3,1.7C87.7,806.2,87.7,805.7,87.7,805.1z"/>
		<path class="st4" d="M101.3,810.1c-2.4-3.1-2.9-6.5-1.6-10.2c0.2-0.2,0.4-0.4,0.7-0.4c2.4-0.1,4.8-0.3,7.2,0.2
			c1.2,1.9,0.7,3.9,0.4,5.9c-0.1,0.5-0.2,1.1-0.8,1.1c-1.1,0-2,0.7-3.3,0.8c1,0.1,1.9,0.3,2.8,0.1c0.7-0.2,1.3-0.1,1.4,0.9
			c0,1.3,0.6,2.8-0.6,3.9C105.6,812.8,102.3,811.5,101.3,810.1z"/>
		<path class="st5" d="M107.5,799.9c-2.6,0-5.2,0-7.8,0c-0.3-0.1-0.6-0.2-0.9-0.3c0.4-0.8,1.1-0.7,1.8-0.8c1.4-0.1,2.8,0,4.3,0
			c0.6,0,1.5,0.1,1.5-0.8c0-1-0.9-0.9-1.6-0.9c-1.4-0.1-2.8,0-4.2-0.1c-0.6,0-1.3,0-1.7-0.7c0.4-0.3,0.9-0.2,1.4-0.3
			c0.4-0.7,1.2-0.7,1.9-0.7c1.8-0.1,3.6-0.1,5.4,0.1c2-0.1,4-0.1,5.9-0.1c0.7,0,1.5,0,1.9,0.7c1.6-0.1,1.9,0.8,1.9,2.3
			c0,1.5-0.8,1.7-1.9,1.7c-0.2,0.3-0.5,0.6-0.9,0.6c-2,0.2-3.9,0.2-5.9,0C108,800.4,107.8,800.1,107.5,799.9z"/>
		<path class="st6" d="M98.9,796.2c2.2,0,4.4,0.1,6.6,0c1.2,0,2.1,0,2.1,1.7c0,1.7-1,1.6-2.2,1.6c-2.2,0-4.4,0-6.6,0
			C98.1,798.4,98,797.3,98.9,796.2z"/>
		<path class="st7" d="M101.3,810.1c2,0.7,3.9,1.3,5.9,2c0.2,0.1,0.5,0.1,0.6,0.3c0.3,0.4,0.4,0.9,0.3,1.4c-0.1,0.3-0.4,0.5-0.6,0.8
			c-0.5,0.5-0.8,1-1.5,1.3c-1.7,0.3-2.3-1.2-3.3-2c-0.8-0.9-2.2-1-2.6-2.3C100.5,811,100.7,810.4,101.3,810.1z"/>
		<path class="st8" d="M107.5,795.9c-2.4,0-4.8,0-7.2,0c-0.3-0.5-0.4-1.1-0.4-1.6c2.6,0,5.1-0.1,7.7-0.1l0,0.1
			C108,794.8,107.9,795.3,107.5,795.9z"/>
		<path class="st9" d="M107.5,812.4c-0.1-0.1-0.2-0.2-0.3-0.3c0.8-1.2-0.1-2.7,0.6-4c1-0.8,2.2-0.2,3.2-0.7c0,0,0,0,0,0
			c-1.4,0.2-2.4-0.6-3.5-1.3c0-2.1,0-4.2,0-6.3c2.6,0,5.2,0,7.8,0c1.3,3.7,0.8,7.1-1.6,10.2c0,0.1,0,0.1,0,0.2
			C112.8,811.6,109,812.9,107.5,812.4z"/>
		<path class="st10" d="M107.5,812.4c2.1-0.8,4.1-1.5,6.2-2.3c0.8,0.2,1,0.9,1.2,1.6c-0.5,1.3-2,1.4-2.8,2.4c-1,0.9-1.7,2.5-3.5,1.4
			c-0.6-0.5-1-1-0.7-1.8C107.7,813.2,107.6,812.8,107.5,812.4z"/>
		<path class="st11" d="M107.5,795.9c0-0.5,0-1.1,0-1.6c2.7,0,5.5,0,8.2,0c-0.1,0.5-0.3,1.1-0.4,1.6
			C112.7,796,110.1,796,107.5,795.9z"/>
		<path class="st12" d="M102.8,813.8c1.2,0.5,2,1.5,3.4,1.6c0.5,0,0.9,0.1,1.1,0.5c0.3,0.6-0.6,3.6-1.3,4.1
			C104.9,817.9,103.8,815.8,102.8,813.8z"/>
		<path class="st13" d="M105.9,820c0.3-1.1,0.5-2.2,0.9-3.3c0.3-0.8-0.3-0.9-0.6-1.3c0.3-0.4,0.7-0.9,1-1.3c0.7,0.1,0.8,0.6,0.8,1.1
			c-0.1,2.2,0.5,4.4-0.1,6.5c-0.1,0.1-0.2,0.2-0.4,0.3C106.6,821.6,106.2,820.8,105.9,820z"/>
		<path class="st14" d="M118.4,820.9c0,1.6-2.3,3.1-3.7,2.4c-1.1-0.6-2.6-0.9-2.2-2.7c0.2-1.2,1.2-2,2.4-1.5
			c0.4,0.1,0.7,0.2,1.1,0.1C117.4,818.6,118.4,819.3,118.4,820.9z"/>
		<g>
			<path class="st1" d="M124.2,817.8c-0.2-0.2-0.3-0.5-0.4-0.7c-2-3.3-5-5.2-8.9-5.5c-1.4,0.2-2.4,1-3.3,2c-1,2-2.2,4-3.3,6
				c-0.3,0.6-0.2,1.2-0.7,1.7c-0.1,0.2-0.1,0.4-0.1,0.7c0,0.9,0,1.7,0,2.6c0.1,0.6-0.2,1.2-0.3,1.8c0.2,0.4,0.3,0.8,0.3,1.2
				C114.6,827.5,120.8,823.6,124.2,817.8z"/>
			<path class="st1" d="M107.5,827.8c0,0,0,0.1,0,0.1c1,0,2,0,3,0c0.3-0.1,0.5-0.1,0.8-0.1H107.5z"/>
		</g>
		<path class="st14" d="M118.4,820.9c0,1.6-2.3,3.1-3.7,2.4c-1.1-0.6-2.6-0.9-2.2-2.7c0.2-1.2,1.2-2,2.4-1.5
			c0.4,0.1,0.7,0.2,1.1,0.1C117.4,818.6,118.4,819.3,118.4,820.9z"/>
		<path class="st15" d="M108.8,815.1c1.4,0.6,2.1-0.8,3.2-1c-1,2-2,4-3.1,5.9C107.5,818.6,107.5,815.8,108.8,815.1z"/>
		<path class="st16" d="M108.8,815.1c-1,0.8-0.6,1.8-0.3,2.8c0.2,0.7,0.3,1.4,0.4,2.1c-0.2,0.7-0.4,1.3-1,1.7
			c-0.7-1.2-0.2-2.6-0.4-3.9c-0.1-1.2,0.3-2.5-0.3-3.7c0.1-0.3,0.3-0.4,0.6-0.4C108.1,814.1,108.5,814.6,108.8,815.1z"/>
		<path class="st17" d="M107.5,806.2c0.8-0.3,1.6-0.4,2.2,0.4c0.5,0.7,1.1,0.5,1.7,0.2c0.3-0.1,0.5,0,0.4,0.3c-1.1,1.4-2.4,1.7-4,1
			c-0.4-0.4-0.7,0.1-1,0.2c-1.9,0.6-3.4-0.2-3.9-2.4c0.7,1,1.5,1.2,2.2,0.4C105.8,805.7,106.6,805.8,107.5,806.2z"/>
		<path class="st18" d="M111.8,807.1c-0.1-0.1-0.2-0.2-0.4-0.3c0.2-0.2,0.3-0.7,0.6-0.5C112.2,806.4,112,806.9,111.8,807.1z"/>
		<g>
			<path class="st2" d="M107.8,827.6c0.2-0.4,0.2-0.8,0-1.3c-0.4-0.7,0-1.3,0.2-1.9c0.3-0.8,0.2-1.5,0-2.3c-0.6-0.8-1.3-1.5-1.6-2.5
				c-1.1-2-2-4.1-3.1-6.1c-0.8-1-1.9-1.7-3.1-2.1c-4.1,0.6-7.4,2.4-9.4,6.3c-0.1,0.2-0.3,0.2-0.5,0.3c0,0,0,0.1,0,0.1
				c3.5,5.7,9.7,9.5,16.9,9.5C107.4,827.6,107.6,827.6,107.8,827.6z"/>
			<path class="st2" d="M103.1,827.8c0.3,0.1,0.7,0.1,1,0.1c1.1,0,2.2,0,3.3,0c0,0,0.1-0.1,0.1-0.1H103.1z"/>
		</g>
		<path class="st19" d="M107.5,824.6c0.6,0,1,0.2,1,0.8c0,0.8-0.6,0.9-1.3,0.9C106.2,825.5,106,824.9,107.5,824.6z"/>
		<g>
			<path class="st20" d="M115.1,794.1c-0.1,0.6-0.4,1.2,0,1.8c1.6,1.5,1.8,2.2,0,4c-0.3,0.5-0.2,1.1-0.1,1.6c0.5,2.4,0.2,4.7-1,6.8
				c-0.3,0.5-0.6,1.1-0.6,1.7c0.3,0.8,0.5,1.5,1.2,2c0.2,0.1,0.5,0.3,0.8,0.3c3.4,0.6,6,2.2,7.8,5.2c0.2,0.3,0.5,0.6,0.8,0.7
				c1.9-3,3-6.6,3-10.5c0-7.5-4.2-14.1-10.4-17.4c0,0-0.1,0-0.1,0C115.2,791.3,115.4,792.8,115.1,794.1z"/>
			<path class="st20" d="M127.1,805.5v6.3c0-0.2,0.1-0.5,0.1-0.7c0-1.8,0-3.5,0-5.3C127.2,805.7,127.2,805.6,127.1,805.5z"/>
		</g>
		<path class="st21" d="M87.7,806.8c0,1.4,0,2.9,0,4.3c0.1,0.5,0.2,0.9,0.3,1.4c0.5,2.1,1.3,4,2.5,5.8c0.8,0.1,1.2-0.4,1.6-1.1
			c1.6-2.5,3.8-4,6.6-4.7c0.7-0.2,1.4-0.4,1.9-0.8c0.6-0.4,1-1,1-1.8c0-0.5-0.2-0.9-0.4-1.2c-0.8-1.4-1.2-3-1.4-4.6
			c-0.2-1.5,0.6-2.8,0.2-4.2c-0.1-0.3-0.3-0.6-0.5-0.8c-0.6-0.7-0.8-1.5,0-2.2c0.3-0.3,0.7-0.6,1-1c0.3-0.6,0-1.2-0.1-1.8
			c-0.3-1.4-0.1-2.9-1.3-4c-0.2-0.1-0.4-0.1-0.6-0.2c-5.1,2.5-9,7.1-10.5,12.8c-0.1,0.8-0.2,1.5-0.2,2.4
			C87.8,805.7,88,806.2,87.7,806.8z"/>
	</g>
</g>
<g id="press">
</g>
<g id="liaison">
</g>
<g id="citizen">
</g>
<g id="finance-head">
</g>
<g id="technical-head">
</g>
<g id="cleaning-head">
</g>
<g id="secretary-head">
</g>
<g id="technical-dept">
</g>
<g id="technical">
</g>
<g id="water-net">
</g>
<g id="cleaning-dept">
</g>
<g id="green-dept">
</g>
<g id="social-security">
</g>
<g id="finance-dept">
</g>
<g id="cachier">
</g>
<g id="supplies">
</g>
<g id="administration">
</g>
<g id="registry">
</g>
<g id="population">
</g>
<g id="onestopoffice">
</g>
<g id="solidarity">
</g>
<g id="oldster">
</g>
<g id="athletics">
</g>
<g id="civilization">
</g>
</svg>
