<?xml version="1.0" encoding="utf-8"?>
<!-- Generator: Adobe Illustrator 19.2.1, SVG Export Plug-In . SVG Version: 6.00 Build 0)  -->
<svg version="1.1" xmlns="http://www.w3.org/2000/svg" xmlns:xlink="http://www.w3.org/1999/xlink" x="0px" y="0px"
	 viewBox="-4.2 607.9 40 40" style="enable-background:new -4.2 607.9 40 40;" xml:space="preserve">
<style type="text/css">
	.st0{fill:#49A0AE;}
	.st1{fill:#343434;}
	.st2{fill:#2F2F2F;}
	.st3{fill:#317263;}
	.st4{fill:#E6AF82;}
	.st5{fill:#363635;}
	.st6{fill:#303030;}
	.st7{fill:#E2E2E2;}
	.st8{fill:#EAEAEA;}
	.st9{fill:#FABE8E;}
	.st10{fill:#F6F6F6;}
	.st11{fill:#FEFEFE;}
	.st12{fill:#C5C3C3;}
	.st13{fill:#D14241;}
	.st14{fill:#E54645;}
	.st15{fill:#D6D4D4;}
	.st16{fill:#E54847;}
	.st17{fill:#333231;}
	.st18{fill:#393736;}
	.st19{fill:#F3D756;}
	.st20{fill:#54C3A8;}
	.st21{fill:#4DB39A;}
	.st22{fill:#FABC3D;}
	.st23{opacity:0.12;}
	.st24{fill:url(#SVGID_1_);}
	.st25{fill:#D4002B;}
	.st26{fill:#1C8ADB;}
	.st27{fill:url(#SVGID_2_);}
	.st28{fill:#25B7D3;}
	.st29{fill:#FFFFFF;}
	.st30{fill:#3E3E3F;}
	.st31{fill:#099686;}
	.st32{fill:#CFD3D4;}
	.st33{fill:#12B2A0;}
	.st34{fill:#F0F1F1;}
	.st35{fill:#84462D;}
	.st36{fill:#9C6144;}
	.st37{fill:#F7B4B4;}
	.st38{fill:#FBC8C8;}
	.st39{fill:#FBD7D7;}
	.st40{fill:#F79392;}
	.st41{fill:#9CE5F4;}
	.st42{fill:#0484AB;}
	.st43{fill:#059BBF;}
	.st44{fill:#21B2D1;}
	.st45{fill:#F37A10;}
	.st46{fill:#32BEA6;}
	.st47{fill:#E2E4E5;}
	.st48{fill:#B6BCBD;}
	.st49{fill:#40C9E7;}
	.st50{fill:#F4D0A1;}
	.st51{fill:#FACB1B;}
	.st52{fill:#A38D6C;}
	.st53{fill:#D6CDBD;}
	.st54{fill:#87745F;}
	.st55{fill:#A59F97;}
	.st56{fill:#DF2C2C;}
	.st57{fill:#FA5655;}
	.st58{fill:#E04F5F;}
	.st59{fill:#B54152;}
	.st60{fill:#FCF6C2;}
	.st61{fill:#F3B607;}
	.st62{fill:#D9E3E4;}
	.st63{fill:#A2D4DE;}
	.st64{fill:#8EC0C8;}
	.st65{fill:#C4E7ED;}
	.st66{fill:#D3DDDD;}
	.st67{fill:#67B8CB;}
	.st68{fill:#94A4A4;}
	.st69{fill:#778383;}
	.st70{fill:url(#SVGID_3_);}
	.st71{fill:#778484;}
	.st72{fill:#788484;}
	.st73{fill:#2EA397;}
	.st74{fill:#238C7F;}
	.st75{fill:#ACC563;}
	.st76{fill:#FFFFFF;filter:url(#Adobe_OpacityMaskFilter);}
	.st77{mask:url(#mask5624_1_);fill:url(#path4786_1_);}
	.st78{fill-opacity:0.1347;}
	.st79{fill:#209EAF;}
	.st80{fill:#FBEC9A;}
	.st81{fill:#FBE158;}
	.st82{fill:#8E6134;}
	.st83{fill:#20A1B2;}
	.st84{fill:#818284;}
	.st85{fill:#47C4B7;}
	.st86{fill:#5B5C5F;}
	.st87{fill:#2DA890;}
	.st88{fill:#EDBC7C;}
	.st89{fill:#FCF1E2;}
	.st90{fill:#C69009;}
	.st91{fill:url(#SVGID_4_);}
	.st92{fill:url(#SVGID_5_);}
	.st93{fill:url(#SVGID_6_);}
	.st94{fill:url(#SVGID_7_);}
	.st95{fill:url(#SVGID_8_);}
	.st96{fill:url(#SVGID_9_);}
	.st97{fill:url(#SVGID_10_);}
	.st98{fill:url(#SVGID_11_);}
	.st99{fill:url(#SVGID_12_);}
	.st100{fill:url(#SVGID_13_);}
	.st101{fill:url(#SVGID_14_);}
	.st102{fill:url(#SVGID_15_);}
	.st103{fill:url(#SVGID_16_);}
	.st104{fill:#8C8C8C;}
	.st105{fill:url(#SVGID_17_);}
	.st106{fill:url(#SVGID_18_);}
	.st107{fill:#EAD48C;}
	.st108{fill:#B29754;}
	.st109{fill:#703732;}
	.st110{fill:url(#path4151_1_);}
	.st111{fill:url(#path4155_1_);}
	.st112{fill:url(#path4151-6_1_);}
	.st113{fill:url(#path4155-6_1_);}
	.st114{fill:url(#path4194_1_);}
	.st115{fill:url(#path4153_1_);}
	.st116{fill:url(#path4153-3_1_);}
	.st117{fill:url(#path4194-5_1_);}
	.st118{fill:#6FDAF1;}
	.st119{fill:#AF7653;}
	.st120{fill:#C18D30;}
	.st121{fill:#FF0000;}
	.st122{fill:url(#SVGID_19_);}
	.st123{fill:url(#SVGID_20_);}
	.st124{fill:url(#SVGID_21_);}
	.st125{fill:#2CDCF4;}
	.st126{fill:#218693;}
	.st127{fill:#173435;}
	.st128{fill:#F99134;}
	.st129{fill:#D19834;}
	.st130{fill:#E2574C;}
	.st131{fill:#EDEDED;}
	.st132{fill:#D65348;}
	.st133{fill:#E1E1E1;}
	.st134{fill:#C04B41;}
</style>
<g id="mayor">
</g>
<g id="press">
</g>
<g id="liaison">
</g>
<g id="citizen">
</g>
<g id="finance-head">
</g>
<g id="technical-head">
</g>
<g id="cleaning-head">
</g>
<g id="secretary-head">
</g>
<g id="technical-dept">
</g>
<g id="technical">
</g>
<g id="water-net">
</g>
<g id="cleaning-dept">
</g>
<g id="green-dept">
</g>
<g id="social-security">
</g>
<g id="finance-dept">
</g>
<g id="cachier">
</g>
<g id="supplies">
</g>
<g id="administration">
</g>
<g id="registry">
</g>
<g id="population">
</g>
<g id="onestopoffice">
</g>
<g id="solidarity">
</g>
<g id="oldster">
	<g>
		<path class="st125" d="M8.5,645.6c-0.2-0.2-0.6-0.5-0.5-0.6c0.1-0.1,0.5,0,0.6,0c0.3,0,0.6,0,0.9,0c-1.7-1.6-3.4-3.1-5.1-4.7
			c1.1,0,2.5,0,3.6,0c0,0,0.6,0.4,0.4,0.6c-0.2,0.2-0.6,0.3-0.9,0.5c-0.1,0-0.3,0.1-0.2,0.2c0.1,0.2,0.9,0.7,1.1,0.9
			c0.9,0.7,1.7,1.3,2.6,2c0.2,0.1,0.6,0.5,0.8,0.6c0.2,0.1,0.5,0,0.6,0c0.1,0,0.5,0.1,0.6,0c0,0,0-0.1-0.1-0.1
			c-0.1-0.3-0.4-0.6-0.6-0.9c-0.3-0.5-0.6-0.9-0.9-1.4c-0.3-0.5-0.6-0.9-0.8-1.4c-0.1-0.2-0.5-0.7-0.5-0.8c0-0.1,0.4,0,0.5,0
			c0.5,0,1,0,1.5,0c0.5,0,0.5,0,0.9,0l0.3,0.7c-0.2,0.1-0.4,0.2-0.6,0.3c-0.1,0-0.1,0.1-0.2,0.1c-0.1,0.1-0.1,0,0,0.2
			c0.1,0.2,0.4,0.5,0.5,0.7c0.2,0.3,0.4,0.6,0.7,0.9c0.4,0.6,0.9,1.2,1.4,1.8c0.1,0,0.4,0,0.6,0c0.6,0.8,1.3,1.7,1.9,2.5
			c1.1-0.1,2.1-0.3,3.1-0.6c-0.1-0.1-0.1-0.1-0.2-0.2c-1.5-1.4-2.7-3.7-4.3-5.1c-0.5-0.5-0.9-0.2-1.4-0.7l-1.3-0.7
			c1.1,0,2.2-0.1,3.3,0c0.3,0,1.1,0,1.2,0.5c0,0.2-0.2,0.2-0.3,0.3c-0.1,0.1-0.5,0.3-0.5,0.4l5.5,4.8c0,0,0,0,0,0
			c-0.7-1.3-1.5-2.6-2.4-4c-0.2-0.3-0.5-0.6-0.7-1c-0.1-0.2-0.2-0.3-0.4-0.5c-0.1-0.1-0.5-0.5-0.5-0.6c0-0.1,0.5,0,0.6,0
			c0.9,0,1.7,0,2.6,0c0.2,0,0.7,0,1,0.3c0.3,0.3-0.2,0.5-0.4,0.6c-0.2,0.1-0.8,0.1-0.7,0.4c0.1,0.3,0.7,0.8,0.9,1.1
			c0.4,0.5,0.8,1,1.2,1.5c0.3,0.4,0.6,0.8,0.9,1.2c1.2-0.6,2.2-1.3,3.2-2.1c-0.5-0.4-1-0.9-1.6-1.3c-0.6-0.5-1.2-1-1.7-1.5
			c0.2,0,0.6-0.2,0.8-0.1c0.2,0.1,0.6,0.5,0.8,0.7c0.7,0.6,1.4,1.2,2.2,1.8c4.2-3.6,6.9-9,6.9-15c0-10.9-8.9-19.8-19.8-19.8
			C4.9,608.1-4,616.9-4,627.9c0,8.7,5.7,16.1,13.5,18.8C9.2,646.3,8.8,646,8.5,645.6z"/>
		<path class="st126" d="M22.9,642.7c-0.3-0.3-0.8-0.8-0.9-1.1c-0.1-0.3,0.5-0.3,0.7-0.4c0.2-0.1,0.7-0.3,0.4-0.6
			c-0.3-0.3-0.3-0.3-0.5-0.3c-0.9,0-2,0-2.9,0c-0.1,0-0.8,0-0.8,0.1c0,0.1,0.4,0.5,0.5,0.6c0.1,0.2,0.2,0.3,0.4,0.5
			c0.3,0.3,0.5,0.6,0.7,1c0.9,1.4,1.7,2.7,2.4,4c0.7-0.3,1.5-0.6,2.2-1c-0.3-0.4-0.6-0.8-0.9-1.2C23.7,643.7,23.3,643.2,22.9,642.7z
			"/>
		<path class="st126" d="M17.8,641.2c0.1-0.1,0.3-0.2,0.3-0.3c-0.1-0.5-0.4-0.6-0.7-0.6c-1.1,0-2.6,0-3.7,0l-0.1,0.2
			c0.5,0.5,1.8,1.7,2.3,2.1c1.6,1.4,3.2,2.9,4.7,4.3c0.1,0.1,0.1,0.1,0.2,0.2c0.7-0.2,1.4-0.4,2-0.6l-5.5-4.8
			C17.4,641.4,17.7,641.3,17.8,641.2z"/>
		<path class="st126" d="M17.8,647.6c-0.6-0.8-1.3-1.7-1.9-2.5c-0.2,0-0.5-0.1-0.6,0c-0.5-0.6-0.9-1.2-1.4-1.8
			c-0.2-0.3-0.4-0.6-0.7-0.9c-0.2-0.2-0.4-0.5-0.5-0.7c-0.1-0.1-0.1-0.1,0-0.2c0.1-0.1,0.1-0.1,0.2-0.1c0.2-0.1,0.4-0.2,0.6-0.3
			l-0.1-0.9c-0.5,0-0.5,0-1,0c-0.5,0-1,0-1.5,0c-0.1,0-0.6,0.1-0.6,0.2c0,0.1,0.4,0.6,0.5,0.8c0.3,0.5,0.6,0.9,0.8,1.4
			c0.3,0.5,0.6,0.9,0.9,1.4c0.2,0.3,0.4,0.6,0.6,0.9c0,0.1,0.1,0.1,0.1,0.1c0,0.1-0.4,0-0.6,0c-0.1,0-0.4,0.1-0.6,0
			c-0.2-0.1-0.7-0.5-0.8-0.6c-0.9-0.7-1.8-1.3-2.6-2c-0.2-0.2-1-0.7-1.1-0.9c0-0.1,0.2-0.2,0.2-0.2c0.3-0.2,0.6-0.3,0.9-0.5
			c0.2-0.2-0.4-0.6-0.4-0.6c-1.1,0-2.5,0-3.6,0c1.7,1.6,3.4,3.1,5.1,4.7c-0.3,0-0.6,0-0.9,0c-0.2,0-0.5,0-0.6,0
			c-0.1,0.1,0.3,0.4,0.5,0.6c0.3,0.3,0.7,0.7,1,1c2,0.7,4.1,1,6.3,1C16.5,647.7,17.1,647.7,17.8,647.6z"/>
		<path class="st126" d="M25.9,640.2c-0.2-0.1-0.9,0.1-1.1,0.1c0.6,0.5,1.3,1.1,1.9,1.6c0.5,0.4,1,0.9,1.6,1.3
			c0.2-0.1,0.3-0.3,0.5-0.4c-0.7-0.6-1.4-1.2-2.2-1.8C26.4,640.9,26.1,640.3,25.9,640.2z"/>
		<path class="st127" d="M12.8,639.5c-0.3-0.1-0.6-0.2-0.9-0.3c-0.1,0-0.2-0.1-0.3-0.1c-0.1-0.1-0.1,0-0.2-0.2
			c-0.1-0.2-0.1-0.5-0.1-0.7c-0.1-0.3-0.1-0.6-0.2-0.9c-0.1-0.6-0.3-1.2-0.4-1.8c0.2,0,0.4,0,0.6,0c-0.4-2-1.1-4-1-6
			c0-0.5,0.1-1,0.2-1.4c0.1-0.5,0.1-1.2,0.5-1.6c0.4-0.4,0.8,0.2,1.1,0.4c0.5,0.3,1,0.7,1.6,0.6l0.4-1.9c-1.1-0.4-2-1.3-1.9-2.6
			c0.1-0.7,0.4-1.3,0.7-1.9c0.1-0.2,0.2-0.2,0.4-0.2c0.2,0,0.3,0,0.4-0.1c0.3-0.1,0.7-0.2,0.9-0.4c1-0.7,1.3-2.2,0.6-3.3
			c-0.7-1.1-2.1-1.5-3.2-0.9c-0.5,0.3-1,0.7-1.2,1.3c-0.1,0.3-0.2,0.6-0.2,0.9c0,0.2,0,0.4,0.1,0.6c0,0.1,0,0.2,0,0.2
			c0,0.2,0.1,0-0.1,0.2c-0.1,0.1-0.4,0.3-0.5,0.4c-0.1,0.1-0.3,0.2-0.4,0.3c-0.3,0.2-0.5,0.5-0.7,0.7c-0.5,0.5-1,1-1.5,1.5
			c-1.8,2-3,4.4-3.8,7c-0.3,1.2-0.6,2.4-0.7,3.6c0,0.6,0,1.2,0,1.7c0,0.2,0,0.5,0.1,0.6c0.1,0.1,0.5,0,0.6,0c0.3,0,0.6,0,0.9,0
			c-0.1,1.6-0.2,3.1-0.4,4.7c1.1,0,2.5,0,3.6,0c0,0,0.2-0.4-0.2-0.6c-0.4-0.2-0.9-0.3-1.3-0.5c-0.1,0-0.4-0.1-0.4-0.2
			c-0.1-0.2,0.2-0.7,0.2-0.9c0.2-0.7,0.4-1.3,0.6-2c0-0.1,0.1-0.5,0.2-0.6c0.1-0.1,0.5,0,0.6,0c0.1,0,0.5-0.1,0.6,0
			c0,0,0,0.1,0.1,0.1c0.2,0.3,0.2,0.6,0.4,0.9c0.2,0.5,0.4,0.9,0.5,1.4c0.2,0.5,0.4,0.9,0.5,1.4c0.1,0.2,0.2,0.7,0.3,0.8
			c0.1,0.1,0.4,0,0.6,0c0.5,0,1,0,1.5,0c0.5,0,0.5,0,1,0"/>
		<path d="M27.5,627.9l-3.8-4.9c-0.4-1-0.6-1.6-0.9-2.7c1.5,0.3,2.9-0.7,3-2.2c0.1-1.7-1.6-3-3.3-2.5c-0.7,0.2-1.3,0.7-1.5,1.5
			c-0.1,0.2-0.1,0.4-0.1,0.7c0,0.1,0,0.2,0,0.3c0,0-0.3,0.1-0.3,0.1c-0.4,0.2-0.8,0.3-1.1,0.5c-1.3,0.8-2.5,1.8-3.5,3
			c-0.5,0.6-0.9,1.3-1.2,2c0,0.1-0.1,0.2-0.1,0.3l-0.5,1.8l-0.4,1.9l0,1.2c0.1,0.7,0.2,1.4,0.3,2.1c0,0,0,0.1,0,0.1
			c0.2,0.9,0.4,1.9,0.4,2.8c-0.1,1.4-0.3,2.9-0.4,4.3c0,0.5-0.1,0.9-0.1,1.4l0,0.8c1.1,0,2.2,0.1,3.3,0c0.3,0,1.1,0,0.7-0.5
			c-0.1-0.2-0.4-0.2-0.6-0.3c-0.2-0.1-0.7-0.3-0.9-0.4l0.7-4.8c0.6,1.3,1.1,2.6,1.6,4c0.1,0.3,0.2,0.6,0.2,1c0,0.2,0.1,0.3,0.1,0.5
			c0,0.1,0,0.5,0.1,0.6c0.1,0.1,0.5,0,0.6,0c0.9,0,1.7,0,2.6,0c0.2,0,0.7,0,0.7-0.3c0-0.3-0.8-0.5-1-0.6c-0.3-0.1-0.9-0.1-1-0.4
			c-0.2-0.3-0.1-0.8-0.2-1.1c-0.1-0.5-0.2-1-0.3-1.5c-0.4-1.7-0.8-3.5-1.2-5.2c-0.3-1.4-0.3-3.1,0.2-4.5c0.2-0.7,0.5-1.4,0.9-2
			l1.1-1.1l4.4,4.5c-0.1,0.2-0.3,0.3-0.4,0.5c-0.2,0.3-0.1,0.3,0.2,0.5c0.2,0.1,0.4,0.2,0.5,0.3c0-0.2,0.2-0.4,0.3-0.5
			c0.1,0.1,0.6,0.2,0.6,0.3c0,0,0,0.1,0,0.1c0,0.2-0.1,0.5-0.1,0.7c-0.2,0.8-0.3,1.7-0.5,2.5c-0.4,2-0.8,4.1-1.2,6.1
			c-0.1,0.5-0.2,1-0.3,1.5c0.2,0,0.8,0.2,0.9,0.1c0.1-0.1,0.1-0.5,0.1-0.7c0.2-1,0.4-2,0.5-3c0.4-2.2,0.8-4.4,1.2-6.6
			c0-0.3,0.1-0.4,0.2-0.6c0.1-0.1,0.2-0.3,0.3-0.5c0-0.1,0.1-0.1,0.1-0.2C28.3,628.3,27.7,628.1,27.5,627.9z M26.1,628.7
			c0,0,0.1,0,0.1,0.1C26.1,628.7,26.1,628.7,26.1,628.7z"/>
	</g>
</g>
<g id="athletics">
</g>
<g id="civilization">
</g>
</svg>
