<?xml version="1.0" encoding="utf-8"?>
<!-- Generator: Adobe Illustrator 19.2.1, SVG Export Plug-In . SVG Version: 6.00 Build 0)  -->
<svg version="1.1" xmlns="http://www.w3.org/2000/svg" xmlns:xlink="http://www.w3.org/1999/xlink" x="0px" y="0px"
	 viewBox="87.3 607.9 40 40" style="enable-background:new 87.3 607.9 40 40;" xml:space="preserve">
<style type="text/css">
	.st0{fill:#49A0AE;}
	.st1{fill:#343434;}
	.st2{fill:#2F2F2F;}
	.st3{fill:#317263;}
	.st4{fill:#E6AF82;}
	.st5{fill:#363635;}
	.st6{fill:#303030;}
	.st7{fill:#E2E2E2;}
	.st8{fill:#EAEAEA;}
	.st9{fill:#FABE8E;}
	.st10{fill:#F6F6F6;}
	.st11{fill:#FEFEFE;}
	.st12{fill:#C5C3C3;}
	.st13{fill:#D14241;}
	.st14{fill:#E54645;}
	.st15{fill:#D6D4D4;}
	.st16{fill:#E54847;}
	.st17{fill:#333231;}
	.st18{fill:#393736;}
	.st19{fill:#F3D756;}
	.st20{fill:#54C3A8;}
	.st21{fill:#4DB39A;}
	.st22{fill:#FABC3D;}
	.st23{opacity:0.12;}
	.st24{fill:url(#SVGID_1_);}
	.st25{fill:#D4002B;}
	.st26{fill:#1C8ADB;}
	.st27{fill:url(#SVGID_2_);}
	.st28{fill:#25B7D3;}
	.st29{fill:#FFFFFF;}
	.st30{fill:#3E3E3F;}
	.st31{fill:#099686;}
	.st32{fill:#CFD3D4;}
	.st33{fill:#12B2A0;}
	.st34{fill:#F0F1F1;}
	.st35{fill:#84462D;}
	.st36{fill:#9C6144;}
	.st37{fill:#F7B4B4;}
	.st38{fill:#FBC8C8;}
	.st39{fill:#FBD7D7;}
	.st40{fill:#F79392;}
	.st41{fill:#9CE5F4;}
	.st42{fill:#0484AB;}
	.st43{fill:#059BBF;}
	.st44{fill:#21B2D1;}
	.st45{fill:#F37A10;}
	.st46{fill:#32BEA6;}
	.st47{fill:#E2E4E5;}
	.st48{fill:#B6BCBD;}
	.st49{fill:#40C9E7;}
	.st50{fill:#F4D0A1;}
	.st51{fill:#FACB1B;}
	.st52{fill:#A38D6C;}
	.st53{fill:#D6CDBD;}
	.st54{fill:#87745F;}
	.st55{fill:#A59F97;}
	.st56{fill:#DF2C2C;}
	.st57{fill:#FA5655;}
	.st58{fill:#E04F5F;}
	.st59{fill:#B54152;}
	.st60{fill:#FCF6C2;}
	.st61{fill:#F3B607;}
	.st62{fill:#D9E3E4;}
	.st63{fill:#A2D4DE;}
	.st64{fill:#8EC0C8;}
	.st65{fill:#C4E7ED;}
	.st66{fill:#D3DDDD;}
	.st67{fill:#67B8CB;}
	.st68{fill:#94A4A4;}
	.st69{fill:#778383;}
	.st70{fill:url(#SVGID_3_);}
	.st71{fill:#778484;}
	.st72{fill:#788484;}
	.st73{fill:#2EA397;}
	.st74{fill:#238C7F;}
	.st75{fill:#ACC563;}
	.st76{fill:#FFFFFF;filter:url(#Adobe_OpacityMaskFilter);}
	.st77{mask:url(#mask5624_1_);fill:url(#path4786_1_);}
	.st78{fill-opacity:0.1347;}
	.st79{fill:#209EAF;}
	.st80{fill:#FBEC9A;}
	.st81{fill:#FBE158;}
	.st82{fill:#8E6134;}
	.st83{fill:#20A1B2;}
	.st84{fill:#818284;}
	.st85{fill:#47C4B7;}
	.st86{fill:#5B5C5F;}
	.st87{fill:#2DA890;}
	.st88{fill:#EDBC7C;}
	.st89{fill:#FCF1E2;}
	.st90{fill:#C69009;}
	.st91{fill:url(#SVGID_4_);}
	.st92{fill:url(#SVGID_5_);}
	.st93{fill:url(#SVGID_6_);}
	.st94{fill:url(#SVGID_7_);}
	.st95{fill:url(#SVGID_8_);}
	.st96{fill:url(#SVGID_9_);}
	.st97{fill:url(#SVGID_10_);}
	.st98{fill:url(#SVGID_11_);}
	.st99{fill:url(#SVGID_12_);}
	.st100{fill:url(#SVGID_13_);}
	.st101{fill:url(#SVGID_14_);}
	.st102{fill:url(#SVGID_15_);}
	.st103{fill:url(#SVGID_16_);}
	.st104{fill:#8C8C8C;}
	.st105{fill:url(#SVGID_17_);}
	.st106{fill:url(#SVGID_18_);}
	.st107{fill:#EAD48C;}
	.st108{fill:#B29754;}
	.st109{fill:#703732;}
	.st110{fill:url(#path4151_1_);}
	.st111{fill:url(#path4155_1_);}
	.st112{fill:url(#path4151-6_1_);}
	.st113{fill:url(#path4155-6_1_);}
	.st114{fill:url(#path4194_1_);}
	.st115{fill:url(#path4153_1_);}
	.st116{fill:url(#path4153-3_1_);}
	.st117{fill:url(#path4194-5_1_);}
	.st118{fill:#6FDAF1;}
	.st119{fill:#AF7653;}
	.st120{fill:#C18D30;}
	.st121{fill:#FF0000;}
	.st122{fill:url(#SVGID_19_);}
	.st123{fill:url(#SVGID_20_);}
	.st124{fill:url(#SVGID_21_);}
	.st125{fill:#2CDCF4;}
	.st126{fill:#218693;}
	.st127{fill:#173435;}
	.st128{fill:#F99134;}
	.st129{fill:#D19834;}
	.st130{fill:#E2574C;}
	.st131{fill:#EDEDED;}
	.st132{fill:#D65348;}
	.st133{fill:#E1E1E1;}
	.st134{fill:#C04B41;}
</style>
<g id="mayor">
</g>
<g id="press">
</g>
<g id="liaison">
</g>
<g id="citizen">
</g>
<g id="finance-head">
</g>
<g id="technical-head">
</g>
<g id="cleaning-head">
</g>
<g id="secretary-head">
</g>
<g id="technical-dept">
</g>
<g id="technical">
</g>
<g id="water-net">
</g>
<g id="cleaning-dept">
</g>
<g id="green-dept">
</g>
<g id="social-security">
</g>
<g id="finance-dept">
</g>
<g id="cachier">
</g>
<g id="supplies">
</g>
<g id="administration">
</g>
<g id="registry">
</g>
<g id="population">
</g>
<g id="onestopoffice">
	<g>
		<path class="st28" d="M107.3,627.9l14,14c3.6-3.6,5.8-8.6,5.8-14c0-10.9-8.9-19.8-19.8-19.8s-19.8,8.9-19.8,19.8
			c0,9.7,7,17.8,16.2,19.5l-7.9-7.9L107.3,627.9z"/>
		<path class="st0" d="M121.3,641.9l-14-14l-11.5,11.5l7.9,7.9c1.2,0.2,2.4,0.3,3.6,0.3C112.8,647.7,117.7,645.5,121.3,641.9z"/>
		<g>
			<g>
				<path class="st47" d="M118.8,639.4H95.8v0c0-0.8,0.6-1.4,1.4-1.4h20.2C118.2,638,118.8,638.6,118.8,639.4L118.8,639.4z"/>
			</g>
			<g>
				<rect x="97.2" y="625" class="st29" width="20.2" height="13"/>
			</g>
			<g>
				<path class="st56" d="M99.1,625c0,0.8-0.7,1.4-1.6,1.4c-0.9,0-1.6-0.6-1.6-1.4H99.1z"/>
			</g>
			<g>
				<path class="st32" d="M102.4,625c0,0.8-0.7,1.4-1.6,1.4c-0.9,0-1.6-0.6-1.6-1.4H102.4z"/>
			</g>
			<g>
				<path class="st56" d="M105.7,625c0,0.8-0.7,1.4-1.6,1.4c-0.9,0-1.6-0.6-1.6-1.4H105.7z"/>
			</g>
			<g>
				<path class="st32" d="M109,625c0,0.8-0.7,1.4-1.6,1.4c-0.9,0-1.6-0.6-1.6-1.4H109z"/>
			</g>
			<g>
				<path class="st32" d="M115.5,625c0,0.8-0.7,1.4-1.6,1.4c-0.9,0-1.6-0.6-1.6-1.4H115.5z"/>
			</g>
			<g>
				<path class="st56" d="M112.3,625c0,0.8-0.7,1.4-1.6,1.4c-0.9,0-1.6-0.6-1.6-1.4H112.3z"/>
			</g>
			<g>
				<path class="st56" d="M118.8,625c0,0.8-0.7,1.4-1.6,1.4c-0.9,0-1.6-0.6-1.6-1.4H118.8z"/>
			</g>
			<g>
				<polygon class="st57" points="95.8,625 99.1,625 102,617.8 99.1,617.8 				"/>
			</g>
			<g>
				<polygon class="st29" points="99.1,625 102.4,625 104.4,617.8 102,617.8 				"/>
			</g>
			<g>
				<polygon class="st57" points="102.4,625 105.7,625 106.9,617.8 104.4,617.8 				"/>
			</g>
			<g>
				<polygon class="st29" points="105.7,625 109,625 109,617.8 106.9,617.8 				"/>
			</g>
			<g>
				<polygon class="st57" points="118.8,625 115.5,625 113.5,617.8 116,617.8 				"/>
			</g>
			<g>
				<polygon class="st29" points="115.5,625 112.3,625 111,617.8 113.5,617.8 				"/>
			</g>
			<g>
				<polygon class="st57" points="112.3,625 109,625 109,617.8 111,617.8 				"/>
			</g>
			<g>
				<rect x="98.7" y="627.9" class="st118" width="10.1" height="5.8"/>
			</g>
			<g>
				<polygon class="st49" points="108.8,633.6 98.7,633.6 108.8,627.9 				"/>
			</g>
			<g>
				<rect x="110.9" y="627.9" class="st49" width="5" height="4.7"/>
			</g>
			<g>
				<rect x="110.9" y="633.6" class="st49" width="5" height="4.3"/>
			</g>
			<g>
				<path class="st31" d="M108.4,635.4c0.1-1.2-1.2-2-2.7-2c-0.8,0-1.6,0.3-2.1,0.7c-0.2-0.4-0.6-0.7-1-0.7c-0.4,0-0.7,0.2-1,0.6
					c-0.3-0.7-0.9-1.2-1.7-1.2c-0.9,0-1.6,0.7-1.8,1.5c-0.1-0.1-0.3-0.2-0.4-0.2c-0.5,0-0.9,0.6-0.8,1.2H108.4z"/>
			</g>
			<g>
				<rect x="96.9" y="635.4" class="st36" width="11.5" height="2.5"/>
			</g>
			<g>
				<rect x="96.9" y="635.4" class="st119" width="11.5" height="0.7"/>
			</g>
		</g>
	</g>
</g>
<g id="solidarity">
</g>
<g id="oldster">
</g>
<g id="athletics">
</g>
<g id="civilization">
</g>
</svg>
