<?xml version="1.0" encoding="utf-8"?>
<!-- Generator: Adobe Illustrator 19.0.0, SVG Export Plug-In . SVG Version: 6.00 Build 0)  -->
<svg version="1.1" id="Layer_1" xmlns="http://www.w3.org/2000/svg" xmlns:xlink="http://www.w3.org/1999/xlink" x="0px" y="0px"
	 viewBox="0 0 40 40" style="enable-background:new 0 0 40 40;" xml:space="preserve">
<style type="text/css">
	.st0{fill:#EAD48C;}
	.st1{fill:#B29754;}
	.st2{fill:url(#XMLID_8_);}
</style>
<circle id="XMLID_6_" class="st0" cx="20" cy="20" r="19.8"/>
<g>
	<path id="XMLID_4_" class="st1" d="M30.4,36.1c0.1,0.1,0.3,0.3,0.5,0.5c0.3-0.2,0.5-0.3,0.7-0.5L30.4,36.1
		C30.4,36,30.4,36,30.4,36.1z"/>
	<path id="XMLID_3_" class="st1" d="M18.8,32.4h-3.4l6,6h-2.3c-0.8-0.6-1.6-1.1-2.4-1.5l-4.5-4.5H9.1l4.5,4.5c0,0.5,0.4,1.3,1,2.2
		c1.7,0.5,3.5,0.7,5.3,0.7c2.6,0,5.1-0.5,7.4-1.4h-2.6L18.8,32.4z"/>
	<path id="XMLID_2_" class="st1" d="M30.7,32.4h-2l3.4,3.4c0.4-0.3,0.8-0.6,1.1-0.9L30.7,32.4z"/>
	<path id="XMLID_1_" class="st1" d="M21.9,32.4l5.9,5.9c1-0.4,1.9-0.9,2.7-1.5l-4.4-4.4H21.9z"/>
</g>
<linearGradient id="XMLID_8_" gradientUnits="userSpaceOnUse" x1="7.479" y1="20.0148" x2="32.521" y2="20.0148">
	<stop  offset="0" style="stop-color:#87453B"/>
	<stop  offset="1" style="stop-color:#572D27"/>
</linearGradient>
<path id="XMLID_7_" class="st2" d="M32.5,28.7c0-2.1-0.9-5.4-2.2-6.4c0.7-0.3,1.2-1,1.2-1.8c0-1.1-0.9-1.9-1.9-1.9
	c-0.6,0-1.1,0.3-1.5,0.7c0,0,0-0.1,0-0.1c0-3.5-1.2-4.8-2.9-5.2c1.1-0.5,1.9-1.7,1.9-3c0-1.8-1.5-3.3-3.3-3.3
	c-1.8,0-3.3,1.5-3.3,3.3c0,1.3,0.8,2.5,1.9,3c-1.4,0.3-2.5,1.3-2.8,3.7c-0.5-0.8-1-1.5-1.5-1.9c1.2-0.5,2-1.6,2-3
	c0-1.8-1.4-3.2-3.2-3.2c-1.8,0-3.2,1.4-3.2,3.2c0,1.3,0.8,2.5,2,3c-1,0.8-1.9,2.5-2.6,4.5c-0.4-0.8-1-1.1-1.6-1.3
	c0.8-0.4,1.4-1.2,1.4-2.2c0-1.3-1.1-2.4-2.4-2.4s-2.4,1.1-2.4,2.4c0,1,0.6,1.8,1.4,2.2c-1.2,0.3-2.1,1.2-2.1,3.8
	c0,2.2,0.6,4.1,1.6,5.1v4.5h3.1v-4.5c0.3-0.4,0.6-0.9,0.9-1.5h2.3v6h3.4v-6h3.1v6H26v-6.2c0.9-1,1.6-2.7,2-4.6
	c0.2,0.4,0.5,0.6,0.9,0.8c-1.3,1-2.2,4.3-2.2,6.4c0,0,0,0,0,0.1h1.9v3.6h2v-3.6L32.5,28.7C32.5,28.7,32.5,28.7,32.5,28.7z"/>
</svg>
