<?xml version="1.0" encoding="utf-8"?>
<!-- Generator: Adobe Illustrator 19.2.1, SVG Export Plug-In . SVG Version: 6.00 Build 0)  -->
<svg version="1.1" xmlns="http://www.w3.org/2000/svg" xmlns:xlink="http://www.w3.org/1999/xlink" x="0px" y="0px"
	 viewBox="41.6 787.9 40 40" style="enable-background:new 41.6 787.9 40 40;" xml:space="preserve">
<style type="text/css">
	.st0{fill:#49A0AE;}
	.st1{fill:#343434;}
	.st2{fill:#2F2F2F;}
	.st3{fill:#317263;}
	.st4{fill:#E6AF82;}
	.st5{fill:#363635;}
	.st6{fill:#303030;}
	.st7{fill:#E2E2E2;}
	.st8{fill:#EAEAEA;}
	.st9{fill:#FABE8E;}
	.st10{fill:#F6F6F6;}
	.st11{fill:#FEFEFE;}
	.st12{fill:#C5C3C3;}
	.st13{fill:#D14241;}
	.st14{fill:#E54645;}
	.st15{fill:#D6D4D4;}
	.st16{fill:#E54847;}
	.st17{fill:#333231;}
	.st18{fill:#393736;}
	.st19{fill:#F3D756;}
	.st20{fill:#54C3A8;}
	.st21{fill:#4DB39A;}
	.st22{fill:#FABC3D;}
	.st23{opacity:0.12;}
	.st24{fill:url(#SVGID_1_);}
	.st25{fill:#D4002B;}
	.st26{fill:#1C8ADB;}
	.st27{fill:url(#SVGID_2_);}
	.st28{fill:#25B7D3;}
	.st29{fill:#FFFFFF;}
	.st30{fill:#3E3E3F;}
	.st31{fill:#099686;}
	.st32{fill:#CFD3D4;}
	.st33{fill:#12B2A0;}
	.st34{fill:#F0F1F1;}
	.st35{fill:#84462D;}
	.st36{fill:#9C6144;}
	.st37{fill:#F7B4B4;}
	.st38{fill:#FBC8C8;}
	.st39{fill:#FBD7D7;}
	.st40{fill:#F79392;}
	.st41{fill:#9CE5F4;}
	.st42{fill:#0484AB;}
	.st43{fill:#059BBF;}
	.st44{fill:#21B2D1;}
	.st45{fill:#F37A10;}
	.st46{fill:#32BEA6;}
	.st47{fill:#E2E4E5;}
	.st48{fill:#B6BCBD;}
	.st49{fill:#40C9E7;}
	.st50{fill:#F4D0A1;}
	.st51{fill:#FACB1B;}
	.st52{fill:#A38D6C;}
	.st53{fill:#D6CDBD;}
	.st54{fill:#87745F;}
	.st55{fill:#A59F97;}
	.st56{fill:#DF2C2C;}
	.st57{fill:#FA5655;}
	.st58{fill:#E04F5F;}
	.st59{fill:#B54152;}
	.st60{fill:#FCF6C2;}
	.st61{fill:#F3B607;}
	.st62{fill:#D9E3E4;}
	.st63{fill:#A2D4DE;}
	.st64{fill:#8EC0C8;}
	.st65{fill:#C4E7ED;}
	.st66{fill:#D3DDDD;}
	.st67{fill:#67B8CB;}
	.st68{fill:#94A4A4;}
	.st69{fill:#778383;}
	.st70{fill:url(#SVGID_3_);}
	.st71{fill:#778484;}
	.st72{fill:#788484;}
	.st73{fill:#2EA397;}
	.st74{fill:#238C7F;}
	.st75{fill:#ACC563;}
	.st76{fill:#FFFFFF;filter:url(#Adobe_OpacityMaskFilter);}
	.st77{mask:url(#mask5624_1_);fill:url(#path4786_1_);}
	.st78{fill-opacity:0.1347;}
	.st79{fill:#209EAF;}
	.st80{fill:#FBEC9A;}
	.st81{fill:#FBE158;}
	.st82{fill:#8E6134;}
	.st83{fill:#20A1B2;}
	.st84{fill:#818284;}
	.st85{fill:#47C4B7;}
	.st86{fill:#5B5C5F;}
	.st87{fill:#2DA890;}
	.st88{fill:#EDBC7C;}
	.st89{fill:#FCF1E2;}
	.st90{fill:#C69009;}
	.st91{fill:url(#SVGID_4_);}
	.st92{fill:url(#SVGID_5_);}
	.st93{fill:url(#SVGID_6_);}
	.st94{fill:url(#SVGID_7_);}
	.st95{fill:url(#SVGID_8_);}
	.st96{fill:url(#SVGID_9_);}
	.st97{fill:url(#SVGID_10_);}
	.st98{fill:url(#SVGID_11_);}
	.st99{fill:url(#SVGID_12_);}
	.st100{fill:url(#SVGID_13_);}
	.st101{fill:url(#SVGID_14_);}
	.st102{fill:url(#SVGID_15_);}
	.st103{fill:url(#SVGID_16_);}
	.st104{fill:#8C8C8C;}
	.st105{fill:url(#SVGID_17_);}
	.st106{fill:url(#SVGID_18_);}
	.st107{fill:#EAD48C;}
	.st108{fill:#B29754;}
	.st109{fill:#703732;}
	.st110{fill:url(#path4151_1_);}
	.st111{fill:url(#path4155_1_);}
	.st112{fill:url(#path4151-6_1_);}
	.st113{fill:url(#path4155-6_1_);}
	.st114{fill:url(#path4194_1_);}
	.st115{fill:url(#path4153_1_);}
	.st116{fill:url(#path4153-3_1_);}
	.st117{fill:url(#path4194-5_1_);}
	.st118{fill:#6FDAF1;}
	.st119{fill:#AF7653;}
	.st120{fill:#C18D30;}
	.st121{fill:#FF0000;}
	.st122{fill:url(#SVGID_19_);}
	.st123{fill:url(#SVGID_20_);}
	.st124{fill:url(#SVGID_21_);}
	.st125{fill:#2CDCF4;}
	.st126{fill:#218693;}
	.st127{fill:#173435;}
	.st128{fill:#F99134;}
	.st129{fill:#D19834;}
	.st130{fill:#E2574C;}
	.st131{fill:#EDEDED;}
	.st132{fill:#D65348;}
	.st133{fill:#E1E1E1;}
	.st134{fill:#C04B41;}
</style>
<g id="mayor">
</g>
<g id="press">
	<g>
		<path class="st22" d="M41.7,807.9c0-10.9,8.9-19.8,19.8-19.8c10.9,0,19.8,8.9,19.8,19.8c0,10.9-8.9,19.8-19.8,19.8
			C50.6,827.8,41.7,818.9,41.7,807.9z"/>
	</g>
	<path class="st23" d="M81.4,808.2l-14.8-14.4l-3.6-0.3l-1.6,5.2l-1.3,3.1l-2.6,3.1l-2.8,3.2l-0.8,1.2l-4,7.2l9.4,10.3
		c0.7,0.3,1.5,0.6,2.3,0.9C72.5,827.7,81.2,819,81.4,808.2z"/>
	<linearGradient id="SVGID_1_" gradientUnits="userSpaceOnUse" x1="56.9375" y1="800.8859" x2="69.1944" y2="813.1428">
		<stop  offset="0" style="stop-color:#FFFFFF"/>
		<stop  offset="1" style="stop-color:#009BCC"/>
	</linearGradient>
	<polygon class="st24" points="61.9,795.9 60.3,800.8 57.1,805.2 55.6,808.6 57.3,811.2 59.5,813 61.9,812.8 64.2,811.9 67.5,810.4 
		69.8,810 72.6,809.7 73,807.9 65.3,799.3 	"/>
	<path class="st25" d="M49.6,814.2c-0.4,0.8-0.3,1.8,0.2,2.8c0.5,1,1.3,1.6,2.3,1.6v0c0.6,0,1.6-0.3,2.8-0.8
		c-1.3-0.3-2.3-1.2-3.1-2.7c-0.6-1.3-0.8-2.3-0.6-3.2C50.2,813.4,49.7,814.2,49.6,814.2z"/>
	<path class="st26" d="M52.1,814.4c1.4,2.7,2.8,3.6,4.2,2.9c0,0,0.1-0.1,0.2-0.1c0.1-0.1,0.1-0.1,0.2-0.1c1.3-0.7,2.9,0.1,4.7,2.4
		c1.5,1.9,2.8,3.4,5.3,2.1c0.6-0.3,0.7-0.5,0.7-0.7c-0.1-0.1-7.5-6.5-5.8-7.3c3-1.6,8.2-3.8,11.6-3.4c1,0.1,1.6,0.1,1.8,0v0
		c0.9-0.4,1.1-1.5,0.7-3.1c-0.3-1.1-0.7-2.3-1.3-3.5c-0.8-1.6-1.8-3.2-3-4.7c-1.3-1.7-2.7-3.1-4.2-4.4c-2.3-1.9-4-2.6-5.1-2
		c-0.9,0.5-1.1,1.6-0.7,3.3c-1,5.3-5,10.4-8.6,14.3C51.5,811.4,51.3,812.9,52.1,814.4z M57.5,805.8c0.8-1.2,1.6-2.4,2.5-3.6
		c0.9-1.4,1.5-2.7,1.7-3.9l0.8,1.9c1,1.8,2.3,3.5,4,5.2v0c1.8,1.8,3.5,3.2,5.4,4.1c-2.6,0.1-5.4,0.7-8.3,1.9
		c-1.2,0.5-1.8,0.8-1.9,0.8c-1,0.3-1.9,0.1-2.8-0.5c-0.7-0.5-1.4-1.2-1.9-2.1C56.3,808.4,56.5,807.2,57.5,805.8z"/>
	
		<linearGradient id="SVGID_2_" gradientUnits="userSpaceOnUse" x1="128.3343" y1="631.0729" x2="137.6838" y2="640.4224" gradientTransform="matrix(0.7012 0.8712 -0.5792 0.4662 343.5509 388.9573)">
		<stop  offset="0" style="stop-color:#FFFFFF"/>
		<stop  offset="1" style="stop-color:#057891"/>
	</linearGradient>
	<path class="st27" d="M74.6,808.7c-1.2,1-4.9-1.6-8.2-5.7c-3.3-4.1-5-8.2-3.8-9.2c1.2-1,4.9,1.6,8.2,5.7S75.8,807.7,74.6,808.7z"/>
</g>
<g id="liaison">
</g>
<g id="citizen">
</g>
<g id="finance-head">
</g>
<g id="technical-head">
</g>
<g id="cleaning-head">
</g>
<g id="secretary-head">
</g>
<g id="technical-dept">
</g>
<g id="technical">
</g>
<g id="water-net">
</g>
<g id="cleaning-dept">
</g>
<g id="green-dept">
</g>
<g id="social-security">
</g>
<g id="finance-dept">
</g>
<g id="cachier">
</g>
<g id="supplies">
</g>
<g id="administration">
</g>
<g id="registry">
</g>
<g id="population">
</g>
<g id="onestopoffice">
</g>
<g id="solidarity">
</g>
<g id="oldster">
</g>
<g id="athletics">
</g>
<g id="civilization">
</g>
</svg>
