<?xml version="1.0" encoding="utf-8"?>
<!-- Generator: Adobe Illustrator 19.2.1, SVG Export Plug-In . SVG Version: 6.00 Build 0)  -->
<svg version="1.1" xmlns="http://www.w3.org/2000/svg" xmlns:xlink="http://www.w3.org/1999/xlink" x="0px" y="0px"
	 viewBox="-49 652.8 40 40" style="enable-background:new -49 652.8 40 40;" xml:space="preserve">
<style type="text/css">
	.st0{fill:#49A0AE;}
	.st1{fill:#343434;}
	.st2{fill:#2F2F2F;}
	.st3{fill:#317263;}
	.st4{fill:#E6AF82;}
	.st5{fill:#363635;}
	.st6{fill:#303030;}
	.st7{fill:#E2E2E2;}
	.st8{fill:#EAEAEA;}
	.st9{fill:#FABE8E;}
	.st10{fill:#F6F6F6;}
	.st11{fill:#FEFEFE;}
	.st12{fill:#C5C3C3;}
	.st13{fill:#D14241;}
	.st14{fill:#E54645;}
	.st15{fill:#D6D4D4;}
	.st16{fill:#E54847;}
	.st17{fill:#333231;}
	.st18{fill:#393736;}
	.st19{fill:#F3D756;}
	.st20{fill:#54C3A8;}
	.st21{fill:#4DB39A;}
	.st22{fill:#FABC3D;}
	.st23{opacity:0.12;}
	.st24{fill:url(#SVGID_1_);}
	.st25{fill:#D4002B;}
	.st26{fill:#1C8ADB;}
	.st27{fill:url(#SVGID_2_);}
	.st28{fill:#25B7D3;}
	.st29{fill:#FFFFFF;}
	.st30{fill:#3E3E3F;}
	.st31{fill:#099686;}
	.st32{fill:#CFD3D4;}
	.st33{fill:#12B2A0;}
	.st34{fill:#F0F1F1;}
	.st35{fill:#84462D;}
	.st36{fill:#9C6144;}
	.st37{fill:#F7B4B4;}
	.st38{fill:#FBC8C8;}
	.st39{fill:#FBD7D7;}
	.st40{fill:#F79392;}
	.st41{fill:#9CE5F4;}
	.st42{fill:#0484AB;}
	.st43{fill:#059BBF;}
	.st44{fill:#21B2D1;}
	.st45{fill:#F37A10;}
	.st46{fill:#32BEA6;}
	.st47{fill:#E2E4E5;}
	.st48{fill:#B6BCBD;}
	.st49{fill:#40C9E7;}
	.st50{fill:#F4D0A1;}
	.st51{fill:#FACB1B;}
	.st52{fill:#A38D6C;}
	.st53{fill:#D6CDBD;}
	.st54{fill:#87745F;}
	.st55{fill:#A59F97;}
	.st56{fill:#DF2C2C;}
	.st57{fill:#FA5655;}
	.st58{fill:#E04F5F;}
	.st59{fill:#B54152;}
	.st60{fill:#FCF6C2;}
	.st61{fill:#F3B607;}
	.st62{fill:#D9E3E4;}
	.st63{fill:#A2D4DE;}
	.st64{fill:#8EC0C8;}
	.st65{fill:#C4E7ED;}
	.st66{fill:#D3DDDD;}
	.st67{fill:#67B8CB;}
	.st68{fill:#94A4A4;}
	.st69{fill:#778383;}
	.st70{fill:url(#SVGID_3_);}
	.st71{fill:#778484;}
	.st72{fill:#788484;}
	.st73{fill:#2EA397;}
	.st74{fill:#238C7F;}
	.st75{fill:#ACC563;}
	.st76{fill:#FFFFFF;filter:url(#Adobe_OpacityMaskFilter);}
	.st77{mask:url(#mask5624_1_);fill:url(#path4786_1_);}
	.st78{fill-opacity:0.1347;}
	.st79{fill:#209EAF;}
	.st80{fill:#FBEC9A;}
	.st81{fill:#FBE158;}
	.st82{fill:#8E6134;}
	.st83{fill:#20A1B2;}
	.st84{fill:#818284;}
	.st85{fill:#47C4B7;}
	.st86{fill:#5B5C5F;}
	.st87{fill:#2DA890;}
	.st88{fill:#EDBC7C;}
	.st89{fill:#FCF1E2;}
	.st90{fill:#C69009;}
	.st91{fill:url(#SVGID_4_);}
	.st92{fill:url(#SVGID_5_);}
	.st93{fill:url(#SVGID_6_);}
	.st94{fill:url(#SVGID_7_);}
	.st95{fill:url(#SVGID_8_);}
	.st96{fill:url(#SVGID_9_);}
	.st97{fill:url(#SVGID_10_);}
	.st98{fill:url(#SVGID_11_);}
	.st99{fill:url(#SVGID_12_);}
	.st100{fill:url(#SVGID_13_);}
	.st101{fill:url(#SVGID_14_);}
	.st102{fill:url(#SVGID_15_);}
	.st103{fill:url(#SVGID_16_);}
	.st104{fill:#8C8C8C;}
	.st105{fill:url(#SVGID_17_);}
	.st106{fill:url(#SVGID_18_);}
	.st107{fill:#EAD48C;}
	.st108{fill:#B29754;}
	.st109{fill:#703732;}
	.st110{fill:url(#path4151_1_);}
	.st111{fill:url(#path4155_1_);}
	.st112{fill:url(#path4151-6_1_);}
	.st113{fill:url(#path4155-6_1_);}
	.st114{fill:url(#path4194_1_);}
	.st115{fill:url(#path4153_1_);}
	.st116{fill:url(#path4153-3_1_);}
	.st117{fill:url(#path4194-5_1_);}
	.st118{fill:#6FDAF1;}
	.st119{fill:#AF7653;}
	.st120{fill:#C18D30;}
	.st121{fill:#FF0000;}
	.st122{fill:url(#SVGID_19_);}
	.st123{fill:url(#SVGID_20_);}
	.st124{fill:url(#SVGID_21_);}
	.st125{fill:#2CDCF4;}
	.st126{fill:#218693;}
	.st127{fill:#173435;}
	.st128{fill:#F99134;}
	.st129{fill:#D19834;}
	.st130{fill:#E2574C;}
	.st131{fill:#EDEDED;}
	.st132{fill:#D65348;}
	.st133{fill:#E1E1E1;}
	.st134{fill:#C04B41;}
</style>
<g id="mayor">
</g>
<g id="press">
</g>
<g id="liaison">
</g>
<g id="citizen">
</g>
<g id="finance-head">
</g>
<g id="technical-head">
</g>
<g id="cleaning-head">
</g>
<g id="secretary-head">
</g>
<g id="technical-dept">
</g>
<g id="technical">
</g>
<g id="water-net">
</g>
<g id="cleaning-dept">
</g>
<g id="green-dept">
</g>
<g id="social-security">
</g>
<g id="finance-dept">
</g>
<g id="cachier">
</g>
<g id="supplies">
</g>
<g id="administration">
</g>
<g id="registry">
	<g>
		<path class="st61" d="M-24.1,668.5l12.9,12.9c1.3-2.6,2-5.5,2-8.6c0-10.9-8.9-19.8-19.8-19.8c-10.9,0-19.8,8.9-19.8,19.8
			c0,10.5,8.1,19,18.4,19.7l-13.7-13.7L-24.1,668.5z"/>
		<path class="st90" d="M-11.2,681.5l-12.9-12.9l-20,10.3l13.7,13.7c0.5,0,0.9,0.1,1.4,0.1C-21.2,692.6-14.4,688.1-11.2,681.5z"/>
		<g transform="matrix(1.25,0,0,-1.25,-9.62828,1106.491)">
			
				<linearGradient id="SVGID_1_" gradientUnits="userSpaceOnUse" x1="-70.488" y1="247.171" x2="-70.3944" y2="247.171" gradientTransform="matrix(-145.6208 55.879 55.879 145.6208 -24086.1973 -31708.9512)">
				<stop  offset="0" style="stop-color:#12161C"/>
				<stop  offset="1" style="stop-color:#8087A1"/>
			</linearGradient>
			<path class="st24" d="M-15.7,347.8l1.8-4.9l10.6-0.8v0.2l-0.2,0.1l-4,6.2L-15.7,347.8z"/>
		</g>
		<g transform="matrix(1.25,0,0,-1.25,-9.62828,1106.491)">
			
				<linearGradient id="SVGID_2_" gradientUnits="userSpaceOnUse" x1="-71.3256" y1="252.5333" x2="-71.232" y2="252.5333" gradientTransform="matrix(154.653 11.8527 11.8527 -154.653 8015.0156 40246.0352)">
				<stop  offset="0" style="stop-color:#12161C"/>
				<stop  offset="1" style="stop-color:#8087A1"/>
			</linearGradient>
			<path class="st27" d="M-27.3,342.5l-0.3-0.1v-0.2l10.6,0.8l1.8,4.9l-8.2,0.8L-27.3,342.5L-27.3,342.5z"/>
		</g>
		<g transform="matrix(1.25,0,0,-1.25,-9.62828,1106.491)">
			
				<linearGradient id="SVGID_3_" gradientUnits="userSpaceOnUse" x1="-82.4933" y1="246.5284" x2="-82.3997" y2="246.5284" gradientTransform="matrix(0 38.9449 38.9449 0 -9616.5146 3564.396)">
				<stop  offset="0" style="stop-color:#12161C"/>
				<stop  offset="1" style="stop-color:#8087A1"/>
			</linearGradient>
			<path class="st70" d="M-17,343.2v-0.2c0,0,0.4-0.5,1.5-0.5c0,0,0.9,0,1.5,0.5v0.2l-0.6,0.7L-17,343.2z"/>
		</g>
		<g transform="matrix(1.25,0,0,-1.25,-9.62828,1106.491)">
			
				<linearGradient id="SVGID_4_" gradientUnits="userSpaceOnUse" x1="-78.3" y1="269.4335" x2="-78.2065" y2="269.4335" gradientTransform="matrix(19.0563 1.031 1.031 -19.0562 1197.771 5558.4541)">
				<stop  offset="0" style="stop-color:#3B465B"/>
				<stop  offset="1" style="stop-color:#8087A1"/>
			</linearGradient>
			<path class="st91" d="M-16.9,343.6l-0.1-0.4c0,0,0.4-0.5,1.5-0.5c0,0,0.9,0,1.5,0.5l-0.1,0.4l-0.5,0.6L-16.9,343.6L-16.9,343.6z"
				/>
		</g>
		<g transform="matrix(1.25,0,0,-1.25,-9.62828,1106.491)">
			
				<linearGradient id="SVGID_5_" gradientUnits="userSpaceOnUse" x1="-73.379" y1="258.6443" x2="-73.2854" y2="258.6443" gradientTransform="matrix(43.5496 -0.6638 -0.6638 -43.5496 3350.5447 11558.1211)">
				<stop  offset="0" style="stop-color:#12161C"/>
				<stop  offset="1" style="stop-color:#BCC7ED"/>
			</linearGradient>
			<path class="st92" d="M-15.5,342.7c-1,0-1.4,0.4-1.5,0.5l0,0C-17,343.2-16.6,342.7-15.5,342.7c0-0.1,0.9-0.1,1.5,0.5l0,0.1
				C-14.6,342.7-15.5,342.7-15.5,342.7"/>
		</g>
		<g transform="matrix(1.25,0,0,-1.25,-9.62828,1106.491)">
			
				<linearGradient id="SVGID_6_" gradientUnits="userSpaceOnUse" x1="-71.8334" y1="253.6626" x2="-71.7398" y2="253.6626" gradientTransform="matrix(113.7053 -10.0743 -10.0743 -113.7053 10711.0361 28465.291)">
				<stop  offset="0" style="stop-color:#3B465B"/>
				<stop  offset="1" style="stop-color:#8087A1"/>
			</linearGradient>
			<path class="st93" d="M-15.7,348.1l1.8-4.9l10.6-0.8l-4.2,6.5L-15.7,348.1z"/>
		</g>
		<g transform="matrix(1.25,0,0,-1.25,-9.62828,1106.491)">
			
				<linearGradient id="SVGID_7_" gradientUnits="userSpaceOnUse" x1="-84.1072" y1="246.0157" x2="-84.0137" y2="246.0157" gradientTransform="matrix(0 33.9232 33.9232 0 -8361.1504 3204.4326)">
				<stop  offset="0" style="stop-color:#12161C"/>
				<stop  offset="1" style="stop-color:#8087A1"/>
			</linearGradient>
			<path class="st94" d="M-16.9,343.6c0,0,1.3-1,2.7,0l-0.3,0.9C-14.5,344.5-16.7,344.4-16.9,343.6"/>
		</g>
		<g transform="matrix(1.25,0,0,-1.25,-9.62828,1106.491)">
			
				<linearGradient id="SVGID_8_" gradientUnits="userSpaceOnUse" x1="-71.6166" y1="254.9525" x2="-71.5231" y2="254.9525" gradientTransform="matrix(78.732 8.4413 8.4413 -78.732 3460.1233 21022.8633)">
				<stop  offset="0" style="stop-color:#3B465B"/>
				<stop  offset="1" style="stop-color:#8087A1"/>
			</linearGradient>
			<path class="st95" d="M-27.6,342.4l10.6,0.8l1.8,4.9l-8.2,0.8L-27.6,342.4L-27.6,342.4z"/>
		</g>
		<g transform="matrix(1.25,0,0,-1.25,-9.62828,1106.491)">
			
				<linearGradient id="SVGID_9_" gradientUnits="userSpaceOnUse" x1="-38.2154" y1="262.9539" x2="-38.1219" y2="262.9539" gradientTransform="matrix(3.0873 -11.9618 -11.9618 -3.0873 3239.6084 703.2111)">
				<stop  offset="0" style="stop-color:#12161C"/>
				<stop  offset="1" style="stop-color:#BCC7ED"/>
			</linearGradient>
			<path class="st96" d="M-27.6,342.4L-27.6,342.4l10.6,0.8v0.1L-27.6,342.4L-27.6,342.4z"/>
		</g>
		<g transform="matrix(1.25,0,0,-1.25,-9.62828,1106.491)">
			
				<linearGradient id="SVGID_10_" gradientUnits="userSpaceOnUse" x1="-32.7569" y1="241.8041" x2="-32.6633" y2="241.8041" gradientTransform="matrix(-3.0873 -11.9618 11.9618 -3.0873 -3000.762 703.2097)">
				<stop  offset="0" style="stop-color:#12161C"/>
				<stop  offset="1" style="stop-color:#BCC7ED"/>
			</linearGradient>
			<path class="st97" d="M-14,343.2l10.6-0.8l0,0.1L-14,343.2L-14,343.2L-14,343.2z"/>
		</g>
		<g transform="matrix(1.25,0,0,-1.25,-9.62828,1106.491)">
			
				<linearGradient id="SVGID_11_" gradientUnits="userSpaceOnUse" x1="-78.2198" y1="248.9349" x2="-78.1263" y2="248.9349" gradientTransform="matrix(0 71.8533 71.8533 0 -17908.3613 5980.4287)">
				<stop  offset="0" style="stop-color:#12161C"/>
				<stop  offset="1" style="stop-color:#8087A1"/>
			</linearGradient>
			<path class="st98" d="M-25.9,344.3l-0.4-1.3c0,0,4.2,1.2,9.4,0.6l-1.2,2.1L-25.9,344.3z"/>
		</g>
		<g transform="matrix(1.25,0,0,-1.25,-9.62828,1106.491)">
			
				<linearGradient id="SVGID_12_" gradientUnits="userSpaceOnUse" x1="-78.2198" y1="252.6903" x2="-78.1263" y2="252.6903" gradientTransform="matrix(0 71.8533 -71.8532 0 18147.2031 5980.4287)">
				<stop  offset="0" style="stop-color:#12161C"/>
				<stop  offset="1" style="stop-color:#8087A1"/>
			</linearGradient>
			<path class="st99" d="M-14.1,343.6c5.3,0.5,9.4-0.6,9.4-0.6l-0.4,1.3l-7.9,1.4L-14.1,343.6L-14.1,343.6z"/>
		</g>
		<g transform="matrix(1.25,0,0,-1.25,-9.62828,1106.491)">
			
				<linearGradient id="SVGID_13_" gradientUnits="userSpaceOnUse" x1="-69.9805" y1="246.8289" x2="-69.8869" y2="246.8289" gradientTransform="matrix(-133.4616 12.0917 12.0917 133.4616 -12339.8887 -31749.0273)">
				<stop  offset="0" style="stop-color:#C4C4C4"/>
				<stop  offset="0.7697" style="stop-color:#FDFDFF"/>
				<stop  offset="1" style="stop-color:#EBEBED"/>
			</linearGradient>
			<path class="st100" d="M-22.8,350.1l-3.5-5l10.8-1.2l0,5l0,0v0.4c0,0-1.8,1.1-4.7,1.1C-21,350.4-21.9,350.3-22.8,350.1"/>
		</g>
		<g transform="matrix(1.25,0,0,-1.25,-9.62828,1106.491)">
			<g>
				<g>
					<g>
						<path class="st29" d="M-26.3,345.1c0,0,0.3-0.4,0.2-1.9c0,0,4.5,1.2,10.6,0.2v0.5c0,0-2.7,1.7-7,1.7
							C-23.6,345.6-24.9,345.5-26.3,345.1"/>
					</g>
				</g>
			</g>
		</g>
		<path class="st29" d="M-42.5,675.1C-42.5,675.1-42.5,675.1-42.5,675.1c8-1.8,13.5,1.6,13.5,1.6v-0.1
			C-29,676.6-34.6,673.2-42.5,675.1"/>
		<path class="st104" d="M-29,676.6c0,0-4.6-4.4-12.5-2.3l2.6-3.9l9.2,1.9L-29,676.6z"/>
		<g transform="matrix(1.25,0,0,-1.25,-9.62828,1106.491)">
			
				<linearGradient id="SVGID_14_" gradientUnits="userSpaceOnUse" x1="-74.0998" y1="255.0066" x2="-74.0062" y2="255.0066" gradientTransform="matrix(71.6567 15.6744 15.6744 -71.6567 1300.2999 19781.2695)">
				<stop  offset="0" style="stop-color:#C4C4C4"/>
				<stop  offset="0.7697" style="stop-color:#FDFDFF"/>
				<stop  offset="1" style="stop-color:#EBEBED"/>
			</linearGradient>
			<path class="st101" d="M-15.5,349.3v-0.4l0,0l0-5l10.8,1.2l-3.5,5c-0.9,0.2-1.8,0.3-2.6,0.3C-13.7,350.4-15.5,349.3-15.5,349.3"
				/>
		</g>
		<path class="st104" d="M-29,676.6c0,0,3.8-4,12.9-2.3l-4-5.5C-20,668.8-27.1,672.3-29,676.6"/>
		<g transform="matrix(1.25,0,0,-1.25,-9.62828,1106.491)">
			<g>
				<g>
					<g>
						<path class="st29" d="M-15.5,343.9v-0.5c6.2,1,10.6-0.2,10.6-0.2c-0.2,1.5,0.2,1.9,0.2,1.9c-1.4,0.3-2.7,0.5-3.8,0.5
							C-12.8,345.6-15.5,343.9-15.5,343.9"/>
					</g>
				</g>
			</g>
		</g>
		<g transform="matrix(1.25,0,0,-1.25,-9.62828,1106.491)">
			<g>
				<g>
					<g>
						<path class="st29" d="M-22.3,351.2l-3.5-5c0,0,6.9,1.6,10.3-2.3l0,5l0,0v0.4c0,0-1.8,2.1-5,2.1
							C-21.1,351.4-21.7,351.4-22.3,351.2"/>
					</g>
				</g>
			</g>
		</g>
		<path class="st29" d="M-29,676.5c-4-4.7-12.1-3.1-12.8-2.9l-0.1,0.1C-41.9,673.7-33.2,671.7-29,676.5L-29,676.5z"/>
		<path class="st29" d="M-29,669.9v0.4l0,0l0,6.2c4.5-5.8,10.2-5.3,10.2-5.3l-3.2-6.2C-28.2,666.2-29,669.9-29,669.9L-29,669.9
			C-29,669.9-29,669.9-29,669.9"/>
		
			<linearGradient id="SVGID_15_" gradientUnits="userSpaceOnUse" x1="49.8096" y1="700.8956" x2="45.0782" y2="700.8956" gradientTransform="matrix(1.25 0 0 1.25 -78.0014 -199.8279)">
			<stop  offset="0" style="stop-color:#AEAEB0"/>
			<stop  offset="1" style="stop-color:#DFDFE0"/>
		</linearGradient>
		<path class="st102" d="M-21.7,675.9c0,0,3.5-0.2,5.9,0.8l0-0.1c0,0-2.3-0.7-4.7-0.7C-20.9,675.9-21.3,675.9-21.7,675.9"/>
		<g>
			<path class="st104" d="M-29.4,677.2c0,0,0.1-0.1,0.8,0l-0.4,0.1L-29.4,677.2z"/>
			<path class="st104" d="M-29,676.6L-29,676.6l-0.1,0.6h0.1L-29,676.6L-29,676.6z"/>
		</g>
	</g>
</g>
<g id="population">
</g>
<g id="onestopoffice">
</g>
<g id="solidarity">
</g>
<g id="oldster">
</g>
<g id="athletics">
</g>
<g id="civilization">
</g>
</svg>
