<?xml version="1.0" encoding="utf-8"?>
<!-- Generator: Adobe Illustrator 17.0.0, SVG Export Plug-In . SVG Version: 6.00 Build 0)  -->
<!DOCTYPE svg PUBLIC "-//W3C//DTD SVG 1.1//EN" "http://www.w3.org/Graphics/SVG/1.1/DTD/svg11.dtd">
<svg version="1.1" id="Layer_1" xmlns="http://www.w3.org/2000/svg" xmlns:xlink="http://www.w3.org/1999/xlink" x="0px" y="0px"
	 width="512px" height="512px" viewBox="0 0 512 512" enable-background="new 0 0 512 512" xml:space="preserve">
<g>
	<g>
		<g>
			<g>
				<g>
					<path fill="#EA4949" d="M508.579,256.006c0-139.509-113.085-252.583-252.576-252.583
						C116.506,3.423,3.421,116.497,3.421,256.006c0,139.485,113.085,252.571,252.582,252.571
						C395.494,508.577,508.579,395.491,508.579,256.006z"/>
				</g>
			</g>
		</g>
	</g>
	<g>
		<g>
			<path fill="#EDBF00" d="M302.016,329.088l-0.008-0.005l0.054-0.058c0.581-0.726,1.225-1.39,1.937-1.993l9.605-9.886
				c2.162-2.665,4.58-5.215,6.757-6.152c7.887-3.392,17.384,1.087,21.22,10.004c2.824,6.563,1.782,13.69-2.098,18.352l-0.016,0.097
				l-12.603,13.044c-1.818,2.079-3.736,3.9-5.496,4.658c-7.887,3.393-17.388-1.085-21.224-10.004
				C297.381,340.719,298.323,333.754,302.016,329.088z"/>
			<path fill="#E8CA4B" d="M300.175,347.225c3.84,8.917,13.025,13.532,20.522,10.304c7.491-3.222,10.462-13.067,6.622-21.984
				c-3.834-8.916-13.025-13.527-20.518-10.306C299.304,328.466,296.341,338.306,300.175,347.225z"/>
			
				<ellipse transform="matrix(-0.9186 0.3952 -0.3952 -0.9186 736.1223 532.5206)" fill="#CE8505" cx="313.215" cy="342.077" rx="6.876" ry="7.779"/>
			<path fill="#EA9C00" d="M316.288,349.222c3.486-1.502,4.943-5.918,3.243-9.863c-1.696-3.948-5.904-5.93-9.392-4.428
				c-1.74,0.75-2.977,2.224-3.565,4.007C305.985,340.723,312.8,350.725,316.288,349.222z"/>
		</g>
		<g>
			<path fill="#EDBF00" d="M89.565,242.607l-0.004-0.007l0.06-0.048c0.678-0.634,1.414-1.199,2.205-1.692l10.931-8.394
				c2.525-2.325,5.288-4.498,7.578-5.11c8.292-2.218,17.044,3.588,19.551,12.966c1.843,6.901-0.219,13.803-4.733,17.856
				l-0.028,0.094l-14.353,11.085c-2.102,1.795-4.265,3.319-6.117,3.815c-8.294,2.218-17.046-3.588-19.551-12.967
				C83.297,253.448,85.238,246.692,89.565,242.607z"/>
			<path fill="#E8CA4B" d="M85.125,260.288c2.508,9.381,10.929,15.274,18.816,13.163c7.879-2.105,12.242-11.416,9.73-20.796
				c-2.504-9.377-10.933-15.269-18.812-13.163C86.972,241.601,82.619,250.91,85.125,260.288z"/>
			<path fill="#CE8505" d="M92.126,258.856c1.108,4.152,4.981,6.721,8.652,5.739c3.665-0.982,5.745-5.14,4.633-9.292
				c-1.108-4.152-4.983-6.721-8.652-5.74C93.091,250.546,91.015,254.705,92.126,258.856z"/>
			<path fill="#EA9C00" d="M100.778,264.595c3.665-0.982,5.745-5.14,4.633-9.292c-1.108-4.152-4.983-6.721-8.652-5.74
				c-1.831,0.491-3.265,1.771-4.106,3.45C91.814,254.695,97.108,265.577,100.778,264.595z"/>
		</g>
		<g>
			<path fill="#297358" d="M378.79,274.607c0,0,82.601,8.908,72.885,34.823c0,0-17.816,48.588-118.233,17.816
				c0,0-228.367-78.958-259.952-109.326c-11.766-11.313-16.197-42.516,14.172-38.872c20.695,2.484,50.207,5.264,108.11,29.964
				L378.79,274.607z"/>
			<path fill="#4ABC96" d="M378.79,266.103c0,0,82.601,8.909,72.885,34.822c0,0-17.816,48.589-118.233,17.816
				c0,0-228.367-78.957-259.952-109.325c-11.766-11.313-13.297-39.669,17.281-38.904c21.854,0.546,47.099,5.296,105.002,29.996
				L378.79,266.103z"/>
			<path fill="#3CA57F" d="M106.072,229.24c-15.401-7.647-27.032-14.487-32.582-19.824c-11.766-11.313-13.297-39.669,17.281-38.904
				c16.344,0.408,34.583,3.168,66.959,14.863L106.072,229.24z"/>
			<path fill="#3CA57F" d="M378.79,266.103c0,0,82.601,8.909,72.885,34.822c0,0-17.816,48.589-118.233,17.816L378.79,266.103z"/>
		</g>
		<g>
			<circle fill="#369975" cx="345.382" cy="293.305" r="3.563"/>
			<circle fill="#369975" cx="356.242" cy="281.427" r="3.563"/>
		</g>
		<g>
			<circle fill="#369975" cx="134.628" cy="214.908" r="3.563"/>
			<circle fill="#369975" cx="147.778" cy="202.861" r="3.563"/>
		</g>
	</g>
</g>
</svg>
