<?xml version="1.0" encoding="utf-8"?>
<!-- Generator: Adobe Illustrator 19.2.1, SVG Export Plug-In . SVG Version: 6.00 Build 0)  -->
<svg version="1.1" xmlns="http://www.w3.org/2000/svg" xmlns:xlink="http://www.w3.org/1999/xlink" x="0px" y="0px"
	 viewBox="41.6 607.9 40 40" style="enable-background:new 41.6 607.9 40 40;" xml:space="preserve">
<style type="text/css">
	.st0{fill:#49A0AE;}
	.st1{fill:#343434;}
	.st2{fill:#2F2F2F;}
	.st3{fill:#317263;}
	.st4{fill:#E6AF82;}
	.st5{fill:#363635;}
	.st6{fill:#303030;}
	.st7{fill:#E2E2E2;}
	.st8{fill:#EAEAEA;}
	.st9{fill:#FABE8E;}
	.st10{fill:#F6F6F6;}
	.st11{fill:#FEFEFE;}
	.st12{fill:#C5C3C3;}
	.st13{fill:#D14241;}
	.st14{fill:#E54645;}
	.st15{fill:#D6D4D4;}
	.st16{fill:#E54847;}
	.st17{fill:#333231;}
	.st18{fill:#393736;}
	.st19{fill:#F3D756;}
	.st20{fill:#54C3A8;}
	.st21{fill:#4DB39A;}
	.st22{fill:#FABC3D;}
	.st23{opacity:0.12;}
	.st24{fill:url(#SVGID_1_);}
	.st25{fill:#D4002B;}
	.st26{fill:#1C8ADB;}
	.st27{fill:url(#SVGID_2_);}
	.st28{fill:#25B7D3;}
	.st29{fill:#FFFFFF;}
	.st30{fill:#3E3E3F;}
	.st31{fill:#099686;}
	.st32{fill:#CFD3D4;}
	.st33{fill:#12B2A0;}
	.st34{fill:#F0F1F1;}
	.st35{fill:#84462D;}
	.st36{fill:#9C6144;}
	.st37{fill:#F7B4B4;}
	.st38{fill:#FBC8C8;}
	.st39{fill:#FBD7D7;}
	.st40{fill:#F79392;}
	.st41{fill:#9CE5F4;}
	.st42{fill:#0484AB;}
	.st43{fill:#059BBF;}
	.st44{fill:#21B2D1;}
	.st45{fill:#F37A10;}
	.st46{fill:#32BEA6;}
	.st47{fill:#E2E4E5;}
	.st48{fill:#B6BCBD;}
	.st49{fill:#40C9E7;}
	.st50{fill:#F4D0A1;}
	.st51{fill:#FACB1B;}
	.st52{fill:#A38D6C;}
	.st53{fill:#D6CDBD;}
	.st54{fill:#87745F;}
	.st55{fill:#A59F97;}
	.st56{fill:#DF2C2C;}
	.st57{fill:#FA5655;}
	.st58{fill:#E04F5F;}
	.st59{fill:#B54152;}
	.st60{fill:#FCF6C2;}
	.st61{fill:#F3B607;}
	.st62{fill:#D9E3E4;}
	.st63{fill:#A2D4DE;}
	.st64{fill:#8EC0C8;}
	.st65{fill:#C4E7ED;}
	.st66{fill:#D3DDDD;}
	.st67{fill:#67B8CB;}
	.st68{fill:#94A4A4;}
	.st69{fill:#778383;}
	.st70{fill:url(#SVGID_3_);}
	.st71{fill:#778484;}
	.st72{fill:#788484;}
	.st73{fill:#2EA397;}
	.st74{fill:#238C7F;}
	.st75{fill:#ACC563;}
	.st76{fill:#FFFFFF;filter:url(#Adobe_OpacityMaskFilter);}
	.st77{mask:url(#mask5624_1_);fill:url(#path4786_1_);}
	.st78{fill-opacity:0.1347;}
	.st79{fill:#209EAF;}
	.st80{fill:#FBEC9A;}
	.st81{fill:#FBE158;}
	.st82{fill:#8E6134;}
	.st83{fill:#20A1B2;}
	.st84{fill:#818284;}
	.st85{fill:#47C4B7;}
	.st86{fill:#5B5C5F;}
	.st87{fill:#2DA890;}
	.st88{fill:#EDBC7C;}
	.st89{fill:#FCF1E2;}
	.st90{fill:#C69009;}
	.st91{fill:url(#SVGID_4_);}
	.st92{fill:url(#SVGID_5_);}
	.st93{fill:url(#SVGID_6_);}
	.st94{fill:url(#SVGID_7_);}
	.st95{fill:url(#SVGID_8_);}
	.st96{fill:url(#SVGID_9_);}
	.st97{fill:url(#SVGID_10_);}
	.st98{fill:url(#SVGID_11_);}
	.st99{fill:url(#SVGID_12_);}
	.st100{fill:url(#SVGID_13_);}
	.st101{fill:url(#SVGID_14_);}
	.st102{fill:url(#SVGID_15_);}
	.st103{fill:url(#SVGID_16_);}
	.st104{fill:#8C8C8C;}
	.st105{fill:url(#SVGID_17_);}
	.st106{fill:url(#SVGID_18_);}
	.st107{fill:#EAD48C;}
	.st108{fill:#B29754;}
	.st109{fill:#703732;}
	.st110{fill:url(#path4151_1_);}
	.st111{fill:url(#path4155_1_);}
	.st112{fill:url(#path4151-6_1_);}
	.st113{fill:url(#path4155-6_1_);}
	.st114{fill:url(#path4194_1_);}
	.st115{fill:url(#path4153_1_);}
	.st116{fill:url(#path4153-3_1_);}
	.st117{fill:url(#path4194-5_1_);}
	.st118{fill:#6FDAF1;}
	.st119{fill:#AF7653;}
	.st120{fill:#C18D30;}
	.st121{fill:#FF0000;}
	.st122{fill:url(#SVGID_19_);}
	.st123{fill:url(#SVGID_20_);}
	.st124{fill:url(#SVGID_21_);}
	.st125{fill:#2CDCF4;}
	.st126{fill:#218693;}
	.st127{fill:#173435;}
	.st128{fill:#F99134;}
	.st129{fill:#D19834;}
	.st130{fill:#E2574C;}
	.st131{fill:#EDEDED;}
	.st132{fill:#D65348;}
	.st133{fill:#E1E1E1;}
	.st134{fill:#C04B41;}
</style>
<g id="mayor">
</g>
<g id="press">
</g>
<g id="liaison">
</g>
<g id="citizen">
</g>
<g id="finance-head">
</g>
<g id="technical-head">
</g>
<g id="cleaning-head">
</g>
<g id="secretary-head">
</g>
<g id="technical-dept">
</g>
<g id="technical">
</g>
<g id="water-net">
</g>
<g id="cleaning-dept">
</g>
<g id="green-dept">
</g>
<g id="social-security">
</g>
<g id="finance-dept">
</g>
<g id="cachier">
</g>
<g id="supplies">
</g>
<g id="administration">
</g>
<g id="registry">
</g>
<g id="population">
</g>
<g id="onestopoffice">
</g>
<g id="solidarity">
	<g>
		<path class="st22" d="M41.7,627.9c0-10.9,8.9-19.8,19.8-19.8c10.9,0,19.8,8.9,19.8,19.8c0,10.9-8.9,19.8-19.8,19.8
			C50.6,647.7,41.7,638.8,41.7,627.9z"/>
	</g>
	<path class="st120" d="M73.8,638.3c-2.3-0.8-5.6-5.2-8.4-9.7c1-2,1.9-3.9,2.4-5.7c0.5-1.7-2.5-5.1-2.5-5.1c0,0,0,0,0,0
		c0,0,0-0.1,0-0.1c-2.1-0.7-3.6-0.5-5.1,0.1c0,0,0,0.1-0.1,0.1c0,0,0,0,0,0c0,0-2.4,3-2.1,4.5c0.4,1.9,1.3,4,2.3,6.1
		c-2.7,4.7-6.1,9.6-9.2,12l4.9,1.6c0.8-1,3.8-4.8,6.7-9.1c2.9,4.7,5.9,8.5,5.9,8.5L73.8,638.3z M60.9,620.5c1.3-0.7,2.2-0.6,3.5-0.1
		c-0.4,1-1,2.3-1.7,3.7C62,622.8,61.3,621.5,60.9,620.5z"/>
	<g transform="translate(-184.3602,-157.992)">
		<path class="st121" d="M243.3,774.7c1.5-0.7,3-0.8,5.1-0.1c0.2,0.3-0.2,2.9-0.2,2.9c-1.9-0.9-2.9-1-4.8,0.2
			C243.4,777.7,242.7,775.3,243.3,774.7L243.3,774.7z"/>
		
			<radialGradient id="SVGID_1_" cx="396.0751" cy="407.0788" r="2.7582" fx="396.1334" fy="406.7795" gradientTransform="matrix(2.4258 -0.5297 -0.3358 -1.5378 -578.3145 1610.7543)" gradientUnits="userSpaceOnUse">
			<stop  offset="0" style="stop-color:#424242;stop-opacity:0"/>
			<stop  offset="1" style="stop-color:#424242"/>
		</radialGradient>
		<path class="st24" d="M243.3,774.7c1.5-0.7,3-0.8,5.1-0.1c0.2,0.3-0.2,2.9-0.2,2.9c-1.9-0.9-2.9-1-4.8,0.2
			C243.4,777.7,242.7,775.3,243.3,774.7L243.3,774.7z"/>
		<path class="st121" d="M234.4,797.4c6.3-4.9,14.1-20.8,14.1-22.8c0,0,3,3.4,2.5,5.1c-2.1,7.3-10.2,17.4-11.7,19.2L234.4,797.4
			L234.4,797.4z"/>
		
			<linearGradient id="SVGID_2_" gradientUnits="userSpaceOnUse" x1="434.9303" y1="162.1719" x2="428.3406" y2="166.3467" gradientTransform="matrix(1 0 0 -1 -184.3602 953.992)">
			<stop  offset="0" style="stop-color:#000000"/>
			<stop  offset="1" style="stop-color:#000000;stop-opacity:0"/>
		</linearGradient>
		<path class="st27" d="M234.4,797.4c6.3-4.9,14.1-20.8,14.1-22.8c0,0,3,3.4,2.5,5.1c-2.1,7.3-10.2,17.4-11.7,19.2L234.4,797.4
			L234.4,797.4z"/>
		<path class="st121" d="M243.3,774.8c0,0-2.4,3-2.1,4.5c1.8,8,10.6,19,10.6,19l5.1-3.2C252.3,793.4,243,776.5,243.3,774.8
			L243.3,774.8z"/>
		
			<linearGradient id="SVGID_3_" gradientUnits="userSpaceOnUse" x1="422.0108" y1="161.8288" x2="432.7961" y2="167.8865" gradientTransform="matrix(1 0 0 -1 -184.3602 953.992)">
			<stop  offset="0" style="stop-color:#000000"/>
			<stop  offset="1" style="stop-color:#000000;stop-opacity:0"/>
		</linearGradient>
		<path class="st70" d="M243.3,774.8c0,0-2.4,3-2.1,4.5c1.8,8,10.6,19,10.6,19l5.1-3.2C252.3,793.4,243,776.5,243.3,774.8
			L243.3,774.8z"/>
	</g>
</g>
<g id="oldster">
</g>
<g id="athletics">
</g>
<g id="civilization">
</g>
</svg>
