<?xml version="1.0" encoding="utf-8"?>
<!-- Generator: Adobe Illustrator 17.0.0, SVG Export Plug-In . SVG Version: 6.00 Build 0)  -->
<!DOCTYPE svg PUBLIC "-//W3C//DTD SVG 1.1//EN" "http://www.w3.org/Graphics/SVG/1.1/DTD/svg11.dtd">
<svg version="1.1" id="Layer_1" xmlns="http://www.w3.org/2000/svg" xmlns:xlink="http://www.w3.org/1999/xlink" x="0px" y="0px"
	 width="512px" height="512px" viewBox="0 0 512 512" enable-background="new 0 0 512 512" xml:space="preserve">
<g>
	<g>
		<g>
			<g>
				<g>
					<path fill="#337180" d="M2.921,256.001C2.921,116.22,116.23,2.919,255.996,2.919c139.774,0,253.083,113.301,253.083,253.082
						c0,139.768-113.309,253.081-253.083,253.081C116.23,509.081,2.921,395.768,2.921,256.001z"/>
				</g>
			</g>
		</g>
	</g>
	<g>
		<g>
			<g>
				<g>
					<g>
						<g>
							<g>
								<path fill="#D9E3E4" d="M331.599,171.318h-99.503v41.398c0,0,4.431,0,33.486,0c4.224,0.173,16.307,0.837,20.226,2.927
									c8.13,4.336,14.657,5.593,21.71,5.88v0.082c0.652,0,1.281-0.018,1.916-0.028c0.64,0.01,1.268,0.028,1.914,0.028v-0.082
									c7.059-0.287,13.582-1.544,21.711-5.88c2.587-1.377,8.698-2.128,13.791-2.538c34.598,2.001,32.539,1.367,32.539,30.063
									c0,0,8.058,3.14,20.487,3.14c12.433,0,20.517-3.14,20.517-3.14C420.238,184.01,412.881,171.318,331.599,171.318z"/>
							</g>
							<g>
								<path fill="#A2D4DE" d="M426.039,249.176c0,4.77-3.312,8.632-7.396,8.632h-37.887c-4.087,0-7.396-3.862-7.396-8.632l0,0
									c0-4.766,3.31-8.631,7.396-8.631h37.887C422.728,240.545,426.039,244.41,426.039,249.176L426.039,249.176z"/>
							</g>
							<g>
								<path fill="#D9E3E4" d="M349.125,188.334c0,21.252-17.222,38.479-38.477,38.479c-21.248,0-38.475-17.227-38.475-38.479
									c0-21.25,17.227-38.475,38.475-38.475C331.903,149.859,349.125,167.084,349.125,188.334z"/>
							</g>
							<g>
								<path fill="#D9E3E4" d="M328.522,172.238c0,9.867-7.993,17.861-17.858,17.861l0,0c-9.869,0-17.862-7.994-17.862-17.861
									v-26.131c0-9.863,7.993-17.861,17.862-17.861l0,0c9.865,0,17.858,7.998,17.858,17.861V172.238z"/>
							</g>
							<g>
								<path fill="#8EC0C8" d="M316.482,133.413c0,0-0.18,2.154-5.268,2.154c-5.087,0-7.027-2.154-7.027-2.154v-21.991h12.296
									V133.413z"/>
							</g>
							<g>
								<path fill="#8EC0C8" d="M305.216,109.925c-2.245,0-4.062-1.819-4.062-4.063l0,0c0-2.246,1.817-4.067,4.062-4.067h10.893
									c2.246,0,4.063,1.821,4.063,4.067l0,0c0,2.244-1.817,4.063-4.063,4.063H305.216z"/>
							</g>
							<g>
								<path fill="#A2D4DE" d="M341.697,111.103c0,3.023-2.212,5.475-4.943,5.475h-52.498c-2.731,0-4.943-2.453-4.943-5.475l0,0
									c0-3.023,2.213-5.473,4.943-5.473h52.498C339.485,105.63,341.697,108.08,341.697,111.103L341.697,111.103z"/>
							</g>
						</g>
					</g>
					<g>
						<path fill="#FFFFFF" d="M412.976,206.567c-5.27-14.049-13.463-22.828-31.609-24.585c0,0,11.059,6.685,18.146,11.122
							C405.965,197.135,412.976,206.567,412.976,206.567z"/>
					</g>
					<g>
						<path fill="#FFFFFF" d="M340.739,178.055c-5.627-12.539-8.65-18.883-24.257-18.883c0,0,12.919,5.567,15.171,20.003
							C332.856,186.927,340.739,178.055,340.739,178.055z"/>
					</g>
					<g>
						<path fill="#C4E7ED" d="M401.027,272.68c0,0-13.645,24.617-13.645,34.121c0,7.544,6.108,13.649,13.645,13.651
							c7.544-0.002,13.649-6.107,13.649-13.653C414.676,297.983,401.027,272.68,401.027,272.68z"/>
					</g>
					<g>
						<path fill="#FFFFFF" d="M399.81,317.33c9.072-0.189,11.07-2.331,11.989-11.991c0,0-2.472,3.786-5.455,7.081
							C403.628,315.421,399.81,317.33,399.81,317.33z"/>
					</g>
				</g>
			</g>
		</g>
		<g>
			<g>
				<path fill="#D3DDDD" d="M68.362,369.551c0,8.45,6.851,15.302,15.302,15.302h88.753c8.451,0,15.302-6.852,15.302-15.302V208.705
					h51.121c8.451,0,15.302-6.85,15.302-15.302c0-8.45-6.851-15.302-15.302-15.302h-66.424c-8.451,0-15.302,6.852-15.302,15.302
					v160.846H98.967v-97.935c0-8.452-6.851-15.302-15.302-15.302H3.375c-0.291,4.961-0.454,9.956-0.454,14.991
					c0,5.245,0.179,10.447,0.494,15.614h64.947V369.551z"/>
			</g>
			<g>
				<path fill="#67B8CB" d="M250.923,210.889c0,8.179-6.551,14.81-14.629,14.81l0,0c-8.083,0-14.637-6.631-14.637-14.81V172.92
					c0-8.179,6.553-14.81,14.637-14.81l0,0c8.078,0,14.629,6.631,14.629,14.81V210.889z"/>
			</g>
			<g>
				<path fill="#67B8CB" d="M17.819,275.671v-37.969c0-7.538-5.567-13.744-12.761-14.677c-1.405,10.795-2.137,21.8-2.137,32.978
					c0,11.641,0.803,23.092,2.325,34.315C12.347,289.304,17.819,283.141,17.819,275.671z"/>
			</g>
			<g>
				<path fill="#A2D4DE" d="M98.967,261.172v-4.858c0-8.452-6.851-15.302-15.302-15.302h-5.926l-22.832,22.833
					c-2.208,2.208-3.575,4.931-4.111,7.773h17.566v16.914c2.646-0.602,5.171-1.925,7.239-3.993L98.967,261.172z"/>
				<path fill="#A2D4DE" d="M177.378,178.114h-4.859c-8.45,0-15.301,6.852-15.301,15.302v5.926l22.833,22.832
					c2.207,2.208,4.931,3.575,7.773,4.111l-0.001-17.566h16.914c-0.601-2.646-1.924-5.171-3.992-7.239L177.378,178.114z"/>
				<path fill="#A2D4DE" d="M114.832,354.249H98.967v-16.476c-3.296,0.329-6.514,1.761-9.052,4.3l-21.553,21.553v5.926
					c0,8.45,6.851,15.302,15.302,15.302h4.859l22.086-22.087C113.009,360.366,114.407,357.355,114.832,354.249z"/>
				<path fill="#A2D4DE" d="M157.116,337.889v16.36h-16.657c0.424,3.108,1.822,6.119,4.222,8.518l22.087,22.087h5.651
					c8.451,0,15.302-6.852,15.302-15.302v-5.133l-22.346-22.346C163.041,339.74,160.13,338.355,157.116,337.889z"/>
			</g>
		</g>
	</g>
</g>
</svg>
