<?xml version="1.0" encoding="utf-8"?>
<!DOCTYPE svg PUBLIC "-//W3C//DTD SVG 1.1//EN" "http://www.w3.org/Graphics/SVG/1.1/DTD/svg11.dtd">
<svg version="1.1" id="Layer_1" xmlns="http://www.w3.org/2000/svg" xmlns:xlink="http://www.w3.org/1999/xlink" x="0px" y="0px"
	 width="337px" height="318.769px" viewBox="0 0 337 318.769" enable-background="new 0 0 337 318.769" xml:space="preserve">
<g>
	<path d="M173.879,3.603c12.146,29.003,21.654,68.947,29.006,110.4c16.604,5.83,32.462,11.831,46.728,17.469
		c32.63-34.526,44.883-61.825,30.704-81.202l0.911-0.385c0,0,0,0-0.001-0.001c-10.494-10.639-22.511-19.771-35.694-27.049
		c0.001,0,0.001,0,0.002,0C224.209,11.066,199.828,4.156,173.879,3.603z"/>
	<path d="M244.157,137.125c-13.668-4.035-26.746-7.747-39.206-11.101c2.323,13.939,4.409,27.938,6.279,41.653
		C223.623,156.965,234.64,146.776,244.157,137.125z"/>
	<path d="M312.016,94.499c-9.105,14.211-23.978,29.682-41.844,45.282c26.544,10.963,43.844,19.02,43.655,18.959
		c-16.724-5.392-32.755-10.445-48.093-15.134c-15.982,13.609-34.057,27.243-52.391,40.154c4.346,34.335,7.318,65.869,9.214,88.666
		c-2.65-31.855-6.165-61.208-10.37-87.854c-60.192,42.264-122.704,76.557-122.401,76.341
		c47.441-33.833,88.049-64.519,119.822-91.837c-2.763-15.8-5.775-30.557-8.998-44.209C86.783,94.639,24.662,94.682,15.811,142.882
		c-0.552,5.327-0.838,10.733-0.838,16.205c0,1.66,0.035,3.311,0.087,4.958c0.3,3.691,0.776,7.549,1.468,11.614
		c-0.3-0.644-0.572-1.265-0.861-1.9c7.395,79.013,73.887,140.855,154.833,140.855c85.895,0,155.527-69.632,155.527-155.527
		C326.027,136.043,321.009,114.172,312.016,94.499z"/>
	<path d="M197.454,112.112C180.307,45.903,158.034,8.826,136.144,7.376c-4.703,1.061-9.324,2.338-13.855,3.814
		c-1.37,0.446-2.733,0.91-4.086,1.393c-0.158,0.056-0.316,0.11-0.474,0.167c-3.155,1.139-6.263,2.378-9.319,3.712
		c-0.081,0.035-0.162,0.071-0.242,0.106c-1.529,0.67-3.046,1.362-4.549,2.079c0.001-0.002,0.001-0.004,0.002-0.006
		C74.836,32.373,50.939,54.69,35.237,82.283C74.054,74.915,139.654,92.151,197.454,112.112z"/>
</g>
</svg>
