<?xml version="1.0" encoding="iso-8859-1"?>
<!-- Generator: Adobe Illustrator 19.0.0, SVG Export Plug-In . SVG Version: 6.00 Build 0)  -->
<svg version="1.1" id="Layer_1" xmlns="http://www.w3.org/2000/svg" xmlns:xlink="http://www.w3.org/1999/xlink" x="0px" y="0px"
	 viewBox="0 0 459.681 459.681" style="enable-background:new 0 0 459.681 459.681;" xml:space="preserve">
<g>
	<g>
		<g>
			<path d="M347.957,163.229H111.725h-0.001c-47.553,0-86.676,38.655-86.676,86.676v85.381c0,8.525,6.911,15.437,15.437,15.437
				h378.71c8.525,0,15.437-6.911,15.437-15.437v-85.381C434.633,201.756,395.34,163.229,347.957,163.229z M101.075,302.354
				c-12.531,0-22.689-10.158-22.689-22.69c-0.001-12.53,10.157-22.689,22.689-22.689c12.531,0,22.689,10.158,22.689,22.689
				S113.605,302.354,101.075,302.354z"/>
			<path d="M347.957,132.355c6.336,0,12.555,0.511,18.623,1.481v-118.4C366.58,6.911,359.669,0,351.144,0H108.539
				c-8.525,0-15.437,6.911-15.437,15.436v118.4C105.734,131.817,87.786,132.355,347.957,132.355z"/>
			<path d="M100.69,444.244h-0.001c0,8.525,6.911,15.437,15.437,15.437h30.873c8.525,0,15.437-6.911,15.437-15.437v-62.649H100.69
				V444.244z"/>
			<path d="M198.969,424.691h-0.001c0,8.525,6.911,15.437,15.437,15.437h30.873c8.525,0,15.437-6.911,15.437-15.437v-43.096h-61.746
				V424.691z"/>
			<path d="M297.248,406.167L297.248,406.167c-0.001,8.525,6.91,15.436,15.436,15.436h30.873c8.525,0,15.437-6.911,15.437-15.436
				v-24.572h-61.746V406.167z"/>
		</g>
	</g>
</g>
<g>
</g>
<g>
</g>
<g>
</g>
<g>
</g>
<g>
</g>
<g>
</g>
<g>
</g>
<g>
</g>
<g>
</g>
<g>
</g>
<g>
</g>
<g>
</g>
<g>
</g>
<g>
</g>
<g>
</g>
</svg>
